<svg width="200" height="200" viewBox="0 0 200 200" fill="none" xmlns="http://www.w3.org/2000/svg">
<path fill-rule="evenodd" clip-rule="evenodd" d="M5 35C5 18.4315 18.4315 5 35 5H165C181.569 5 195 18.4315 195 35V165C195 181.569 181.569 195 165 195H35C18.4315 195 5 181.569 5 165V35ZM71 71L62.045 62.0449L23 101.09L62.045 140.135L71 131.18L40.91 101.09L71 71ZM106 96V73C106 69.6863 103.314 67 100 67C96.6863 67 94 69.6863 94 73V93.9999V94V96H68C64.6863 96 62 98.6863 62 102C62 105.314 64.6863 108 68 108H94V129C94 132.314 96.6863 135 100 135C103.314 135 106 132.314 106 129V108.045V108.045V108H132C135.314 108 138 105.314 138 102C138 98.6863 135.314 96 132 96H106ZM138.045 140.09L129.09 131.135L159.18 101.045L129.09 70.955L138.045 62L177.09 101.045L138.045 140.09Z" fill="white" fill-opacity="0.8"/>
</svg>
