<svg width="200" height="200" viewBox="0 0 200 200" fill="none" xmlns="http://www.w3.org/2000/svg">
<path fill-rule="evenodd" clip-rule="evenodd" d="M35 5C18.4315 5 5 18.4315 5 35V165C5 181.569 18.4315 195 35 195H165C181.569 195 195 181.569 195 165V35C195 18.4315 181.569 5 165 5H35ZM79.2074 146.829C78.2631 150.005 80.0725 153.346 83.2488 154.29C86.4251 155.234 89.7655 153.425 90.7098 150.249L103.886 105.931L129.09 131.135L138.045 140.09L177.09 101.045L138.045 62L129.09 70.9549L159.18 101.045L129.09 131.135L103.886 105.93L120.29 50.7512C121.234 47.5749 119.425 44.2345 116.249 43.2902C113.072 42.3459 109.732 44.1553 108.788 47.3316L94.7041 94.704L71 71L62.045 62.0449L23 101.09L62.045 140.135L71 131.18L40.91 101.09L71 71L94.704 94.704L79.2074 146.829Z" fill="white" fill-opacity="0.8"/>
</svg>
