<svg width="217" height="77" viewBox="0 0 217 77" fill="none" xmlns="http://www.w3.org/2000/svg">
<rect y="13" width="14" height="45" fill="#3EFFB9"/>
<path d="M30.064 13.2H39.6L46.896 58H39.856L38.576 49.104V49.232H30.576L29.296 58H22.768L30.064 13.2ZM37.744 43.152L34.608 21.008H34.48L31.408 43.152H37.744ZM50.3115 13.2H60.9355C64.5622 13.2 67.2075 14.0533 68.8715 15.76C70.5355 17.424 71.3675 20.0053 71.3675 23.504V25.296C71.3675 27.6 70.9835 29.4773 70.2155 30.928C69.4902 32.3787 68.3595 33.424 66.8235 34.064V34.192C70.3222 35.3867 72.0715 38.5013 72.0715 43.536V47.376C72.0715 50.832 71.1542 53.4773 69.3195 55.312C67.5275 57.104 64.8822 58 61.3835 58H50.3115V13.2ZM60.1035 31.44C61.5115 31.44 62.5568 31.0773 63.2395 30.352C63.9648 29.6267 64.3275 28.4107 64.3275 26.704V24.208C64.3275 22.5867 64.0288 21.4133 63.4315 20.688C62.8768 19.9627 61.9808 19.6 60.7435 19.6H57.3515V31.44H60.1035ZM61.3835 51.6C62.6208 51.6 63.5382 51.28 64.1355 50.64C64.7328 49.9573 65.0315 48.8053 65.0315 47.184V43.28C65.0315 41.232 64.6688 39.824 63.9435 39.056C63.2608 38.2453 62.1088 37.84 60.4875 37.84H57.3515V51.6H61.3835ZM86.3625 58.64C82.9065 58.64 80.2612 57.6587 78.4265 55.696C76.5918 53.7333 75.6745 50.96 75.6745 47.376V23.824C75.6745 20.24 76.5918 17.4667 78.4265 15.504C80.2612 13.5413 82.9065 12.56 86.3625 12.56C89.8185 12.56 92.4638 13.5413 94.2985 15.504C96.1332 17.4667 97.0505 20.24 97.0505 23.824V47.376C97.0505 50.96 96.1332 53.7333 94.2985 55.696C92.4638 57.6587 89.8185 58.64 86.3625 58.64ZM86.3625 52.24C88.7945 52.24 90.0105 50.768 90.0105 47.824V23.376C90.0105 20.432 88.7945 18.96 86.3625 18.96C83.9305 18.96 82.7145 20.432 82.7145 23.376V47.824C82.7145 50.768 83.9305 52.24 86.3625 52.24ZM112.052 58.64C108.638 58.64 106.036 57.68 104.244 55.76C102.452 53.7973 101.556 51.0027 101.556 47.376V13.2H108.595V47.888C108.595 49.424 108.894 50.5333 109.492 51.216C110.132 51.8987 111.028 52.24 112.18 52.24C113.332 52.24 114.206 51.8987 114.804 51.216C115.444 50.5333 115.764 49.424 115.764 47.888V13.2H122.548V47.376C122.548 51.0027 121.652 53.7973 119.86 55.76C118.068 57.68 115.465 58.64 112.052 58.64ZM133.066 19.6H125.706V13.2H147.466V19.6H140.106V58H133.066V19.6ZM161.124 13.2H171.172L175.652 45.264H175.78L180.26 13.2H190.308V58H183.652V24.08H183.524L178.404 58H172.516L167.396 24.08H167.268V58H161.124V13.2ZM195.562 13.2H214.762V19.6H202.602V31.44H212.266V37.84H202.602V51.6H214.762V58H195.562V13.2Z" fill="white"/>
</svg>
