<svg width="227" height="77" viewBox="0 0 227 77" fill="none" xmlns="http://www.w3.org/2000/svg">
<rect y="13" width="14" height="45" fill="#3EFFB9"/>
<path d="M22.96 13.2H29.744L32.88 47.632H33.008L36.336 13.2H44.016L47.344 47.632H47.472L50.608 13.2H56.688L52.144 58H43.376L40.176 27.792H40.048L36.848 58H27.504L22.96 13.2ZM60.249 13.2H67.289V31.44H74.841V13.2H81.881V58H74.841V37.84H67.289V58H60.249V13.2ZM97.3 58.64C93.844 58.64 91.1987 57.6587 89.364 55.696C87.5293 53.7333 86.612 50.96 86.612 47.376V23.824C86.612 20.24 87.5293 17.4667 89.364 15.504C91.1987 13.5413 93.844 12.56 97.3 12.56C100.756 12.56 103.401 13.5413 105.236 15.504C107.071 17.4667 107.988 20.24 107.988 23.824V47.376C107.988 50.96 107.071 53.7333 105.236 55.696C103.401 57.6587 100.756 58.64 97.3 58.64ZM97.3 52.24C99.732 52.24 100.948 50.768 100.948 47.824V23.376C100.948 20.432 99.732 18.96 97.3 18.96C94.868 18.96 93.652 20.432 93.652 23.376V47.824C93.652 50.768 94.868 52.24 97.3 52.24ZM128.439 13.2H137.975L145.271 58H138.231L136.951 49.104V49.232H128.951L127.671 58H121.143L128.439 13.2ZM136.119 43.152L132.983 21.008H132.855L129.783 43.152H136.119ZM148.687 13.2H158.735L163.215 45.264H163.343L167.823 13.2H177.871V58H171.215V24.08H171.087L165.967 58H160.079L154.959 24.08H154.831V58H148.687V13.2ZM193.374 13.2H200.414V58H193.374V13.2ZM210.551 43.472C210.551 41.8933 210.785 40.4 211.255 38.992C211.767 37.5413 212.684 35.8773 214.007 34C215.543 31.824 216.588 29.9467 217.143 28.368C217.697 26.7893 217.975 25.1253 217.975 23.376C217.975 21.84 217.676 20.7307 217.079 20.048C216.481 19.3227 215.607 18.96 214.455 18.96C213.303 18.96 212.428 19.3227 211.831 20.048C211.233 20.7307 210.935 21.84 210.935 23.376V28.24H204.279V23.824C204.279 20.1973 205.153 17.424 206.903 15.504C208.652 13.5413 211.212 12.56 214.583 12.56C217.996 12.56 220.577 13.5413 222.327 15.504C224.119 17.424 225.015 20.1973 225.015 23.824C225.015 25.7867 224.652 27.6853 223.927 29.52C223.244 31.312 222.049 33.3387 220.343 35.6C218.977 37.4347 218.017 38.9707 217.463 40.208C216.951 41.4027 216.695 42.576 216.695 43.728V46.16H210.551V43.472ZM210.231 51.216H217.015V58H210.231V51.216Z" fill="white"/>
</svg>
