<svg width="50" height="50" viewBox="0 0 50 50" fill="none" xmlns="http://www.w3.org/2000/svg">
<path d="M25 1C11.748 1 1 11.746 1 25C1 35.604 7.876 44.6 17.414 47.774C18.612 47.996 19 47.252 19 46.62V42.152C12.324 43.604 10.934 39.32 10.934 39.32C9.842 36.546 8.268 35.808 8.268 35.808C6.09 34.318 8.434 34.35 8.434 34.35C10.844 34.518 12.112 36.824 12.112 36.824C14.252 40.492 17.726 39.432 19.096 38.818C19.31 37.268 19.932 36.208 20.62 35.61C15.29 35 9.686 32.942 9.686 23.748C9.686 21.126 10.624 18.986 12.158 17.306C11.91 16.7 11.088 14.258 12.392 10.954C12.392 10.954 14.408 10.31 18.994 13.414C20.908 12.882 22.96 12.616 25 12.606C27.04 12.616 29.094 12.882 31.012 13.414C35.594 10.31 37.606 10.954 37.606 10.954C38.912 14.26 38.09 16.702 37.842 17.306C39.382 18.986 40.312 21.128 40.312 23.748C40.312 32.966 34.698 34.996 29.354 35.59C30.214 36.334 31 37.794 31 40.034V46.62C31 47.258 31.384 48.008 32.602 47.772C42.132 44.594 49 35.6 49 25C49 11.746 38.254 1 25 1Z" fill="white"/>
</svg>
