<svg width="50" height="50" viewBox="0 0 50 50" fill="none" xmlns="http://www.w3.org/2000/svg">
<g clip-path="url(#clip0_12_5)">
<path d="M25 1.95996C18.7426 1.95996 17.958 1.98648 15.5006 2.09861C13.0482 2.21055 11.3734 2.59998 9.9078 3.16957C8.39272 3.75837 7.10784 4.54618 5.82698 5.82704C4.54612 7.1079 3.75831 8.39278 3.16951 9.90786C2.59992 11.3734 2.21049 13.0482 2.09855 15.5005C1.98642 17.958 1.95999 18.7426 1.95999 24.9999C1.95999 31.2571 1.98642 32.0418 2.09855 34.4992C2.21049 36.9515 2.59992 38.6264 3.16951 40.0919C3.75831 41.607 4.54612 42.8919 5.82698 44.1728C7.10784 45.4537 8.39272 46.2415 9.9078 46.8303C11.3734 47.3998 13.0482 47.7893 15.5006 47.9011C17.958 48.0133 18.7426 48.0398 25 48.0398C31.2572 48.0398 32.0418 48.0133 34.4992 47.9011C36.9516 47.7893 38.6264 47.3998 40.0919 46.8303C41.607 46.2415 42.8919 45.4537 44.1728 44.1728C45.4537 42.8919 46.2415 41.607 46.8303 40.0919C47.3998 38.6264 47.7893 36.9515 47.9012 34.4992C48.0133 32.0418 48.0398 31.2571 48.0398 24.9999C48.0398 18.7426 48.0133 17.958 47.9012 15.5005C47.7893 13.0482 47.3998 11.3734 46.8303 9.90786C46.2415 8.39278 45.4537 7.1079 44.1728 5.82704C42.8919 4.54618 41.607 3.75837 40.0919 3.16957C38.6264 2.59998 36.9516 2.21055 34.4992 2.09861C32.0418 1.98648 31.2572 1.95996 25 1.95996ZM25 6.11138C31.1518 6.11138 31.8805 6.13479 34.31 6.24564C36.5564 6.34816 37.7763 6.7235 38.5882 7.03894C39.6636 7.4569 40.4311 7.95625 41.2373 8.76245C42.0436 9.56864 42.5429 10.3362 42.9608 11.4116C43.2764 12.2235 43.6517 13.4434 43.7541 15.6898C43.865 18.1192 43.8885 18.848 43.8885 24.9999C43.8885 31.1518 43.865 31.8805 43.7541 34.31C43.6517 36.5564 43.2764 37.7763 42.9608 38.5882C42.5429 39.6636 42.0436 40.4311 41.2373 41.2373C40.4311 42.0436 39.6636 42.5429 38.5882 42.9608C37.7763 43.2763 36.5564 43.6517 34.31 43.7541C31.8809 43.865 31.1523 43.8885 25 43.8885C18.8475 43.8885 18.119 43.865 15.6898 43.7541C13.4434 43.6517 12.2235 43.2763 11.4116 42.9608C10.3362 42.5429 9.56867 42.0436 8.76239 41.2373C7.95619 40.4311 7.45684 39.6636 7.03897 38.5882C6.72344 37.7763 6.3481 36.5564 6.24558 34.31C6.13473 31.8805 6.11132 31.1518 6.11132 24.9999C6.11132 18.848 6.13473 18.1192 6.24558 15.6898C6.3481 13.4434 6.72344 12.2235 7.03897 11.4116C7.45684 10.3362 7.95619 9.56864 8.76239 8.76245C9.56867 7.95625 10.3362 7.4569 11.4116 7.03894C12.2235 6.7235 13.4434 6.34816 15.6898 6.24564C18.1193 6.13479 18.848 6.11138 25 6.11138Z" fill="white"/>
<path d="M25 32.6799C20.7584 32.6799 17.3199 29.2414 17.3199 24.9999C17.3199 20.7583 20.7584 17.3199 25 17.3199C29.2415 17.3199 32.6799 20.7583 32.6799 24.9999C32.6799 29.2414 29.2415 32.6799 25 32.6799ZM25 13.1686C18.4656 13.1686 13.1686 18.4656 13.1686 24.9999C13.1686 31.5342 18.4656 36.8312 25 36.8312C31.5342 36.8312 36.8312 31.5342 36.8312 24.9999C36.8312 18.4656 31.5342 13.1686 25 13.1686Z" fill="white"/>
<path d="M40.0635 12.7011C40.0635 14.2281 38.8256 15.4659 37.2987 15.4659C35.7718 15.4659 34.5339 14.2281 34.5339 12.7011C34.5339 11.1742 35.7718 9.9364 37.2987 9.9364C38.8256 9.9364 40.0635 11.1742 40.0635 12.7011Z" fill="white"/>
</g>
<defs>
<clipPath id="clip0_12_5">
<rect width="50" height="50" fill="white"/>
</clipPath>
</defs>
</svg>
