<svg width="50" height="50" viewBox="0 0 50 50" fill="none" xmlns="http://www.w3.org/2000/svg">
<path d="M44.597 2C46.4726 2 48 3.48501 48 5.31672V44.6808C48 46.5125 46.4726 48 44.597 48H5.39289C3.52107 48 2 46.5125 2 44.6808V5.31672C2 3.48501 3.52107 2 5.39289 2H44.597ZM41.1991 41.1968V29.1578C41.1991 23.2456 39.9226 18.7002 33.0144 18.7002C29.695 18.7002 27.4688 20.5202 26.5591 22.246H26.4657V19.245H19.9256V41.1968H26.7401V30.3394C26.7401 27.4757 27.2818 24.7011 30.8319 24.7011C34.3333 24.7011 34.3771 27.9761 34.3771 30.5217V41.1968H41.1991ZM15.6454 19.245H8.81579V41.1968H15.6454V19.245ZM12.2324 8.33272C10.0412 8.33272 8.27424 10.1053 8.27424 12.2891C8.27424 14.4733 10.0412 16.2458 12.2324 16.2458C14.415 16.2458 16.187 14.4733 16.187 12.2891C16.187 10.1053 14.415 8.33272 12.2324 8.33272Z" fill="white"/>
</svg>
