<svg width="50" height="50" viewBox="0 0 50 50" fill="none" xmlns="http://www.w3.org/2000/svg">
<g clip-path="url(#clip0_12_2)">
<path d="M15.724 45.3138C34.592 45.3138 44.912 29.6819 44.912 16.1258C44.912 15.6819 44.912 15.2399 44.882 14.7999C46.8896 13.3476 48.6228 11.5497 50 9.48989C48.1278 10.3195 46.1416 10.8634 44.108 11.1039C46.249 9.82222 47.8524 7.80483 48.618 5.42983C46.6044 6.62466 44.4012 7.46685 42.104 7.91987C40.1644 5.85728 37.4554 4.68628 34.6242 4.68628C28.9912 4.68628 24.3562 9.32144 24.3562 14.9542C24.3562 15.7357 24.4454 16.5147 24.622 17.2758C16.378 16.8626 8.68643 12.9632 3.47998 6.55786C0.772558 11.2186 2.17344 17.2586 6.65596 20.2518C5.02363 20.2035 3.42637 19.763 2 18.9678V19.0978C2.00137 23.9625 5.46162 28.1907 10.23 29.1539C8.71982 29.5657 7.13496 29.6258 5.59805 29.3298C6.93857 33.4983 10.8042 36.3716 15.182 36.4539C11.5502 39.3081 7.06123 40.8584 2.44199 40.8539C1.62578 40.8523 0.810352 40.8029 0 40.7058C4.69082 43.7161 10.1504 45.3132 15.724 45.3058" fill="white"/>
</g>
<defs>
<clipPath id="clip0_12_2">
<rect width="50" height="50" fill="white"/>
</clipPath>
</defs>
</svg>
