<svg width="50" height="50" viewBox="0 0 50 50" fill="none" xmlns="http://www.w3.org/2000/svg">
<g clip-path="url(#clip0_12_3)">
<path d="M48.9554 12.9653C48.3805 10.814 46.6863 9.11992 44.535 8.54492C40.6354 7.5 25 7.5 25 7.5C25 7.5 9.36455 7.5 5.46494 8.54492C3.31396 9.11992 1.61953 10.814 1.04463 12.9653C0 16.8646 0 25.0003 0 25.0003C0 25.0003 0 33.1358 1.04463 37.0347C1.61953 39.186 3.31396 40.8806 5.46494 41.4555C9.36455 42.5 25 42.5 25 42.5C25 42.5 40.6354 42.5 44.535 41.4555C46.6863 40.8806 48.3805 39.186 48.9554 37.0347C49.9999 33.1358 49.9999 25.0003 49.9999 25.0003C49.9999 25.0003 49.9999 16.8646 48.9554 12.9653ZM19.9997 32.5004V17.5001L32.9898 25.0003L19.9997 32.5004Z" fill="white"/>
</g>
<defs>
<clipPath id="clip0_12_3">
<rect width="50" height="50" fill="white"/>
</clipPath>
</defs>
</svg>
