<svg width="300" height="300" viewBox="0 0 300 300" fill="none" xmlns="http://www.w3.org/2000/svg">
<g clip-path="url(#clip0_27_78)">
<rect width="300" height="300" fill="black"/>
<g filter="url(#filter0_d_27_78)">
<path d="M37.2 250V217H70.8V141.7H38.7V108.7H113.4V217H144V250H37.2ZM90 89.5C83 89.5 77 87.2 72 82.6C67.2 77.8 64.8 72.2 64.8 65.8C64.8 58.8 67.1 53.1 71.7 48.7C76.5 44.3 82.6 42.1 90 42.1C96.6 42.1 102.4 44.5 107.4 49.3C112.6 53.9 115.2 59.4 115.2 65.8C115.2 72.2 112.6 77.8 107.4 82.6C102.4 87.2 96.6 89.5 90 89.5ZM150.6 250V217H189V80.5H152.4V47.5H231.6V217H269.7V250H150.6Z" fill="white"/>
<path d="M37.2 250H36.2V251H37.2V250ZM37.2 217V216H36.2V217H37.2ZM70.8 217V218H71.8V217H70.8ZM70.8 141.7H71.8V140.7H70.8V141.7ZM38.7 141.7H37.7V142.7H38.7V141.7ZM38.7 108.7V107.7H37.7V108.7H38.7ZM113.4 108.7H114.4V107.7H113.4V108.7ZM113.4 217H112.4V218H113.4V217ZM144 217H145V216H144V217ZM144 250V251H145V250H144ZM72 82.6L71.2929 83.3071L71.3076 83.3218L71.3229 83.3359L72 82.6ZM71.7 48.7L71.0243 47.9628L71.0165 47.97L71.0088 47.9774L71.7 48.7ZM107.4 49.3L106.707 50.0214L106.722 50.0355L106.737 50.049L107.4 49.3ZM107.4 82.6L108.077 83.3359L108.078 83.3348L107.4 82.6ZM38.2 250V217H36.2V250H38.2ZM37.2 218H70.8V216H37.2V218ZM71.8 217V141.7H69.8V217H71.8ZM70.8 140.7H38.7V142.7H70.8V140.7ZM39.7 141.7V108.7H37.7V141.7H39.7ZM38.7 109.7H113.4V107.7H38.7V109.7ZM112.4 108.7V217H114.4V108.7H112.4ZM113.4 218H144V216H113.4V218ZM143 217V250H145V217H143ZM144 249H37.2V251H144V249ZM90 88.5C83.2424 88.5 77.4864 86.2886 72.6771 81.8641L71.3229 83.3359C76.5136 88.1113 82.7576 90.5 90 90.5V88.5ZM72.7071 81.8929C68.082 77.2678 65.8 71.9174 65.8 65.8H63.8C63.8 72.4825 66.318 78.3322 71.2929 83.3071L72.7071 81.8929ZM65.8 65.8C65.8 59.0428 68.0092 53.6141 72.3912 49.4226L71.0088 47.9774C66.1908 52.5858 63.8 58.5572 63.8 65.8H65.8ZM72.3757 49.4372C76.9659 45.2295 82.8135 43.1 90 43.1V41.1C82.3865 41.1 76.0341 43.3705 71.0243 47.9628L72.3757 49.4372ZM90 43.1C96.3279 43.1 101.883 45.3902 106.707 50.0214L108.093 48.5786C102.917 43.6097 96.8721 41.1 90 41.1V43.1ZM106.737 50.049C111.743 54.4773 114.2 59.7127 114.2 65.8H116.2C116.2 59.0873 113.457 53.3227 108.063 48.551L106.737 50.049ZM114.2 65.8C114.2 71.8897 111.741 77.2323 106.722 81.8652L108.078 83.3348C113.459 78.3677 116.2 72.5103 116.2 65.8H114.2ZM106.723 81.8641C101.902 86.2998 96.3412 88.5 90 88.5V90.5C96.8589 90.5 102.898 88.1002 108.077 83.3359L106.723 81.8641ZM150.6 250H149.6V251H150.6V250ZM150.6 217V216H149.6V217H150.6ZM189 217V218H190V217H189ZM189 80.5H190V79.5H189V80.5ZM152.4 80.5H151.4V81.5H152.4V80.5ZM152.4 47.5V46.5H151.4V47.5H152.4ZM231.6 47.5H232.6V46.5H231.6V47.5ZM231.6 217H230.6V218H231.6V217ZM269.7 217H270.7V216H269.7V217ZM269.7 250V251H270.7V250H269.7ZM151.6 250V217H149.6V250H151.6ZM150.6 218H189V216H150.6V218ZM190 217V80.5H188V217H190ZM189 79.5H152.4V81.5H189V79.5ZM153.4 80.5V47.5H151.4V80.5H153.4ZM152.4 48.5H231.6V46.5H152.4V48.5ZM230.6 47.5V217H232.6V47.5H230.6ZM231.6 218H269.7V216H231.6V218ZM268.7 217V250H270.7V217H268.7ZM269.7 249H150.6V251H269.7V249Z" fill="black"/>
</g>
<g filter="url(#filter1_d_27_78)">
<path d="M28.5647 222.254C18.4818 232.672 16.7029 234.832 12.1748 243.287C10.0503 248.954 6.95357 256.712 7.00053 262.654C7.03305 266.77 7.00053 275.536 14.3778 277.902C17.7422 278.374 20.3154 277.07 22.9102 275.536C30.7936 270.873 36.7681 264.119 42.2247 257.827C52.8234 245.607 61.3907 232.282 69.5651 219.026C78.9038 203.881 87.4979 188.28 91.6765 171.73C92.1716 169.769 97.7493 150.456 90.582 150.01C86.2418 149.74 82.3994 154.982 80.5701 157.187C72.9334 166.396 68.0953 177.099 63.5052 187.37C57.9631 199.771 52.7627 212.912 52.3583 226.14C52.1199 233.939 53.4482 244.877 62.7756 249.71C70.5309 253.728 78.7095 250.61 84.8465 246.356C95.2 239.18 103.576 229.805 109.593 220.154C110.925 218.017 119.906 205.05 110.869 205.69C102.082 206.311 92.7848 212.836 86.6502 217.176C78.3507 223.048 71.4233 229.994 65.9373 237.58C62.5411 242.277 49.8763 258.12 63.5052 260.319C78.2149 262.692 93.6596 250.157 103.269 243.379C108.729 239.528 117.487 234.321 120.213 228.648C121.928 225.077 113.918 230.357 113.808 230.434C106.888 235.306 100.615 240.876 94.9192 246.607C93.6004 247.934 86.4895 254.044 89.1634 256.386C90.8917 257.899 99.7001 254.191 101.425 253.737C107.818 252.054 114.382 250.792 120.74 249.02C124.011 248.108 125.546 247.031 121.287 248.769C113.134 252.098 105.755 256.566 97.9998 260.397C93.7446 262.5 89.6069 264.456 85.2721 266.446C83.3016 267.351 77.1029 269.205 79.3946 269.205C85.7034 269.205 93.4873 265.733 98.8105 263.594C111.307 258.575 123.067 252.363 133.548 245.087C139.646 240.854 147.426 235.364 150.167 229.149C152.535 223.783 146.995 220.026 140.176 221.784C132.062 223.875 128.66 230.608 126.475 236.389C125.008 240.273 120.767 253.012 128.887 255.132C131.853 255.906 136.045 253.707 137.926 252.656C145.432 248.461 152.916 242.774 157.97 236.765C161.338 232.762 164 228.545 164.294 223.68C164.787 215.506 157.033 219.93 153.653 223.476C147.176 230.273 140.874 241.457 142.425 250.196C143.092 253.952 146.162 254.054 149.803 252.217C156.978 248.597 163.065 243.16 168.367 238.035C169.74 236.708 178.129 229.587 176.92 227.457C176.72 227.105 170.154 233.459 170.11 233.506C164.929 239.024 159.653 244.805 155.741 250.932C154.125 253.462 152.821 256.443 157.261 253.408C163.349 249.246 168.85 244.592 174.832 240.338C177.064 238.752 179.284 237.156 181.541 235.59C183.011 234.57 186.774 231.791 186.689 233.318C186.627 234.425 184.042 237.872 183.77 238.238C180.352 242.856 176.503 247.284 172.826 251.778C172.781 251.833 164.779 261.018 166.867 261.463C168.583 261.829 174.602 258.199 175.866 257.639C185.522 253.36 195.331 247.926 206.388 245.98C208.43 245.621 207.247 246.698 208.111 246.92C208.306 246.97 214.878 240.215 214.982 240.119C224.425 231.352 233.875 222.601 243.659 214.058C256.022 203.265 269.86 192.882 280.363 180.913C282.651 178.307 289.467 169.955 280.201 170.821C265.937 172.155 251.314 178.958 239.383 184.675C220.64 193.655 202.34 204.514 187.439 217.129C180.768 222.777 167.015 234.77 172.38 243.535C177.664 252.168 195.926 249.989 205.111 248.832C227.338 246.032 248.666 239.555 269.5 233.161C273.13 232.047 280.348 229.757 284.254 228.397C285.694 227.896 291.15 226.456 291.956 224.934C292.359 224.172 289.891 224.318 288.835 224.417C282.34 225.021 275.83 226.629 269.622 228.146C252.808 232.256 237.251 238.576 221.609 244.773C220.669 245.146 207.588 251.181 205.861 250.18" stroke="#9D21FF" stroke-width="9" stroke-linecap="round" shape-rendering="crispEdges"/>
</g>
<rect x="54" y="32" width="73" height="67" fill="black"/>
<path d="M70 47H113V82H70V47Z" fill="#D2CBFF"/>
</g>
<defs>
<filter id="filter0_d_27_78" x="33.2" y="42.1" width="240.5" height="215.9" filterUnits="userSpaceOnUse" color-interpolation-filters="sRGB">
<feFlood flood-opacity="0" result="BackgroundImageFix"/>
<feColorMatrix in="SourceAlpha" type="matrix" values="0 0 0 0 0 0 0 0 0 0 0 0 0 0 0 0 0 0 127 0" result="hardAlpha"/>
<feOffset dy="4"/>
<feGaussianBlur stdDeviation="2"/>
<feComposite in2="hardAlpha" operator="out"/>
<feColorMatrix type="matrix" values="0 0 0 0 0 0 0 0 0 0 0 0 0 0 0 0 0 0 0.25 0"/>
<feBlend mode="normal" in2="BackgroundImageFix" result="effect1_dropShadow_27_78"/>
<feBlend mode="normal" in="SourceGraphic" in2="effect1_dropShadow_27_78" result="shape"/>
</filter>
<filter id="filter1_d_27_78" x="-5.5" y="137.5" width="310.002" height="153" filterUnits="userSpaceOnUse" color-interpolation-filters="sRGB">
<feFlood flood-opacity="0" result="BackgroundImageFix"/>
<feColorMatrix in="SourceAlpha" type="matrix" values="0 0 0 0 0 0 0 0 0 0 0 0 0 0 0 0 0 0 127 0" result="hardAlpha"/>
<feOffset/>
<feGaussianBlur stdDeviation="4"/>
<feComposite in2="hardAlpha" operator="out"/>
<feColorMatrix type="matrix" values="0 0 0 0 0.56 0 0 0 0 0 0 0 0 0 1 0 0 0 0.25 0"/>
<feBlend mode="normal" in2="BackgroundImageFix" result="effect1_dropShadow_27_78"/>
<feBlend mode="normal" in="SourceGraphic" in2="effect1_dropShadow_27_78" result="shape"/>
</filter>
<clipPath id="clip0_27_78">
<rect width="300" height="300" fill="white"/>
</clipPath>
</defs>
</svg>
