<svg width="210" height="77" viewBox="0 0 210 77" fill="none" xmlns="http://www.w3.org/2000/svg">
<rect y="13" width="14" height="45" fill="#C13EFF"/>
<path d="M24.624 13.2H34.992C38.4907 13.2 41.1147 14.1387 42.864 16.016C44.6133 17.8933 45.488 20.6453 45.488 24.272V28.688C45.488 32.3147 44.6133 35.0667 42.864 36.944C41.1147 38.8213 38.4907 39.76 34.992 39.76H31.664V58H24.624V13.2ZM34.992 33.36C36.144 33.36 36.9973 33.04 37.552 32.4C38.1493 31.76 38.448 30.672 38.448 29.136V23.824C38.448 22.288 38.1493 21.2 37.552 20.56C36.9973 19.92 36.144 19.6 34.992 19.6H31.664V33.36H34.992ZM49.3115 13.2H59.7435C63.3702 13.2 66.0155 14.0533 67.6795 15.76C69.3435 17.424 70.1755 20.0053 70.1755 23.504V26.256C70.1755 30.9067 68.6395 33.8507 65.5675 35.088V35.216C67.2742 35.728 68.4688 36.7733 69.1515 38.352C69.8768 39.9307 70.2395 42.0427 70.2395 44.688V52.56C70.2395 53.84 70.2822 54.8853 70.3675 55.696C70.4528 56.464 70.6662 57.232 71.0075 58H63.8395C63.5835 57.2747 63.4128 56.592 63.3275 55.952C63.2422 55.312 63.1995 54.16 63.1995 52.496V44.304C63.1995 42.256 62.8582 40.8267 62.1755 40.016C61.5355 39.2053 60.4048 38.8 58.7835 38.8H56.3515V58H49.3115V13.2ZM58.9115 32.4C60.3195 32.4 61.3648 32.0373 62.0475 31.312C62.7728 30.5867 63.1355 29.3707 63.1355 27.664V24.208C63.1355 22.5867 62.8368 21.4133 62.2395 20.688C61.6848 19.9627 60.7888 19.6 59.5515 19.6H56.3515V32.4H58.9115ZM85.3 58.64C81.844 58.64 79.1987 57.6587 77.364 55.696C75.5293 53.7333 74.612 50.96 74.612 47.376V23.824C74.612 20.24 75.5293 17.4667 77.364 15.504C79.1987 13.5413 81.844 12.56 85.3 12.56C88.756 12.56 91.4013 13.5413 93.236 15.504C95.0707 17.4667 95.988 20.24 95.988 23.824V47.376C95.988 50.96 95.0707 53.7333 93.236 55.696C91.4013 57.6587 88.756 58.64 85.3 58.64ZM85.3 52.24C87.732 52.24 88.948 50.768 88.948 47.824V23.376C88.948 20.432 87.732 18.96 85.3 18.96C82.868 18.96 81.652 20.432 81.652 23.376V47.824C81.652 50.768 82.868 52.24 85.3 52.24ZM102.163 58.256C100.883 58.256 99.795 58.1707 98.899 58V51.6C99.5817 51.7707 100.35 51.856 101.203 51.856C102.611 51.856 103.656 51.5147 104.339 50.832C105.022 50.1067 105.363 49.0187 105.363 47.568V13.2H112.403V47.376C112.403 51.0453 111.55 53.776 109.843 55.568C108.179 57.36 105.619 58.256 102.163 58.256ZM117.437 13.2H136.637V19.6H124.477V31.44H134.141V37.84H124.477V51.6H136.637V58H117.437V13.2ZM150.607 58.64C147.236 58.64 144.655 57.68 142.863 55.76C141.113 53.84 140.239 51.1307 140.239 47.632V23.568C140.239 20.0693 141.113 17.36 142.863 15.44C144.655 13.52 147.236 12.56 150.607 12.56C153.977 12.56 156.537 13.52 158.287 15.44C160.079 17.36 160.975 20.0693 160.975 23.568V28.304H154.319V23.12C154.319 20.3467 153.145 18.96 150.799 18.96C148.452 18.96 147.279 20.3467 147.279 23.12V48.144C147.279 50.8747 148.452 52.24 150.799 52.24C153.145 52.24 154.319 50.8747 154.319 48.144V41.296H160.975V47.632C160.975 51.1307 160.079 53.84 158.287 55.76C156.537 57.68 153.977 58.64 150.607 58.64ZM170.691 19.6H163.331V13.2H185.091V19.6H177.731V58H170.691V19.6ZM197.651 58.64C194.238 58.64 191.656 57.68 189.907 55.76C188.158 53.7973 187.283 51.0027 187.283 47.376V44.816H193.939V47.888C193.939 50.7893 195.155 52.24 197.587 52.24C198.782 52.24 199.678 51.8987 200.275 51.216C200.915 50.4907 201.235 49.3387 201.235 47.76C201.235 45.8827 200.808 44.24 199.955 42.832C199.102 41.3813 197.523 39.6533 195.219 37.648C192.318 35.088 190.291 32.784 189.139 30.736C187.987 28.6453 187.411 26.2987 187.411 23.696C187.411 20.1547 188.307 17.424 190.099 15.504C191.891 13.5413 194.494 12.56 197.907 12.56C201.278 12.56 203.816 13.5413 205.523 15.504C207.272 17.424 208.147 20.1973 208.147 23.824V25.68H201.491V23.376C201.491 21.84 201.192 20.7307 200.595 20.048C199.998 19.3227 199.123 18.96 197.971 18.96C195.624 18.96 194.451 20.3893 194.451 23.248C194.451 24.8693 194.878 26.384 195.731 27.792C196.627 29.2 198.227 30.9067 200.531 32.912C203.475 35.472 205.502 37.7973 206.611 39.888C207.72 41.9787 208.275 44.432 208.275 47.248C208.275 50.9173 207.358 53.7333 205.523 55.696C203.731 57.6587 201.107 58.64 197.651 58.64Z" fill="white"/>
</svg>
