<svg width="400" height="600" viewBox="0 0 400 600" fill="none" xmlns="http://www.w3.org/2000/svg">
<g clip-path="url(#clip0_48_2)">
<rect width="400" height="600" fill="#FF5F5F"/>
<rect y="452" width="479" height="162" fill="black" fill-opacity="0.3"/>
<path d="M115.278 551.74C112.269 551.74 109.555 551.247 107.138 550.26C104.77 549.273 102.673 547.818 100.848 545.894L103.512 541.232L103.808 540.566L104.326 540.862C104.425 541.207 104.548 541.602 104.696 542.046C104.844 542.441 105.189 542.934 105.732 543.526C107.015 544.611 108.495 545.475 110.172 546.116C111.899 546.757 113.847 547.078 116.018 547.078C117.399 547.078 118.657 546.881 119.792 546.486C120.976 546.042 121.987 545.475 122.826 544.784C123.714 544.044 124.38 543.205 124.824 542.268C125.317 541.281 125.564 540.245 125.564 539.16C125.564 538.321 125.465 537.557 125.268 536.866C125.12 536.175 124.799 535.559 124.306 535.016C123.862 534.424 123.245 533.857 122.456 533.314C121.667 532.722 120.655 532.105 119.422 531.464C118.189 530.823 116.709 530.132 114.982 529.392C111.775 528.159 109.235 526.827 107.36 525.396C105.535 523.916 104.227 522.362 103.438 520.734C102.698 519.106 102.328 517.429 102.328 515.702C102.328 513.433 102.895 511.459 104.03 509.782C105.165 508.055 106.768 506.723 108.84 505.786C110.961 504.799 113.477 504.306 116.388 504.306C118.065 504.306 119.669 504.553 121.198 505.046C122.777 505.49 124.232 506.131 125.564 506.97C126.945 507.809 128.154 508.845 129.19 510.078L126.304 513.926L125.86 514.518L125.416 514.222C125.367 513.827 125.268 513.433 125.12 513.038C124.972 512.643 124.627 512.15 124.084 511.558C122.9 510.423 121.642 509.659 120.31 509.264C118.978 508.82 117.399 508.598 115.574 508.598C114.341 508.598 113.231 508.771 112.244 509.116C111.307 509.461 110.493 509.955 109.802 510.596C109.111 511.237 108.569 511.977 108.174 512.816C107.829 513.605 107.656 514.444 107.656 515.332C107.656 516.171 107.755 516.935 107.952 517.626C108.149 518.317 108.495 518.983 108.988 519.624C109.481 520.265 110.147 520.907 110.986 521.548C111.874 522.189 112.959 522.831 114.242 523.472C115.574 524.113 117.177 524.804 119.052 525.544C121.321 526.481 123.196 527.419 124.676 528.356C126.205 529.244 127.389 530.206 128.228 531.242C129.116 532.229 129.733 533.314 130.078 534.498C130.473 535.682 130.67 536.989 130.67 538.42C130.67 540.541 130.127 542.638 129.042 544.71C128.006 546.733 126.353 548.41 124.084 549.742C121.815 551.074 118.879 551.74 115.278 551.74ZM156.126 551.518C153.955 551.518 152.179 551.148 150.798 550.408C149.417 549.668 148.356 548.533 147.616 547.004C146.876 545.425 146.383 543.452 146.136 541.084C145.939 538.716 145.889 535.904 145.988 532.648L146.876 508.524L152.426 507.858L153.166 507.784L153.24 508.302C152.993 508.647 152.771 508.993 152.574 509.338C152.426 509.683 152.303 510.275 152.204 511.114L151.538 519.476L151.76 520.808L151.242 533.018C151.094 536.767 151.193 539.678 151.538 541.75C151.883 543.773 152.5 545.179 153.388 545.968C154.276 546.708 155.46 547.078 156.94 547.078C158.568 547.078 159.999 546.757 161.232 546.116C162.515 545.475 163.847 544.661 165.228 543.674L166.856 547.892C165.179 549.125 163.452 550.038 161.676 550.63C159.9 551.222 158.05 551.518 156.126 551.518ZM139.18 517.182H163.526V521.548H139.18V517.182ZM186.614 551.814C182.766 551.814 179.806 550.951 177.734 549.224C175.662 547.448 174.626 545.203 174.626 542.49C174.626 540.665 175.07 539.037 175.958 537.606C176.846 536.126 178.055 534.893 179.584 533.906C181.163 532.87 182.988 532.081 185.06 531.538C187.132 530.995 189.327 530.724 191.646 530.724C192.485 530.724 193.323 530.749 194.162 530.798C195.05 530.798 195.963 530.847 196.9 530.946C197.887 530.995 198.898 531.094 199.934 531.242L200.082 535.312C199.194 535.164 198.281 535.065 197.344 535.016C196.456 534.917 195.568 534.843 194.68 534.794C193.792 534.745 192.929 534.72 192.09 534.72C190.314 534.72 188.686 534.868 187.206 535.164C185.726 535.46 184.443 535.904 183.358 536.496C182.273 537.088 181.434 537.853 180.842 538.79C180.25 539.727 179.954 540.862 179.954 542.194C179.954 543.23 180.127 544.118 180.472 544.858C180.867 545.549 181.385 546.116 182.026 546.56C182.667 546.955 183.407 547.251 184.246 547.448C185.134 547.645 186.096 547.744 187.132 547.744C189.056 547.744 190.758 547.448 192.238 546.856C193.767 546.215 195.05 545.302 196.086 544.118C197.171 542.934 197.985 541.479 198.528 539.752C199.071 538.025 199.342 536.052 199.342 533.832C199.342 530.477 198.947 527.863 198.158 525.988C197.369 524.113 196.185 522.781 194.606 521.992C193.077 521.203 191.103 520.808 188.686 520.808C187.058 520.808 185.455 521.129 183.876 521.77C182.297 522.362 180.867 523.299 179.584 524.582L176.994 521.178C178.573 519.599 180.398 518.415 182.47 517.626C184.542 516.837 186.737 516.442 189.056 516.442C191.276 516.442 193.299 516.713 195.124 517.256C196.949 517.799 198.503 518.711 199.786 519.994C201.118 521.227 202.129 522.905 202.82 525.026C203.56 527.147 203.93 529.811 203.93 533.018V551H198.158V545.82C197.517 547.053 196.727 548.065 195.79 548.854C194.902 549.643 193.94 550.26 192.904 550.704C191.868 551.099 190.807 551.37 189.722 551.518C188.637 551.715 187.601 551.814 186.614 551.814ZM230.126 551.518C227.955 551.518 226.179 551.148 224.798 550.408C223.417 549.668 222.356 548.533 221.616 547.004C220.876 545.425 220.383 543.452 220.136 541.084C219.939 538.716 219.889 535.904 219.988 532.648L220.876 508.524L226.426 507.858L227.166 507.784L227.24 508.302C226.993 508.647 226.771 508.993 226.574 509.338C226.426 509.683 226.303 510.275 226.204 511.114L225.538 519.476L225.76 520.808L225.242 533.018C225.094 536.767 225.193 539.678 225.538 541.75C225.883 543.773 226.5 545.179 227.388 545.968C228.276 546.708 229.46 547.078 230.94 547.078C232.568 547.078 233.999 546.757 235.232 546.116C236.515 545.475 237.847 544.661 239.228 543.674L240.856 547.892C239.179 549.125 237.452 550.038 235.676 550.63C233.9 551.222 232.05 551.518 230.126 551.518ZM213.18 517.182H237.526V521.548H213.18V517.182ZM263.574 551.74C261.699 551.74 259.899 551.543 258.172 551.148C256.495 550.753 254.891 550.161 253.362 549.372C251.882 548.583 250.501 547.596 249.218 546.412L252.178 541.38L252.622 540.714L253.066 541.01C253.165 541.405 253.263 541.824 253.362 542.268C253.51 542.663 253.855 543.156 254.398 543.748C255.434 544.784 256.667 545.647 258.098 546.338C259.578 546.979 261.453 547.3 263.722 547.3C265.547 547.3 267.077 547.078 268.31 546.634C269.593 546.19 270.579 545.573 271.27 544.784C271.961 543.945 272.306 542.983 272.306 541.898C272.306 541.158 272.158 540.517 271.862 539.974C271.566 539.382 271.073 538.839 270.382 538.346C269.741 537.853 268.877 537.359 267.792 536.866C266.707 536.373 265.375 535.879 263.796 535.386C261.231 534.646 258.986 533.783 257.062 532.796C255.138 531.809 253.658 530.675 252.622 529.392C251.586 528.06 251.068 526.555 251.068 524.878C251.068 523.151 251.537 521.671 252.474 520.438C253.411 519.155 254.793 518.169 256.618 517.478C258.493 516.738 260.787 516.368 263.5 516.368C265.079 516.368 266.509 516.491 267.792 516.738C269.075 516.935 270.259 517.256 271.344 517.7C272.429 518.144 273.416 518.711 274.304 519.402C275.241 520.043 276.129 520.808 276.968 521.696L273.934 525.396L273.416 525.988L273.046 525.618C272.997 525.223 272.873 524.853 272.676 524.508C272.528 524.113 272.183 523.645 271.64 523.102C270.505 522.214 269.223 521.548 267.792 521.104C266.361 520.611 264.98 520.364 263.648 520.364C261.675 520.364 259.973 520.709 258.542 521.4C257.111 522.091 256.396 523.151 256.396 524.582C256.396 525.322 256.643 526.062 257.136 526.802C257.679 527.493 258.641 528.208 260.022 528.948C261.403 529.639 263.377 530.354 265.942 531.094C268.754 531.982 270.999 532.895 272.676 533.832C274.403 534.72 275.636 535.756 276.376 536.94C277.165 538.124 277.56 539.53 277.56 541.158C277.56 543.033 277.042 544.784 276.006 546.412C275.019 548.04 273.49 549.347 271.418 550.334C269.346 551.271 266.731 551.74 263.574 551.74Z" fill="white"/>
<path d="M200 46L368.009 143V337L200 434L31.9911 337V143L200 46Z" fill="#FF8F8F"/>
<rect x="193" y="33" width="13" height="413" fill="#FF5F5F"/>
<rect x="375.443" y="131.201" width="13" height="413" transform="rotate(60.1891 375.443 131.201)" fill="#FF5F5F"/>
<rect x="381.654" y="336.992" width="13" height="413" transform="rotate(119.959 381.654 336.992)" fill="#FF5F5F"/>
<path d="M206 132.5L309 174.5L284.5 288L198 428.5L105.5 295L53.5 154.5L206 132.5Z" fill="#FF1F00" fill-opacity="0.5"/>
<path d="M122.35 417.45L242.05 61.9499H275.35L155.65 417.45H122.35ZM141.25 126.75C151.45 142.95 156.55 164.1 156.55 190.2C156.55 216.3 151.45 237.6 141.25 254.1C131.05 270.3 115.45 278.4 94.45 278.4C73.75 278.4 58.15 270.15 47.65 253.65C37.45 237.15 32.35 216 32.35 190.2C32.35 164.4 37.45 143.25 47.65 126.75C58.15 110.25 73.75 102 94.45 102C115.45 102 131.05 110.25 141.25 126.75ZM117.4 232.95C122.5 221.85 125.05 207.6 125.05 190.2C125.05 172.8 122.5 158.7 117.4 147.9C112.3 136.8 104.65 131.25 94.45 131.25C84.25 131.25 76.6 136.8 71.5 147.9C66.4 158.7 63.85 172.8 63.85 190.2C63.85 207.6 66.4 221.85 71.5 232.95C76.6 243.75 84.25 249.15 94.45 249.15C104.65 249.15 112.3 243.75 117.4 232.95ZM256.45 353.1C246.25 336.6 241.15 315.3 241.15 289.2C241.15 263.1 246.25 241.95 256.45 225.75C266.65 209.25 282.1 201 302.8 201C323.8 201 339.4 209.25 349.6 225.75C360.1 242.25 365.35 263.4 365.35 289.2C365.35 315 360.1 336.15 349.6 352.65C339.4 369.15 323.8 377.4 302.8 377.4C282.1 377.4 266.65 369.3 256.45 353.1ZM280.3 246.9C275.2 257.7 272.65 271.8 272.65 289.2C272.65 306.6 275.2 320.85 280.3 331.95C285.4 342.75 293.05 348.15 303.25 348.15C313.45 348.15 321.1 342.75 326.2 331.95C331.3 320.85 333.85 306.6 333.85 289.2C333.85 271.8 331.3 257.7 326.2 246.9C321.1 235.8 313.45 230.25 303.25 230.25C293.05 230.25 285.4 235.8 280.3 246.9Z" fill="black"/>
</g>
<defs>
<clipPath id="clip0_48_2">
<rect width="400" height="600" fill="white"/>
</clipPath>
</defs>
</svg>
