<svg width="1105" height="181" viewBox="0 0 1105 181" fill="none" xmlns="http://www.w3.org/2000/svg">
<g filter="url(#filter0_d_125_7)">
<path d="M9.8 148V126H32.2V75.8H10.8V53.8H60.6V126H81V148H9.8ZM45 41C40.3333 41 36.3333 39.4667 33 36.4C29.8 33.2 28.2 29.4667 28.2 25.2C28.2 20.5333 29.7333 16.7333 32.8 13.8C36 10.8667 40.0667 9.4 45 9.4C49.4 9.4 53.2667 11 56.6 14.2C60.0667 17.2667 61.8 20.9333 61.8 25.2C61.8 29.4667 60.0667 33.2 56.6 36.4C53.2667 39.4667 49.4 41 45 41ZM174 150.4C167.867 150.4 162 149.867 156.4 148.8C150.933 147.867 145.867 146.333 141.2 144.2C136.533 141.933 132.267 139 128.4 135.4L139.6 113.8L140.4 112.2L142.2 113.2C142.6 114.133 143 115.2 143.4 116.4C143.933 117.467 145 118.733 146.6 120.2C150.333 123 154.4 125.133 158.8 126.6C163.333 128.067 168.467 128.8 174.2 128.8C177.133 128.8 179.6 128.467 181.6 127.8C183.733 127.133 185.333 126.267 186.4 125.2C187.6 124 188.2 122.733 188.2 121.4C188.2 120.067 187.733 118.933 186.8 118C186 117.067 184.733 116.267 183 115.6C181.4 114.8 179.267 114 176.6 113.2C173.933 112.4 170.8 111.533 167.2 110.6C160.533 108.867 154.733 106.733 149.8 104.2C145 101.667 141.267 98.5333 138.6 94.8C135.933 90.9333 134.6 86.3333 134.6 81C134.6 75.5333 136.267 70.6 139.6 66.2C142.933 61.8 147.467 58.2667 153.2 55.6C159.067 52.9333 165.733 51.6 173.2 51.6C176.8 51.6 180.333 51.9333 183.8 52.6C187.4 53.1333 190.8 54 194 55.2C197.2 56.2667 200.267 57.7333 203.2 59.6C206.133 61.3333 208.867 63.4 211.4 65.8L198.4 84.8L197.2 86.4L195.4 85C195.267 83.9333 194.933 82.9333 194.4 82C194 81.0667 193 79.8667 191.4 78.4C188.867 76.6667 186.067 75.4667 183 74.8C180.067 74 176.933 73.6 173.6 73.6C169.733 73.6 166.333 74.2 163.4 75.4C160.467 76.6 159 78.4 159 80.8C159 82.4 159.8 83.7333 161.4 84.8C163 85.8667 165.333 86.8667 168.4 87.8C171.6 88.6 175.533 89.5333 180.2 90.6C187.667 92.2 193.8 94.4 198.6 97.2C203.4 99.8667 206.933 103.133 209.2 107C211.6 110.867 212.8 115.333 212.8 120.4C212.8 125.733 211.267 130.733 208.2 135.4C205.133 139.933 200.667 143.6 194.8 146.4C189.067 149.067 182.133 150.4 174 150.4ZM284.8 150.4C274.667 150.4 266.733 148 261 143.2C255.267 138.267 252.4 131.8 252.4 123.8C252.4 118.733 253.467 114.067 255.6 109.8C257.733 105.4 261.067 101.6 265.6 98.4C270.133 95.0667 275.933 92.4667 283 90.6C290.067 88.7333 298.533 87.8 308.4 87.8C308.8 87.8 309.533 87.8 310.6 87.8C311.667 87.8 312.867 87.8 314.2 87.8C315.533 87.8 316.667 87.8 317.6 87.8L318.4 106.6C317.6 106.6 316.467 106.6 315 106.6C313.533 106.6 312 106.667 310.4 106.8C308.933 106.8 307.8 106.8 307 106.8C301.267 106.8 296.667 107.2 293.2 108C289.733 108.667 287.067 109.667 285.2 111C283.467 112.2 282.267 113.6 281.6 115.2C280.933 116.667 280.6 118.133 280.6 119.6C280.6 121.2 280.867 122.6 281.4 123.8C281.933 125 282.667 125.933 283.6 126.6C284.533 127.267 285.667 127.8 287 128.2C288.333 128.467 289.733 128.6 291.2 128.6C294.4 128.6 297.133 128.067 299.4 127C301.667 125.933 303.533 124.2 305 121.8C306.6 119.267 307.733 116.067 308.4 112.2C309.2 108.333 309.6 103.6 309.6 98C309.6 91.2 308.933 86 307.6 82.4C306.4 78.8 304.6 76.4 302.2 75.2C299.933 73.8667 297.133 73.2 293.8 73.2C289.667 73.2 285.867 73.8 282.4 75C278.933 76.0667 275.267 78.6 271.4 82.6L255.4 66.2C261.4 60.7333 267.8 56.9333 274.6 54.8C281.533 52.6667 288.267 51.6 294.8 51.6C300.533 51.6 305.933 52.2667 311 53.6C316.2 54.8 320.8 56.8667 324.8 59.8C328.933 62.7333 332.133 66.8 334.4 72C336.8 77.0667 338 83.4667 338 91.2V148H309.4V140.6C307.667 142.2 305.933 143.667 304.2 145C302.6 146.2 300.8 147.2 298.8 148C296.933 148.8 294.867 149.4 292.6 149.8C290.333 150.2 287.733 150.4 284.8 150.4ZM410.8 150.4C400.667 150.4 392.733 148 387 143.2C381.267 138.267 378.4 131.8 378.4 123.8C378.4 118.733 379.467 114.067 381.6 109.8C383.733 105.4 387.067 101.6 391.6 98.4C396.133 95.0667 401.933 92.4667 409 90.6C416.067 88.7333 424.533 87.8 434.4 87.8C434.8 87.8 435.533 87.8 436.6 87.8C437.667 87.8 438.867 87.8 440.2 87.8C441.533 87.8 442.667 87.8 443.6 87.8L444.4 106.6C443.6 106.6 442.467 106.6 441 106.6C439.533 106.6 438 106.667 436.4 106.8C434.933 106.8 433.8 106.8 433 106.8C427.267 106.8 422.667 107.2 419.2 108C415.733 108.667 413.067 109.667 411.2 111C409.467 112.2 408.267 113.6 407.6 115.2C406.933 116.667 406.6 118.133 406.6 119.6C406.6 121.2 406.867 122.6 407.4 123.8C407.933 125 408.667 125.933 409.6 126.6C410.533 127.267 411.667 127.8 413 128.2C414.333 128.467 415.733 128.6 417.2 128.6C420.4 128.6 423.133 128.067 425.4 127C427.667 125.933 429.533 124.2 431 121.8C432.6 119.267 433.733 116.067 434.4 112.2C435.2 108.333 435.6 103.6 435.6 98C435.6 91.2 434.933 86 433.6 82.4C432.4 78.8 430.6 76.4 428.2 75.2C425.933 73.8667 423.133 73.2 419.8 73.2C415.667 73.2 411.867 73.8 408.4 75C404.933 76.0667 401.267 78.6 397.4 82.6L381.4 66.2C387.4 60.7333 393.8 56.9333 400.6 54.8C407.533 52.6667 414.267 51.6 420.8 51.6C426.533 51.6 431.933 52.2667 437 53.6C442.2 54.8 446.8 56.8667 450.8 59.8C454.933 62.7333 458.133 66.8 460.4 72C462.8 77.0667 464 83.4667 464 91.2V148H435.4V140.6C433.667 142.2 431.933 143.667 430.2 145C428.6 146.2 426.8 147.2 424.8 148C422.933 148.8 420.867 149.4 418.6 149.8C416.333 150.2 413.733 150.4 410.8 150.4ZM553.8 150.4C546.867 150.4 540.4 149.267 534.4 147C528.4 144.6 523.133 141.267 518.6 137C514.2 132.6 510.733 127.467 508.2 121.6C505.8 115.733 504.6 109.267 504.6 102.2C504.6 95.2667 505.8 88.7333 508.2 82.6C510.733 76.4667 514.2 71.1333 518.6 66.6C523.133 61.9333 528.4 58.2667 534.4 55.6C540.4 52.9333 546.933 51.6 554 51.6C563.333 51.6 571.333 53.2667 578 56.6C584.667 59.8 589.933 64.3333 593.8 70.2L578.8 87.2L577.6 88.6L575.8 87.2C575.667 86.1333 575.533 85 575.4 83.8C575.267 82.6 574.533 81.1333 573.2 79.4C570.933 77.1333 568.333 75.6 565.4 74.8C562.467 74 559.133 73.6 555.4 73.6C552.467 73.6 549.667 74.2667 547 75.6C544.333 76.8 541.933 78.6 539.8 81C537.667 83.4 536 86.4 534.8 90C533.6 93.6 533 97.8 533 102.6C533 106.733 533.6 110.467 534.8 113.8C536.133 117 537.8 119.667 539.8 121.8C541.933 123.933 544.267 125.6 546.8 126.8C549.467 127.867 552.133 128.4 554.8 128.4C557.467 128.4 560.067 128.067 562.6 127.4C565.267 126.733 567.867 125.6 570.4 124C573.067 122.267 575.6 119.867 578 116.8L593.2 134.2C588 140.067 581.8 144.267 574.6 146.8C567.4 149.2 560.467 150.4 553.8 150.4ZM630.8 171V149H719.2V171H630.8ZM761.4 148V126H787V35H762.6V13H815.4V126H840.8V148H761.4ZM891.8 148V126H914.2V75.8H892.8V53.8H942.6V126H963V148H891.8ZM927 41C922.333 41 918.333 39.4667 915 36.4C911.8 33.2 910.2 29.4667 910.2 25.2C910.2 20.5333 911.733 16.7333 914.8 13.8C918 10.8667 922.067 9.4 927 9.4C931.4 9.4 935.267 11 938.6 14.2C942.067 17.2667 943.8 20.9333 943.8 25.2C943.8 29.4667 942.067 33.2 938.6 36.4C935.267 39.4667 931.4 41 927 41ZM1044.2 150.4C1040.33 150.4 1036.67 149.933 1033.2 149C1029.87 148.067 1026.8 146.6 1024 144.6C1021.33 142.6 1019 140.067 1017 137C1015 133.933 1013.47 130.267 1012.4 126C1011.33 121.6 1010.8 116.6 1010.8 111V53.8H1039.2V111C1039.2 114.067 1039.4 116.667 1039.8 118.8C1040.33 120.933 1041.07 122.733 1042 124.2C1042.93 125.533 1044 126.533 1045.2 127.2C1046.53 127.733 1047.93 128 1049.4 128C1051.93 128 1054.13 127.6 1056 126.8C1058 126 1059.6 124.8 1060.8 123.2C1062.13 121.467 1063.07 119.4 1063.6 117C1064.27 114.6 1064.6 111.8 1064.6 108.6V53.8H1093.2V132.8C1093.2 136 1093.27 138.8 1093.4 141.2C1093.67 143.467 1094.27 145.733 1095.2 148H1069.8C1069.13 146.8 1068.67 145.6 1068.4 144.4C1068.13 143.2 1067.93 142 1067.8 140.8C1067.8 139.6 1067.8 138.4 1067.8 137.2C1066.47 139.467 1064.87 141.467 1063 143.2C1061.27 144.8 1059.33 146.133 1057.2 147.2C1055.2 148.267 1053.07 149.067 1050.8 149.6C1048.67 150.133 1046.47 150.4 1044.2 150.4Z" fill="white"/>
</g>
<defs>
<filter id="filter0_d_125_7" x="0.699804" y="0.299902" width="1103.6" height="179.8" filterUnits="userSpaceOnUse" color-interpolation-filters="sRGB">
<feFlood flood-opacity="0" result="BackgroundImageFix"/>
<feColorMatrix in="SourceAlpha" type="matrix" values="0 0 0 0 0 0 0 0 0 0 0 0 0 0 0 0 0 0 127 0" result="hardAlpha"/>
<feOffset/>
<feGaussianBlur stdDeviation="4.55"/>
<feComposite in2="hardAlpha" operator="out"/>
<feColorMatrix type="matrix" values="0 0 0 0 1 0 0 0 0 1 0 0 0 0 1 0 0 0 0.3 0"/>
<feBlend mode="normal" in2="BackgroundImageFix" result="effect1_dropShadow_125_7"/>
<feBlend mode="normal" in="SourceGraphic" in2="effect1_dropShadow_125_7" result="shape"/>
</filter>
</defs>
</svg>
