<svg width="1376" height="221" viewBox="0 0 1376 221" fill="none" xmlns="http://www.w3.org/2000/svg">
<g filter="url(#filter0_d_125_7)">
<path d="M9.5 183V155.5H37.5V92.75H10.75V65.25H73V155.5H98.5V183H9.5ZM53.5 49.25C47.6667 49.25 42.6667 47.3333 38.5 43.5C34.5 39.5 32.5 34.8333 32.5 29.5C32.5 23.6667 34.4167 18.9167 38.25 15.25C42.25 11.5833 47.3333 9.75 53.5 9.75C59 9.75 63.8333 11.75 68 15.75C72.3333 19.5833 74.5 24.1667 74.5 29.5C74.5 34.8333 72.3333 39.5 68 43.5C63.8333 47.3333 59 49.25 53.5 49.25ZM214.75 186C207.083 186 199.75 185.333 192.75 184C185.917 182.833 179.583 180.917 173.75 178.25C167.917 175.417 162.583 171.75 157.75 167.25L171.75 140.25L172.75 138.25L175 139.5C175.5 140.667 176 142 176.5 143.5C177.167 144.833 178.5 146.417 180.5 148.25C185.167 151.75 190.25 154.417 195.75 156.25C201.417 158.083 207.833 159 215 159C218.667 159 221.75 158.583 224.25 157.75C226.917 156.917 228.917 155.833 230.25 154.5C231.75 153 232.5 151.417 232.5 149.75C232.5 148.083 231.917 146.667 230.75 145.5C229.75 144.333 228.167 143.333 226 142.5C224 141.5 221.333 140.5 218 139.5C214.667 138.5 210.75 137.417 206.25 136.25C197.917 134.083 190.667 131.417 184.5 128.25C178.5 125.083 173.833 121.167 170.5 116.5C167.167 111.667 165.5 105.917 165.5 99.25C165.5 92.4167 167.583 86.25 171.75 80.75C175.917 75.25 181.583 70.8333 188.75 67.5C196.083 64.1667 204.417 62.5 213.75 62.5C218.25 62.5 222.667 62.9167 227 63.75C231.5 64.4167 235.75 65.5 239.75 67C243.75 68.3333 247.583 70.1667 251.25 72.5C254.917 74.6667 258.333 77.25 261.5 80.25L245.25 104L243.75 106L241.5 104.25C241.333 102.917 240.917 101.667 240.25 100.5C239.75 99.3333 238.5 97.8333 236.5 96C233.333 93.8333 229.833 92.3333 226 91.5C222.333 90.5 218.417 90 214.25 90C209.417 90 205.167 90.75 201.5 92.25C197.833 93.75 196 96 196 99C196 101 197 102.667 199 104C201 105.333 203.917 106.583 207.75 107.75C211.75 108.75 216.667 109.917 222.5 111.25C231.833 113.25 239.5 116 245.5 119.5C251.5 122.833 255.917 126.917 258.75 131.75C261.75 136.583 263.25 142.167 263.25 148.5C263.25 155.167 261.333 161.417 257.5 167.25C253.667 172.917 248.083 177.5 240.75 181C233.583 184.333 224.917 186 214.75 186ZM353.25 186C340.583 186 330.667 183 323.5 177C316.333 170.833 312.75 162.75 312.75 152.75C312.75 146.417 314.083 140.583 316.75 135.25C319.417 129.75 323.583 125 329.25 121C334.917 116.833 342.167 113.583 351 111.25C359.833 108.917 370.417 107.75 382.75 107.75C383.25 107.75 384.167 107.75 385.5 107.75C386.833 107.75 388.333 107.75 390 107.75C391.667 107.75 393.083 107.75 394.25 107.75L395.25 131.25C394.25 131.25 392.833 131.25 391 131.25C389.167 131.25 387.25 131.333 385.25 131.5C383.417 131.5 382 131.5 381 131.5C373.833 131.5 368.083 132 363.75 133C359.417 133.833 356.083 135.083 353.75 136.75C351.583 138.25 350.083 140 349.25 142C348.417 143.833 348 145.667 348 147.5C348 149.5 348.333 151.25 349 152.75C349.667 154.25 350.583 155.417 351.75 156.25C352.917 157.083 354.333 157.75 356 158.25C357.667 158.583 359.417 158.75 361.25 158.75C365.25 158.75 368.667 158.083 371.5 156.75C374.333 155.417 376.667 153.25 378.5 150.25C380.5 147.083 381.917 143.083 382.75 138.25C383.75 133.417 384.25 127.5 384.25 120.5C384.25 112 383.417 105.5 381.75 101C380.25 96.5 378 93.5 375 92C372.167 90.3333 368.667 89.5 364.5 89.5C359.333 89.5 354.583 90.25 350.25 91.75C345.917 93.0833 341.333 96.25 336.5 101.25L316.5 80.75C324 73.9167 332 69.1667 340.5 66.5C349.167 63.8333 357.583 62.5 365.75 62.5C372.917 62.5 379.667 63.3333 386 65C392.5 66.5 398.25 69.0833 403.25 72.75C408.417 76.4167 412.417 81.5 415.25 88C418.25 94.3333 419.75 102.333 419.75 112V183H384V173.75C381.833 175.75 379.667 177.583 377.5 179.25C375.5 180.75 373.25 182 370.75 183C368.417 184 365.833 184.75 363 185.25C360.167 185.75 356.917 186 353.25 186ZM510.75 186C498.083 186 488.167 183 481 177C473.833 170.833 470.25 162.75 470.25 152.75C470.25 146.417 471.583 140.583 474.25 135.25C476.917 129.75 481.083 125 486.75 121C492.417 116.833 499.667 113.583 508.5 111.25C517.333 108.917 527.917 107.75 540.25 107.75C540.75 107.75 541.667 107.75 543 107.75C544.333 107.75 545.833 107.75 547.5 107.75C549.167 107.75 550.583 107.75 551.75 107.75L552.75 131.25C551.75 131.25 550.333 131.25 548.5 131.25C546.667 131.25 544.75 131.333 542.75 131.5C540.917 131.5 539.5 131.5 538.5 131.5C531.333 131.5 525.583 132 521.25 133C516.917 133.833 513.583 135.083 511.25 136.75C509.083 138.25 507.583 140 506.75 142C505.917 143.833 505.5 145.667 505.5 147.5C505.5 149.5 505.833 151.25 506.5 152.75C507.167 154.25 508.083 155.417 509.25 156.25C510.417 157.083 511.833 157.75 513.5 158.25C515.167 158.583 516.917 158.75 518.75 158.75C522.75 158.75 526.167 158.083 529 156.75C531.833 155.417 534.167 153.25 536 150.25C538 147.083 539.417 143.083 540.25 138.25C541.25 133.417 541.75 127.5 541.75 120.5C541.75 112 540.917 105.5 539.25 101C537.75 96.5 535.5 93.5 532.5 92C529.667 90.3333 526.167 89.5 522 89.5C516.833 89.5 512.083 90.25 507.75 91.75C503.417 93.0833 498.833 96.25 494 101.25L474 80.75C481.5 73.9167 489.5 69.1667 498 66.5C506.667 63.8333 515.083 62.5 523.25 62.5C530.417 62.5 537.167 63.3333 543.5 65C550 66.5 555.75 69.0833 560.75 72.75C565.917 76.4167 569.917 81.5 572.75 88C575.75 94.3333 577.25 102.333 577.25 112V183H541.5V173.75C539.333 175.75 537.167 177.583 535 179.25C533 180.75 530.75 182 528.25 183C525.917 184 523.333 184.75 520.5 185.25C517.667 185.75 514.417 186 510.75 186ZM689.5 186C680.833 186 672.75 184.583 665.25 181.75C657.75 178.75 651.167 174.583 645.5 169.25C640 163.75 635.667 157.333 632.5 150C629.5 142.667 628 134.583 628 125.75C628 117.083 629.5 108.917 632.5 101.25C635.667 93.5833 640 86.9167 645.5 81.25C651.167 75.4167 657.75 70.8333 665.25 67.5C672.75 64.1667 680.917 62.5 689.75 62.5C701.417 62.5 711.417 64.5833 719.75 68.75C728.083 72.75 734.667 78.4167 739.5 85.75L720.75 107L719.25 108.75L717 107C716.833 105.667 716.667 104.25 716.5 102.75C716.333 101.25 715.417 99.4167 713.75 97.25C710.917 94.4167 707.667 92.5 704 91.5C700.333 90.5 696.167 90 691.5 90C687.833 90 684.333 90.8333 681 92.5C677.667 94 674.667 96.25 672 99.25C669.333 102.25 667.25 106 665.75 110.5C664.25 115 663.5 120.25 663.5 126.25C663.5 131.417 664.25 136.083 665.75 140.25C667.417 144.25 669.5 147.583 672 150.25C674.667 152.917 677.583 155 680.75 156.5C684.083 157.833 687.417 158.5 690.75 158.5C694.083 158.5 697.333 158.083 700.5 157.25C703.833 156.417 707.083 155 710.25 153C713.583 150.833 716.75 147.833 719.75 144L738.75 165.75C732.25 173.083 724.5 178.333 715.5 181.5C706.5 184.5 697.833 186 689.5 186ZM785.75 211.75V184.25H896.25V211.75H785.75ZM949 183V155.5H981V41.75H950.5V14.25H1016.5V155.5H1048.25V183H949ZM1112 183V155.5H1140V92.75H1113.25V65.25H1175.5V155.5H1201V183H1112ZM1156 49.25C1150.17 49.25 1145.17 47.3333 1141 43.5C1137 39.5 1135 34.8333 1135 29.5C1135 23.6667 1136.92 18.9167 1140.75 15.25C1144.75 11.5833 1149.83 9.75 1156 9.75C1161.5 9.75 1166.33 11.75 1170.5 15.75C1174.83 19.5833 1177 24.1667 1177 29.5C1177 34.8333 1174.83 39.5 1170.5 43.5C1166.33 47.3333 1161.5 49.25 1156 49.25ZM1302.5 186C1297.67 186 1293.08 185.417 1288.75 184.25C1284.58 183.083 1280.75 181.25 1277.25 178.75C1273.92 176.25 1271 173.083 1268.5 169.25C1266 165.417 1264.08 160.833 1262.75 155.5C1261.42 150 1260.75 143.75 1260.75 136.75V65.25H1296.25V136.75C1296.25 140.583 1296.5 143.833 1297 146.5C1297.67 149.167 1298.58 151.417 1299.75 153.25C1300.92 154.917 1302.25 156.167 1303.75 157C1305.42 157.667 1307.17 158 1309 158C1312.17 158 1314.92 157.5 1317.25 156.5C1319.75 155.5 1321.75 154 1323.25 152C1324.92 149.833 1326.08 147.25 1326.75 144.25C1327.58 141.25 1328 137.75 1328 133.75V65.25H1363.75V164C1363.75 168 1363.83 171.5 1364 174.5C1364.33 177.333 1365.08 180.167 1366.25 183H1334.5C1333.67 181.5 1333.08 180 1332.75 178.5C1332.42 177 1332.17 175.5 1332 174C1332 172.5 1332 171 1332 169.5C1330.33 172.333 1328.33 174.833 1326 177C1323.83 179 1321.42 180.667 1318.75 182C1316.25 183.333 1313.58 184.333 1310.75 185C1308.08 185.667 1305.33 186 1302.5 186Z" fill="white"/>
</g>
<defs>
<filter id="filter0_d_125_7" x="0.4" y="0.65" width="1374.95" height="220.2" filterUnits="userSpaceOnUse" color-interpolation-filters="sRGB">
<feFlood flood-opacity="0" result="BackgroundImageFix"/>
<feColorMatrix in="SourceAlpha" type="matrix" values="0 0 0 0 0 0 0 0 0 0 0 0 0 0 0 0 0 0 127 0" result="hardAlpha"/>
<feOffset/>
<feGaussianBlur stdDeviation="4.55"/>
<feComposite in2="hardAlpha" operator="out"/>
<feColorMatrix type="matrix" values="0 0 0 0 1 0 0 0 0 1 0 0 0 0 1 0 0 0 0.55 0"/>
<feBlend mode="normal" in2="BackgroundImageFix" result="effect1_dropShadow_125_7"/>
<feBlend mode="normal" in="SourceGraphic" in2="effect1_dropShadow_125_7" result="shape"/>
</filter>
</defs>
</svg>
