<svg width="62" height="63" viewBox="0 0 62 63" fill="none" xmlns="http://www.w3.org/2000/svg">
<g filter="url(#filter0_d_127_2)">
<mask id="path-1-outside-1_127_2" maskUnits="userSpaceOnUse" x="3" y="9" width="53" height="47" fill="black">
<rect fill="white" x="3" y="9" width="53" height="47"/>
<path d="M4.736 55V47.96H11.904V31.896H5.056V24.856H20.992V47.96H27.52V55H4.736ZM16 20.76C14.5067 20.76 13.2267 20.2693 12.16 19.288C11.136 18.264 10.624 17.0693 10.624 15.704C10.624 14.2107 11.1147 12.9947 12.096 12.056C13.12 11.1173 14.4213 10.648 16 10.648C17.408 10.648 18.6453 11.16 19.712 12.184C20.8213 13.1653 21.376 14.3387 21.376 15.704C21.376 17.0693 20.8213 18.264 19.712 19.288C18.6453 20.2693 17.408 20.76 16 20.76ZM28.928 55V47.96H37.12V18.84H29.312V11.8H46.208V47.96H54.336V55H28.928Z"/>
</mask>
<path d="M4.736 55V47.96H11.904V31.896H5.056V24.856H20.992V47.96H27.52V55H4.736ZM16 20.76C14.5067 20.76 13.2267 20.2693 12.16 19.288C11.136 18.264 10.624 17.0693 10.624 15.704C10.624 14.2107 11.1147 12.9947 12.096 12.056C13.12 11.1173 14.4213 10.648 16 10.648C17.408 10.648 18.6453 11.16 19.712 12.184C20.8213 13.1653 21.376 14.3387 21.376 15.704C21.376 17.0693 20.8213 18.264 19.712 19.288C18.6453 20.2693 17.408 20.76 16 20.76ZM28.928 55V47.96H37.12V18.84H29.312V11.8H46.208V47.96H54.336V55H28.928Z" fill="white"/>
<path d="M4.736 55H3.736V56H4.736V55ZM4.736 47.96V46.96H3.736V47.96H4.736ZM11.904 47.96V48.96H12.904V47.96H11.904ZM11.904 31.896H12.904V30.896H11.904V31.896ZM5.056 31.896H4.056V32.896H5.056V31.896ZM5.056 24.856V23.856H4.056V24.856H5.056ZM20.992 24.856H21.992V23.856H20.992V24.856ZM20.992 47.96H19.992V48.96H20.992V47.96ZM27.52 47.96H28.52V46.96H27.52V47.96ZM27.52 55V56H28.52V55H27.52ZM12.16 19.288L11.4529 19.9951L11.4676 20.0098L11.4829 20.0239L12.16 19.288ZM12.096 12.056L11.4203 11.3188L11.4124 11.326L11.4048 11.3334L12.096 12.056ZM19.712 12.184L19.0195 12.9054L19.0342 12.9195L19.0494 12.933L19.712 12.184ZM19.712 19.288L20.3891 20.0239L20.3903 20.0228L19.712 19.288ZM5.736 55V47.96H3.736V55H5.736ZM4.736 48.96H11.904V46.96H4.736V48.96ZM12.904 47.96V31.896H10.904V47.96H12.904ZM11.904 30.896H5.056V32.896H11.904V30.896ZM6.056 31.896V24.856H4.056V31.896H6.056ZM5.056 25.856H20.992V23.856H5.056V25.856ZM19.992 24.856V47.96H21.992V24.856H19.992ZM20.992 48.96H27.52V46.96H20.992V48.96ZM26.52 47.96V55H28.52V47.96H26.52ZM27.52 54H4.736V56H27.52V54ZM16 19.76C14.7491 19.76 13.7131 19.358 12.8371 18.5521L11.4829 20.0239C12.7403 21.1807 14.2642 21.76 16 21.76V19.76ZM12.8671 18.5809C12.018 17.7318 11.624 16.7868 11.624 15.704H9.624C9.624 17.3519 10.254 18.7962 11.4529 19.9951L12.8671 18.5809ZM11.624 15.704C11.624 14.4535 12.0239 13.5088 12.7872 12.7786L11.4048 11.3334C10.2055 12.4805 9.624 13.9678 9.624 15.704H11.624ZM12.7717 12.7932C13.5859 12.0468 14.6349 11.648 16 11.648V9.648C14.2078 9.648 12.6541 10.1879 11.4203 11.3188L12.7717 12.7932ZM16 11.648C17.1359 11.648 18.1287 12.0502 19.0195 12.9054L20.4045 11.4626C19.162 10.2697 17.6801 9.648 16 9.648V11.648ZM19.0494 12.933C19.9647 13.7426 20.376 14.6514 20.376 15.704H22.376C22.376 14.0259 21.678 12.588 20.3746 11.435L19.0494 12.933ZM20.376 15.704C20.376 16.759 19.9621 17.6963 19.0337 18.5532L20.3903 20.0228C21.6806 18.8317 22.376 17.3796 22.376 15.704H20.376ZM19.0349 18.5521C18.1469 19.3691 17.1492 19.76 16 19.76V21.76C17.6668 21.76 19.1438 21.1696 20.3891 20.0239L19.0349 18.5521ZM28.928 55H27.928V56H28.928V55ZM28.928 47.96V46.96H27.928V47.96H28.928ZM37.12 47.96V48.96H38.12V47.96H37.12ZM37.12 18.84H38.12V17.84H37.12V18.84ZM29.312 18.84H28.312V19.84H29.312V18.84ZM29.312 11.8V10.8H28.312V11.8H29.312ZM46.208 11.8H47.208V10.8H46.208V11.8ZM46.208 47.96H45.208V48.96H46.208V47.96ZM54.336 47.96H55.336V46.96H54.336V47.96ZM54.336 55V56H55.336V55H54.336ZM29.928 55V47.96H27.928V55H29.928ZM28.928 48.96H37.12V46.96H28.928V48.96ZM38.12 47.96V18.84H36.12V47.96H38.12ZM37.12 17.84H29.312V19.84H37.12V17.84ZM30.312 18.84V11.8H28.312V18.84H30.312ZM29.312 12.8H46.208V10.8H29.312V12.8ZM45.208 11.8V47.96H47.208V11.8H45.208ZM46.208 48.96H54.336V46.96H46.208V48.96ZM53.336 47.96V55H55.336V47.96H53.336ZM54.336 54H28.928V56H54.336V54Z" fill="black" mask="url(#path-1-outside-1_127_2)"/>
</g>
<path d="M9 9H26V22H9V9Z" fill="#141414"/>
<path d="M12 11.5H11.5V12V19V19.5H12H21H21.5V19V12V11.5H21H12Z" fill="#3EFFB9" stroke="black"/>
<defs>
<filter id="filter0_d_127_2" x="0.73584" y="10.6479" width="57.6001" height="52.3521" filterUnits="userSpaceOnUse" color-interpolation-filters="sRGB">
<feFlood flood-opacity="0" result="BackgroundImageFix"/>
<feColorMatrix in="SourceAlpha" type="matrix" values="0 0 0 0 0 0 0 0 0 0 0 0 0 0 0 0 0 0 127 0" result="hardAlpha"/>
<feOffset dy="4"/>
<feGaussianBlur stdDeviation="2"/>
<feComposite in2="hardAlpha" operator="out"/>
<feColorMatrix type="matrix" values="0 0 0 0 0 0 0 0 0 0 0 0 0 0 0 0 0 0 0.25 0"/>
<feBlend mode="normal" in2="BackgroundImageFix" result="effect1_dropShadow_127_2"/>
<feBlend mode="normal" in="SourceGraphic" in2="effect1_dropShadow_127_2" result="shape"/>
</filter>
</defs>
</svg>
