<svg width="455" height="47" viewBox="0 0 455 47" fill="none" xmlns="http://www.w3.org/2000/svg">
<path d="M0.624 1.2H7.664V19.44H15.216V1.2H22.256V46H15.216V25.84H7.664V46H0.624V1.2ZM27.499 1.2H34.539V46H27.499V1.2ZM55.5655 7.6H48.2055V1.2H69.9655V7.6H62.6055V46H55.5655V7.6ZM73.374 1.2H80.414V19.44H87.966V1.2H95.006V46H87.966V25.84H80.414V46H73.374V1.2ZM100.249 1.2H119.449V7.6H107.289V19.44H116.953V25.84H107.289V39.6H119.449V46H100.249V1.2ZM123.499 1.2H133.931C137.558 1.2 140.203 2.05333 141.867 3.76C143.531 5.424 144.363 8.00533 144.363 11.504V14.256C144.363 18.9067 142.827 21.8507 139.755 23.088V23.216C141.462 23.728 142.656 24.7733 143.339 26.352C144.064 27.9307 144.427 30.0427 144.427 32.688V40.56C144.427 41.84 144.47 42.8853 144.555 43.696C144.64 44.464 144.854 45.232 145.195 46H138.027C137.771 45.2747 137.6 44.592 137.515 43.952C137.43 43.312 137.387 42.16 137.387 40.496V32.304C137.387 30.256 137.046 28.8267 136.363 28.016C135.723 27.2053 134.592 26.8 132.971 26.8H130.539V46H123.499V1.2ZM133.099 20.4C134.507 20.4 135.552 20.0373 136.235 19.312C136.96 18.5867 137.323 17.3707 137.323 15.664V12.208C137.323 10.5867 137.024 9.41333 136.427 8.688C135.872 7.96267 134.976 7.6 133.739 7.6H130.539V20.4H133.099ZM149.312 1.2H168.512V7.6H156.352V19.44H166.016V25.84H156.352V39.6H168.512V46H149.312V1.2ZM173.138 19.888V1.2H180.178V19.888L179.282 34.16H174.034L173.138 19.888ZM173.266 39.216H180.05V46H173.266V39.216ZM196.249 1.2H206.297L210.777 33.264H210.905L215.385 1.2H225.433V46H218.777V12.08H218.649L213.529 46H207.641L202.521 12.08H202.393V46H196.249V1.2ZM237.151 26.928L228.639 1.2H236.127L240.927 17.648H241.055L245.855 1.2H252.703L244.191 26.928V46H237.151V26.928ZM266.124 1.2H274.956L281.804 28.016H281.932V1.2H288.204V46H280.972L272.524 13.296H272.396V46H266.124V1.2ZM298.877 1.2H308.413L315.709 46H308.669L307.389 37.104V37.232H299.389L298.109 46H291.581L298.877 1.2ZM306.557 31.152L303.421 9.008H303.293L300.22 31.152H306.557ZM319.124 1.2H329.172L333.652 33.264H333.78L338.26 1.2H348.308V46H341.652V12.08H341.524L336.404 46H330.516L325.396 12.08H325.268V46H319.124V1.2ZM353.562 1.2H372.762V7.6H360.602V19.44H370.266V25.84H360.602V39.6H372.762V46H353.562V1.2ZM387.062 1.2H394.102V46H387.062V1.2ZM408.526 46.64C405.113 46.64 402.531 45.68 400.782 43.76C399.033 41.7973 398.158 39.0027 398.158 35.376V32.816H404.814V35.888C404.814 38.7893 406.03 40.24 408.462 40.24C409.657 40.24 410.553 39.8987 411.15 39.216C411.79 38.4907 412.11 37.3387 412.11 35.76C412.11 33.8827 411.683 32.24 410.83 30.832C409.977 29.3813 408.398 27.6533 406.094 25.648C403.193 23.088 401.166 20.784 400.014 18.736C398.862 16.6453 398.286 14.2987 398.286 11.696C398.286 8.15467 399.182 5.424 400.974 3.504C402.766 1.54133 405.369 0.559998 408.782 0.559998C412.153 0.559998 414.691 1.54133 416.398 3.504C418.147 5.424 419.022 8.19733 419.022 11.824V13.68H412.366V11.376C412.366 9.84 412.067 8.73066 411.47 8.048C410.873 7.32266 409.998 6.96 408.846 6.96C406.499 6.96 405.326 8.38933 405.326 11.248C405.326 12.8693 405.753 14.384 406.606 15.792C407.502 17.2 409.102 18.9067 411.406 20.912C414.35 23.472 416.377 25.7973 417.486 27.888C418.595 29.9787 419.15 32.432 419.15 35.248C419.15 38.9173 418.233 41.7333 416.398 43.696C414.606 45.6587 411.982 46.64 408.526 46.64ZM423.187 39.216H429.97V46H423.187V39.216ZM435.249 39.216H442.033V46H435.249V39.216ZM447.312 39.216H454.095V46H447.312V39.216Z" fill="white" fill-opacity="0.52"/>
</svg>
