<svg width="1271" height="349" viewBox="0 0 1271 349" fill="none" xmlns="http://www.w3.org/2000/svg">
<path d="M92.7734 227.328C61.6536 223.812 38.4115 216.586 23.0469 205.648C7.68229 194.581 1.88802 180.258 5.66406 162.68C9.57031 145.102 24.6745 124.724 50.9766 101.547C60.4818 93.3438 73.8932 83.0573 91.2109 70.6875C108.659 58.3177 127.669 46.4036 148.242 34.9453C168.945 23.3568 188.997 14.6979 208.398 8.96875C227.799 3.23958 244.271 2.84896 257.812 7.79688C267.969 12.224 273.568 19.1901 274.609 28.6953C275.781 38.0703 274.284 48.3568 270.117 59.5547C266.081 70.7526 261.133 81.2995 255.273 91.1953C249.544 101.091 244.727 108.773 240.82 114.242C235.091 122.836 226.107 135.596 213.867 152.523C199.544 172.706 183.919 194.971 166.992 219.32C150.195 243.539 135.417 265.935 122.656 286.508C109.896 307.211 102.474 322.055 100.391 331.039C100.26 332.862 100.586 334.555 101.367 336.117C101.758 337.029 101.953 337.875 101.953 338.656C102.083 339.568 101.693 340.414 100.781 341.195C98.8281 342.367 97.2005 342.367 95.8984 341.195C94.5964 340.154 93.6849 338.461 93.1641 336.117C92.6432 333.904 92.5781 331.625 92.9688 329.281C95.1823 319.516 103.255 303.174 117.188 280.258C131.12 257.341 146.94 232.732 164.648 206.43C182.487 180.128 198.438 156.951 212.5 136.898C221.094 124.529 227.669 115.023 232.227 108.383C234.831 104.607 238.672 98.487 243.75 90.0234C248.828 81.5599 253.516 72.3802 257.812 62.4844C262.24 52.4583 264.518 43.3438 264.648 35.1406C264.779 26.8073 261.198 20.9479 253.906 17.5625C241.797 13.1354 226.432 13.9167 207.812 19.9062C189.193 25.8958 169.792 34.6198 149.609 46.0781C129.427 57.5365 110.938 69.2552 94.1406 81.2344C77.3438 93.0833 64.6484 102.719 56.0547 110.141C38.6068 125.375 26.888 138.656 20.8984 149.984C15.0391 161.182 13.2161 170.688 15.4297 178.5C17.6432 186.312 22.2005 192.693 29.1016 197.641C36.0026 202.458 43.4896 206.169 51.5625 208.773C59.7656 211.247 66.9271 212.81 73.0469 213.461C79.1667 213.982 82.487 213.917 83.0078 213.266C83.5286 211.833 84.4401 210.857 85.7422 210.336C87.0443 209.815 88.4115 209.815 89.8438 210.336C95.1823 212.549 98.5026 214.633 99.8047 216.586C101.628 219.451 101.758 221.99 100.195 224.203C98.6328 226.417 96.1589 227.458 92.7734 227.328ZM221.094 243.539C222.135 242.888 223.372 241.065 224.805 238.07C226.237 235.076 227.865 231.43 229.688 227.133C233.073 218.539 237.044 210.141 241.602 201.938C246.159 193.734 251.302 189.112 257.031 188.07C258.854 188.461 260.221 189.372 261.133 190.805C262.044 192.107 261.784 193.669 260.352 195.492C258.138 198.487 256.185 200.896 254.492 202.719C252.93 204.411 251.302 206.104 249.609 207.797C247.917 209.49 245.833 211.638 243.359 214.242C241.667 218.539 240.039 222.836 238.477 227.133C237.826 229.216 237.109 231.234 236.328 233.188C235.938 234.62 235.677 235.661 235.547 236.312C235.547 236.833 235.742 237.094 236.133 237.094C236.654 237.094 237.305 236.964 238.086 236.703C238.216 236.573 238.346 236.508 238.477 236.508C241.081 235.727 242.904 235.792 243.945 236.703C244.987 237.484 245.312 238.526 244.922 239.828C244.531 241.13 243.555 242.237 241.992 243.148C240.56 243.93 239.128 244.385 237.695 244.516C236.003 244.776 234.375 245.427 232.812 246.469C231.901 247.12 230.99 248.096 230.078 249.398C229.167 250.701 228.385 251.938 227.734 253.109C222.786 262.615 215.755 271.534 206.641 279.867C197.526 288.201 186.719 293.214 174.219 294.906C164.453 295.818 159.701 294.581 159.961 291.195C160.221 287.81 163.672 283.188 170.312 277.328C176.823 271.599 184.766 265.674 194.141 259.555C203.516 253.435 212.5 248.096 221.094 243.539ZM211.133 262.094C211.784 261.312 212.5 260.401 213.281 259.359C214.062 258.448 214.714 257.536 215.234 256.625C215.755 255.714 216.016 254.997 216.016 254.477C216.016 254.086 215.625 254.021 214.844 254.281C211.979 255.583 208.073 257.927 203.125 261.312C198.047 264.828 192.904 268.539 187.695 272.445C182.487 276.482 178.32 279.932 175.195 282.797C171.94 285.661 170.703 287.159 171.484 287.289C175.781 287.549 181.966 285.141 190.039 280.062C198.112 275.115 205.143 269.125 211.133 262.094ZM378.906 214.438C382.422 212.615 384.505 212.484 385.156 214.047C385.807 215.609 384.57 217.497 381.445 219.711C376.497 222.706 370.117 225.635 362.305 228.5C354.622 231.234 347.721 232.081 341.602 231.039C335.482 229.867 332.292 224.919 332.031 216.195V215.219C332.161 213.396 332.031 212.484 331.641 212.484C331.25 212.354 330.143 212.875 328.32 214.047C308.138 227.198 293.294 235.401 283.789 238.656C274.414 241.911 268.88 242.042 267.188 239.047C265.104 234.88 267.708 228.435 275 219.711C282.292 210.857 291.667 202.458 303.125 194.516C314.714 186.573 325.781 181.82 336.328 180.258C346.875 178.565 354.297 182.732 358.594 192.758C358.984 194.06 358.789 195.232 358.008 196.273C357.227 197.315 356.185 198.031 354.883 198.422C353.581 198.812 352.083 198.552 350.391 197.641C348.828 196.729 347.721 195.622 347.07 194.32C347.07 194.06 347.135 193.799 347.266 193.539C347.396 193.279 347.526 193.018 347.656 192.758C347.786 192.497 347.917 192.237 348.047 191.977C348.177 191.716 348.177 191.456 348.047 191.195C344.792 186.768 339.193 186.117 331.25 189.242C323.307 192.367 314.909 197.25 306.055 203.891C297.201 210.531 289.714 216.846 283.594 222.836C277.474 228.695 274.609 232.276 275 233.578C275.521 234.88 280.664 232.732 290.43 227.133C300.195 221.534 316.211 211.052 338.477 195.688C339.648 195.036 340.82 194.841 341.992 195.102C343.294 195.232 344.336 195.883 345.117 197.055C346.029 198.617 346.094 200.18 345.312 201.742C340.365 212.419 339.779 218.995 343.555 221.469C347.461 223.943 352.995 224.138 360.156 222.055C367.448 219.971 373.698 217.432 378.906 214.438ZM482.031 214.438C485.547 212.615 487.63 212.484 488.281 214.047C488.932 215.609 487.695 217.497 484.57 219.711C479.622 222.706 473.242 225.635 465.43 228.5C457.747 231.234 450.846 232.081 444.727 231.039C438.607 229.867 435.417 224.919 435.156 216.195V215.219C435.286 213.396 435.156 212.484 434.766 212.484C434.375 212.354 433.268 212.875 431.445 214.047C411.263 227.198 396.419 235.401 386.914 238.656C377.539 241.911 372.005 242.042 370.312 239.047C368.229 234.88 370.833 228.435 378.125 219.711C385.417 210.857 394.792 202.458 406.25 194.516C417.839 186.573 428.906 181.82 439.453 180.258C450 178.565 457.422 182.732 461.719 192.758C462.109 194.06 461.914 195.232 461.133 196.273C460.352 197.315 459.31 198.031 458.008 198.422C456.706 198.812 455.208 198.552 453.516 197.641C451.953 196.729 450.846 195.622 450.195 194.32C450.195 194.06 450.26 193.799 450.391 193.539C450.521 193.279 450.651 193.018 450.781 192.758C450.911 192.497 451.042 192.237 451.172 191.977C451.302 191.716 451.302 191.456 451.172 191.195C447.917 186.768 442.318 186.117 434.375 189.242C426.432 192.367 418.034 197.25 409.18 203.891C400.326 210.531 392.839 216.846 386.719 222.836C380.599 228.695 377.734 232.276 378.125 233.578C378.646 234.88 383.789 232.732 393.555 227.133C403.32 221.534 419.336 211.052 441.602 195.688C442.773 195.036 443.945 194.841 445.117 195.102C446.419 195.232 447.461 195.883 448.242 197.055C449.154 198.617 449.219 200.18 448.438 201.742C443.49 212.419 442.904 218.995 446.68 221.469C450.586 223.943 456.12 224.138 463.281 222.055C470.573 219.971 476.823 217.432 482.031 214.438ZM510.547 194.711C505.078 200.18 499.544 207.602 493.945 216.977C488.477 226.221 485.352 233.383 484.57 238.461C484.57 241.846 487.5 242.758 493.359 241.195C499.349 239.763 506.38 237.159 514.453 233.383C522.656 229.477 529.948 225.701 536.328 222.055C542.839 218.409 546.549 216.195 547.461 215.414C549.414 213.982 550.977 213.396 552.148 213.656C553.32 213.917 553.906 214.568 553.906 215.609C553.906 216.651 553.255 217.758 551.953 218.93C548.307 221.924 541.797 226.156 532.422 231.625C523.047 237.094 513.346 241.716 503.32 245.492C493.294 249.268 485.547 250.049 480.078 247.836C474.479 245.622 473.763 238.396 477.93 226.156C481.445 216.911 487.435 207.016 495.898 196.469C504.362 185.792 512.044 179.477 518.945 177.523C522.07 177.003 524.609 177.523 526.562 179.086C528.646 180.648 529.948 182.732 530.469 185.336C529.948 188.201 528.711 190.479 526.758 192.172C524.805 193.734 522.786 194.646 520.703 194.906C518.62 195.167 517.122 194.646 516.211 193.344C516.081 192.953 515.951 192.628 515.82 192.367C515.69 191.846 515.495 191.521 515.234 191.391C514.974 191.13 514.453 191.26 513.672 191.781C513.021 192.302 511.979 193.279 510.547 194.711ZM554.102 258.578C552.018 259.099 550.391 258.708 549.219 257.406C548.177 256.234 547.591 254.672 547.461 252.719C547.331 250.896 547.591 249.203 548.242 247.641C549.805 244.906 551.953 243.669 554.688 243.93C557.552 244.32 559.766 245.753 561.328 248.227C561.979 249.529 562.109 250.831 561.719 252.133C561.328 253.435 560.547 254.477 559.375 255.258C558.333 255.779 557.357 256.43 556.445 257.211C555.404 257.862 554.622 258.318 554.102 258.578ZM725.781 118.148C722.786 109.294 724.284 100.31 730.273 91.1953C736.263 81.9505 743.815 73.5521 752.93 66C762.044 58.4479 769.857 52.6536 776.367 48.6172C781.966 44.7109 790.039 39.9583 800.586 34.3594C811.263 28.6302 822.461 23.9427 834.18 20.2969C846.029 16.5208 856.445 15.6745 865.43 17.7578C874.544 19.8411 880.339 26.7422 882.812 38.4609C884.505 51.4818 880.078 69.4505 869.531 92.3672C859.115 115.154 846.224 139.112 830.859 164.242C815.495 189.242 801.302 211.573 788.281 231.234C780.859 242.693 774.87 252.068 770.312 259.359C767.057 264.307 765.755 267.042 766.406 267.562C767.057 268.083 769.922 267.172 775 264.828C784.896 260.531 798.047 255.193 814.453 248.812C830.99 242.562 848.828 236.573 867.969 230.844C887.24 225.115 906.055 221.013 924.414 218.539C942.773 216.065 958.789 216.586 972.461 220.102C986.133 223.487 995.638 231.169 1000.98 243.148C1001.11 243.279 1001.17 243.409 1001.17 243.539C1001.69 244.841 1002.02 246.143 1002.15 247.445C1002.41 248.878 1001.89 249.919 1000.59 250.57C999.023 251.091 997.786 250.831 996.875 249.789C996.094 248.878 995.508 247.771 995.117 246.469C990.169 235.531 980.599 229.021 966.406 226.938C952.214 224.854 935.482 225.701 916.211 229.477C897.07 233.122 877.539 238.266 857.617 244.906C837.826 251.547 819.792 258.188 803.516 264.828C787.37 271.599 775.195 276.872 766.992 280.648C762.565 282.602 759.18 284.229 756.836 285.531C754.622 286.964 752.734 288.656 751.172 290.609C749.74 292.693 747.917 295.557 745.703 299.203C745.182 300.115 744.661 301.091 744.141 302.133C742.708 304.346 741.341 306.625 740.039 308.969C738.477 311.573 736.914 314.112 735.352 316.586C734.049 318.539 732.682 319.581 731.25 319.711C729.818 319.841 728.841 319.19 728.32 317.758C727.799 316.456 728.19 314.503 729.492 311.898C731.185 309.034 732.878 306.234 734.57 303.5C735.221 302.328 735.872 301.156 736.523 299.984C736.784 299.724 737.174 299.203 737.695 298.422C738.216 297.51 738.802 296.469 739.453 295.297C740.104 294.255 740.69 293.279 741.211 292.367C740.43 292.758 739.518 293.148 738.477 293.539C737.435 294.06 736.458 294.516 735.547 294.906C734.766 295.427 734.18 295.753 733.789 295.883C708.919 307.341 684.635 319.841 660.938 333.383C659.375 334.424 658.203 335.336 657.422 336.117C656.641 337.029 655.859 338.266 655.078 339.828C653.385 342.432 651.172 344.32 648.438 345.492C645.703 346.794 642.839 347.771 639.844 348.422C638.411 348.682 636.914 348.682 635.352 348.422C633.919 348.292 632.747 347.576 631.836 346.273C630.404 343.669 630.534 341.065 632.227 338.461C634.049 335.857 636.068 333.904 638.281 332.602C670.964 313.331 704.622 296.013 739.258 280.648C743.294 278.826 746.224 277.393 748.047 276.352C750 275.31 751.497 274.138 752.539 272.836C753.581 271.534 754.818 269.646 756.25 267.172C757.161 265.479 758.333 263.461 759.766 261.117C762.37 256.56 766.862 249.333 773.242 239.438C782.617 224.854 793.685 207.146 806.445 186.312C819.206 165.349 831.38 144.06 842.969 122.445C854.688 100.701 863.411 81.2995 869.141 64.2422C875 47.1849 875.521 35.3359 870.703 28.6953C865.104 22.8359 855.534 21.9245 841.992 25.9609C828.451 29.9974 813.867 36.7682 798.242 46.2734C782.617 55.7786 768.88 65.9349 757.031 76.7422C745.182 87.4193 738.151 96.5339 735.938 104.086C735.677 105.388 735.482 106.365 735.352 107.016C735.352 107.667 735.417 108.122 735.547 108.383C735.677 108.513 735.807 108.643 735.938 108.773C736.198 108.904 736.393 109.099 736.523 109.359C736.654 109.49 736.849 109.75 737.109 110.141C738.151 113.266 737.956 115.935 736.523 118.148C735.091 120.232 733.203 121.404 730.859 121.664C728.646 121.794 726.953 120.622 725.781 118.148ZM1096.29 151.156C1099.8 151.417 1101.43 152.523 1101.17 154.477C1100.91 156.299 1099.61 158.188 1097.27 160.141C1095.05 161.964 1092.64 163.201 1090.04 163.852C1087.57 164.372 1085.74 163.526 1084.57 161.312C1084.31 160.661 1084.38 160.076 1084.77 159.555C1085.29 158.904 1085.94 158.383 1086.72 157.992C1087.63 157.471 1088.41 157.016 1089.06 156.625C1089.58 156.495 1089.97 156.365 1090.23 156.234C1090.49 156.104 1090.62 155.974 1090.62 155.844C1090.76 154.411 1091.34 153.24 1092.38 152.328C1093.42 151.417 1094.73 151.026 1096.29 151.156ZM1052.73 243.93C1047.66 243.93 1044.66 242.302 1043.75 239.047C1042.84 235.792 1043.29 231.69 1045.12 226.742C1046.81 221.664 1049.22 216.391 1052.34 210.922C1055.47 205.323 1058.59 200.245 1061.72 195.688C1064.84 191 1067.32 187.419 1069.14 184.945C1069.66 184.034 1070.12 183.383 1070.51 182.992C1069.73 180.909 1070.44 178.63 1072.66 176.156C1074.87 173.552 1077.47 171.664 1080.47 170.492C1083.46 169.19 1085.61 169.385 1086.91 171.078C1087.83 172.51 1088.02 173.878 1087.5 175.18C1086.98 176.482 1086.26 177.719 1085.35 178.891C1085.09 179.151 1084.83 179.477 1084.57 179.867C1079.62 186.898 1074.22 194.776 1068.36 203.5C1062.63 212.094 1058.33 219.32 1055.47 225.18C1053.26 230.258 1054.62 233.057 1059.57 233.578C1064.65 234.099 1071.16 233.318 1079.1 231.234C1087.17 229.151 1094.53 226.938 1101.17 224.594C1107.94 222.12 1111.98 220.492 1113.28 219.711C1114.71 218.93 1115.82 218.799 1116.6 219.32C1117.51 219.841 1117.9 220.688 1117.77 221.859C1117.64 222.901 1116.73 224.008 1115.04 225.18C1106.58 229.867 1095.51 234.164 1081.84 238.07C1068.29 241.977 1058.59 243.93 1052.73 243.93ZM1133.2 203.305C1132.94 203.565 1132.55 203.76 1132.03 203.891C1131.64 204.021 1131.18 204.151 1130.66 204.281C1130.27 204.411 1130.01 204.672 1129.88 205.062C1128.19 207.406 1126.3 210.466 1124.22 214.242C1122.14 218.018 1120.38 221.859 1118.95 225.766C1117.64 229.542 1117.12 232.797 1117.38 235.531C1117.64 238.135 1119.34 239.438 1122.46 239.438C1132.49 238.396 1143.82 233.513 1156.45 224.789C1169.08 216.065 1179.95 207.862 1189.06 200.18C1190.76 198.878 1192.25 197.706 1193.55 196.664C1195.9 194.581 1198.7 192.497 1201.95 190.414C1205.21 188.331 1208.33 186.964 1211.33 186.312C1214.32 185.661 1216.47 186.378 1217.77 188.461C1218.03 191.586 1217.45 195.492 1216.02 200.18C1213.54 211.378 1213.93 218.604 1217.19 221.859C1220.44 225.115 1225.46 225.896 1232.23 224.203C1239.13 222.51 1246.68 219.841 1254.88 216.195C1257.49 214.893 1259.24 214.503 1260.16 215.023C1261.07 215.544 1261.26 216.456 1260.74 217.758C1260.22 219.06 1258.98 220.167 1257.03 221.078C1247.79 225.896 1238.87 229.216 1230.27 231.039C1221.81 232.732 1215.04 231.951 1209.96 228.695C1204.88 225.44 1202.86 218.734 1203.91 208.578C1204.56 204.021 1204.36 201.677 1203.32 201.547C1202.41 201.417 1200 203.044 1196.09 206.43C1195.96 206.56 1195.77 206.69 1195.51 206.82C1194.47 207.732 1193.29 208.708 1191.99 209.75C1182.75 217.693 1172.01 225.701 1159.77 233.773C1147.53 241.846 1135.61 246.339 1124.02 247.25C1119.86 247.38 1116.28 246.664 1113.28 245.102C1108.59 241.586 1106.58 236.964 1107.23 231.234C1107.75 225.505 1109.57 219.646 1112.7 213.656C1115.82 207.667 1118.75 202.589 1121.48 198.422C1122.14 197.25 1122.72 196.208 1123.24 195.297C1124.54 193.344 1126.24 191.911 1128.32 191C1130.53 189.958 1132.42 189.568 1133.98 189.828C1135.42 189.958 1136.52 190.414 1137.3 191.195C1138.22 191.977 1138.41 193.344 1137.89 195.297C1137.37 197.25 1135.81 199.919 1133.2 203.305ZM1261.91 258.578C1259.83 259.099 1258.2 258.708 1257.03 257.406C1255.99 256.234 1255.4 254.672 1255.27 252.719C1255.14 250.896 1255.4 249.203 1256.05 247.641C1257.62 244.906 1259.77 243.669 1262.5 243.93C1265.36 244.32 1267.58 245.753 1269.14 248.227C1269.79 249.529 1269.92 250.831 1269.53 252.133C1269.14 253.435 1268.36 254.477 1267.19 255.258C1266.15 255.779 1265.17 256.43 1264.26 257.211C1263.22 257.862 1262.43 258.318 1261.91 258.578Z" fill="#AF48EE" fill-opacity="0.69"/>
</svg>
