<svg width="1226" height="339" viewBox="0 0 1226 339" fill="none" xmlns="http://www.w3.org/2000/svg">
<g filter="url(#filter0_d_125_8)">
<path d="M69.1204 187.851C45.6859 212.196 41.5514 217.244 31.0271 237.003C26.0895 250.247 18.8921 268.376 19.0012 282.262C19.0768 291.882 19.0012 312.366 36.1473 317.895C43.9668 318.997 49.9474 315.952 55.9782 312.366C74.3006 301.469 88.1866 285.685 100.869 270.983C125.502 242.426 145.414 211.286 164.413 180.307C186.118 144.914 206.092 108.457 215.804 69.7815C216.954 65.199 229.918 20.0655 213.26 19.0235C203.173 18.3925 194.242 30.6417 189.99 35.7964C172.241 57.3156 160.997 82.3277 150.328 106.33C137.448 135.311 125.361 166.02 124.421 196.933C123.867 215.157 126.954 240.718 148.633 252.013C166.658 261.403 185.666 254.116 199.929 244.175C223.993 227.405 243.459 205.497 257.444 182.943C260.541 177.949 281.414 147.648 260.412 149.141C239.988 150.594 218.379 165.843 204.122 175.985C184.832 189.707 168.731 205.938 155.981 223.667C148.088 234.642 118.652 271.668 150.328 276.806C184.516 282.351 220.413 253.057 242.747 237.217C255.436 228.219 275.793 216.05 282.127 202.793C286.113 194.448 267.497 206.787 267.242 206.967C251.159 218.353 236.578 231.37 223.34 244.761C220.275 247.862 203.748 262.142 209.963 267.614C213.98 271.15 234.452 262.486 238.461 261.424C253.321 257.49 268.575 254.542 283.351 250.401C290.955 248.27 294.522 245.752 284.623 249.815C265.675 257.593 248.524 268.035 230.5 276.989C220.61 281.902 210.994 286.473 200.919 291.125C196.339 293.239 181.932 297.57 187.258 297.57C201.921 297.57 220.012 289.457 232.384 284.46C261.428 272.729 288.76 258.212 313.121 241.209C327.294 231.318 345.375 218.488 351.747 203.964C357.249 191.424 344.374 182.645 328.525 186.752C309.668 191.639 301.76 207.372 296.682 220.884C293.271 229.959 283.415 259.73 302.287 264.684C309.181 266.493 318.925 261.354 323.296 258.897C340.742 249.094 358.136 235.805 369.882 221.763C377.709 212.406 383.897 202.552 384.579 191.183C385.725 172.081 367.704 182.419 359.849 190.707C344.795 206.592 330.148 232.727 333.753 253.148C335.303 261.926 342.439 262.164 350.899 257.872C367.576 249.412 381.723 236.706 394.047 224.729C397.238 221.628 416.736 204.987 413.925 200.009C413.461 199.188 398.201 214.035 398.098 214.145C386.055 227.04 373.794 240.55 364.701 254.869C360.945 260.782 357.916 267.747 368.234 260.655C382.385 250.93 395.17 240.052 409.073 230.113C414.26 226.405 419.42 222.674 424.665 219.016C428.083 216.632 436.827 210.139 436.629 213.706C436.486 216.294 430.477 224.348 429.846 225.205C421.902 235.997 412.955 246.344 404.41 256.847C404.305 256.976 385.707 278.438 390.561 279.479C394.549 280.334 408.538 271.852 411.476 270.543C433.917 260.543 456.715 247.845 482.415 243.296C487.161 242.456 484.41 244.973 486.419 245.494C486.872 245.611 502.147 229.825 502.387 229.6C524.336 209.112 546.299 188.661 569.04 168.698C597.773 143.475 629.934 119.212 654.346 91.242C659.663 85.1508 675.505 65.6327 653.969 67.6575C620.816 70.7745 586.831 86.6724 559.101 100.031C515.539 121.017 473.005 146.395 438.372 175.875C422.869 189.072 390.903 217.099 403.374 237.583C415.655 257.757 458.099 252.666 479.447 249.962C531.105 243.419 580.676 228.282 629.098 213.34C637.534 210.736 654.311 205.384 663.39 202.207C666.736 201.036 679.418 197.671 681.29 194.113C682.226 192.334 676.491 192.675 674.036 192.905C658.941 194.318 643.809 198.075 629.381 201.621C590.303 211.224 554.146 225.995 517.79 240.477C515.605 241.347 485.204 255.452 481.19 253.111" stroke="#C348EE" stroke-width="9" stroke-linecap="round"/>
<path d="M798.51 25.8225L799.784 30.1383L798.51 25.8225ZM874.066 25.5661L872.135 29.6312L874.066 25.5661ZM896.582 112.031L900.937 113.162L896.582 112.031ZM873.218 180.111L868.932 178.74L873.218 180.111ZM837.23 261.009L840.93 263.57L837.23 261.009ZM799.641 300.121L796.811 296.622L799.641 300.121ZM759.884 320.08L759.334 315.614L759.884 320.08ZM734.542 310.742L730.192 311.892L734.542 310.742ZM773.922 276.61L774.087 281.107L773.922 276.61ZM832.378 290.453L830.946 294.719L832.378 290.453ZM924.42 304.04L923.625 299.611L924.42 304.04ZM982.971 286.205L981.364 282.002L982.971 286.205ZM1073.6 245.335L1075.64 249.344L1073.6 245.335ZM1209.37 172.984C1211.48 171.674 1212.13 168.9 1210.82 166.788C1209.51 164.676 1206.74 164.027 1204.63 165.337L1209.37 172.984ZM778.074 38.1149C778.074 38.1147 778.088 38.1706 778.081 38.2598C778.074 38.3468 778.053 38.3977 778.053 38.3972C778.066 38.3673 778.203 38.0972 778.74 37.637C779.862 36.6744 781.835 35.63 784.523 34.5968C789.986 32.4977 796.009 31.2529 799.784 30.1383L797.236 21.5066C794.541 22.3022 787.127 23.9547 781.295 26.1957C778.336 27.3327 775.197 28.8192 772.881 30.8053C770.515 32.834 768.215 36.1725 769.392 40.4839L778.074 38.1149ZM799.784 30.1383C822.843 23.3305 851.148 19.6657 872.135 29.6312L875.996 21.5011C851.84 10.0311 820.721 14.5729 797.236 21.5066L799.784 30.1383ZM872.135 29.6312C888.547 37.424 895.267 50.624 897.116 65.5052C898.999 80.6485 895.767 97.2706 892.226 110.899L900.937 113.162C904.531 99.3298 908.151 81.319 906.048 64.395C903.911 47.2089 895.805 30.9072 875.996 21.5011L872.135 29.6312ZM892.226 110.899C889.295 122.181 885.344 133.325 881.168 144.601C877.016 155.814 872.615 167.222 868.932 178.74L877.504 181.482C881.107 170.216 885.397 159.099 889.608 147.726C893.797 136.415 897.885 124.911 900.937 113.162L892.226 110.899ZM868.932 178.74C859.998 206.673 850.787 233.516 833.53 258.448L840.93 263.57C859.027 237.424 868.57 209.414 877.504 181.482L868.932 178.74ZM833.53 258.448C824.021 272.185 810.936 285.2 796.811 296.622L802.47 303.62C817.021 291.854 830.784 278.228 840.93 263.57L833.53 258.448ZM796.811 296.622C785.865 305.473 774.212 313.779 759.334 315.614L760.435 324.546C778.048 322.374 791.426 312.551 802.47 303.62L796.811 296.622ZM759.334 315.614C754.796 316.174 749.71 316.099 745.664 314.975C741.593 313.844 739.524 311.98 738.893 309.591L730.192 311.892C731.992 318.698 737.707 322.106 743.256 323.647C748.83 325.195 755.199 325.192 760.435 324.546L759.334 315.614ZM738.893 309.591C737.129 302.921 740.232 296.257 747.236 290.701C754.221 285.16 764.328 281.465 774.087 281.107L773.757 272.113C762.191 272.537 750.213 276.851 741.642 283.65C733.089 290.436 727.165 300.446 730.192 311.892L738.893 309.591ZM774.087 281.107C794.221 280.368 811.654 288.244 830.946 294.719L833.81 286.187C815.662 280.095 796.013 271.296 773.757 272.113L774.087 281.107ZM830.946 294.719C859.714 304.375 892.122 314.41 925.216 308.469L923.625 299.611C893.09 305.093 862.756 295.902 833.81 286.187L830.946 294.719ZM925.216 308.469C947.085 304.543 964.789 297.976 984.579 290.408L981.364 282.002C961.588 289.565 944.582 295.848 923.625 299.611L925.216 308.469ZM984.579 290.408C1016.12 278.347 1046.35 264.27 1075.64 249.344L1071.56 241.325C1042.45 256.156 1012.52 270.088 981.364 282.002L984.579 290.408ZM1075.64 249.344C1122.09 225.675 1166.11 199.833 1209.37 172.984L1204.63 165.337C1161.48 192.112 1117.7 217.813 1071.56 241.325L1075.64 249.344Z" fill="#C348EE"/>
<path d="M883.986 247.294C878.373 248.484 875.496 250.641 871.843 254.293C865.2 260.933 862.715 267.283 860.623 275.712C856.002 294.327 889.203 278.068 896.469 272.526C903.43 267.217 905.452 263.605 909.564 256.193C924.35 229.54 932.551 199.379 944.76 171.978M944.76 171.978C951.328 157.238 939.498 187.013 944.76 171.978ZM944.76 171.978C946.938 163.714 948.039 165.478 944.76 171.978ZM944.76 171.978C934.6 199.792 961.299 122.739 934.577 208.548C931.063 221.726 928.436 235.625 929.018 249.125C929.355 256.914 932.46 266.632 944.563 267.253C956.563 267.868 968.519 257.433 975.84 251.688C992.358 238.728 1008.56 224.661 1022.29 209.83C1031.95 199.387 1041 188.073 1045.93 175.698C1046.32 174.729 1050.59 160.329 1043.39 166.213C1021.13 184.395 1003.96 214.703 1003.11 239.786C1002.15 268.249 1047.72 232.506 1055.16 226.2C1072.34 211.645 1089.59 196.459 1102.55 179.397C1107.58 172.778 1120.54 152.013 1116.12 158.888C1109.38 169.368 1102.19 178.862 1097.75 190.2C1094.34 198.882 1096.53 229.649 1119.92 220.556" stroke="#C348EE" stroke-width="9" stroke-linecap="round"/>
</g>
<defs>
<filter id="filter0_d_125_8" x="0.6" y="0.599756" width="1224.8" height="338.255" filterUnits="userSpaceOnUse" color-interpolation-filters="sRGB">
<feFlood flood-opacity="0" result="BackgroundImageFix"/>
<feColorMatrix in="SourceAlpha" type="matrix" values="0 0 0 0 0 0 0 0 0 0 0 0 0 0 0 0 0 0 127 0" result="hardAlpha"/>
<feOffset/>
<feGaussianBlur stdDeviation="6.95"/>
<feComposite in2="hardAlpha" operator="out"/>
<feColorMatrix type="matrix" values="0 0 0 0 0 0 0 0 0 0 0 0 0 0 0 0 0 0 0.55 0"/>
<feBlend mode="normal" in2="BackgroundImageFix" result="effect1_dropShadow_125_8"/>
<feBlend mode="normal" in="SourceGraphic" in2="effect1_dropShadow_125_8" result="shape"/>
</filter>
</defs>
</svg>
