<svg width="630" height="80" viewBox="0 0 630 80" fill="none" xmlns="http://www.w3.org/2000/svg">
<path fill-rule="evenodd" clip-rule="evenodd" d="M0 12.6316C0 5.65537 5.65537 0 12.6316 0H67.3684C74.3448 0 80 5.65537 80 12.6316V67.3684C80 74.3448 74.3448 80 67.3684 80H12.6316C5.65537 80 0 74.3448 0 67.3684V12.6316ZM27.7895 27.7895L24.0189 24.0189L7.57895 40.4589L24.0189 56.8989L27.7895 53.1284L15.12 40.4589L27.7895 27.7895ZM42.5263 38.3158V28.6316C42.5263 27.2363 41.3954 26.1053 40 26.1053C38.6048 26.1053 37.4737 27.2363 37.4737 28.6316V37.4736V38.3158H26.5263C25.1311 38.3158 24 39.4469 24 40.8421C24 42.2375 25.1311 43.3684 26.5263 43.3684H37.4737V52.2105C37.4737 53.6059 38.6048 54.7368 40 54.7368C41.3954 54.7368 42.5263 53.6059 42.5263 52.2105V43.3874V43.3684H53.4737C54.8691 43.3684 56 42.2375 56 40.8421C56 39.4469 54.8691 38.3158 53.4737 38.3158H42.5263ZM56.0189 56.88L52.2484 53.1095L64.9179 40.44L52.2484 27.7705L56.0189 24L72.4589 40.44L56.0189 56.88Z" fill="black" fill-opacity="0.8"/>
<path d="M131.504 61.704C128.176 61.704 125.616 60.9573 123.824 59.464C122.032 57.928 121.136 55.9867 121.136 53.64C121.136 52.0613 121.52 50.6533 122.288 49.416C123.056 48.136 124.101 47.0693 125.424 46.216C126.789 45.32 128.368 44.6373 130.16 44.168C131.952 43.6987 133.851 43.464 135.856 43.464C136.581 43.464 137.307 43.4853 138.032 43.528C138.8 43.528 139.589 43.5707 140.4 43.656C141.253 43.6987 142.128 43.784 143.024 43.912L143.152 47.432C142.384 47.304 141.595 47.2187 140.784 47.176C140.016 47.0907 139.248 47.0267 138.48 46.984C137.712 46.9413 136.965 46.92 136.24 46.92C134.704 46.92 133.296 47.048 132.016 47.304C130.736 47.56 129.627 47.944 128.688 48.456C127.749 48.968 127.024 49.6293 126.512 50.44C126 51.2507 125.744 52.232 125.744 53.384C125.744 54.28 125.893 55.048 126.192 55.688C126.533 56.2853 126.981 56.776 127.536 57.16C128.091 57.5013 128.731 57.7573 129.456 57.928C130.224 58.0987 131.056 58.184 131.952 58.184C133.616 58.184 135.088 57.928 136.368 57.416C137.691 56.8613 138.8 56.072 139.696 55.048C140.635 54.024 141.339 52.7653 141.808 51.272C142.277 49.7787 142.512 48.072 142.512 46.152C142.512 43.2507 142.171 40.9893 141.488 39.368C140.805 37.7467 139.781 36.5947 138.416 35.912C137.093 35.2293 135.387 34.888 133.296 34.888C131.888 34.888 130.501 35.1653 129.136 35.72C127.771 36.232 126.533 37.0427 125.424 38.152L123.184 35.208C124.549 33.8427 126.128 32.8187 127.92 32.136C129.712 31.4533 131.611 31.112 133.616 31.112C135.536 31.112 137.285 31.3467 138.864 31.816C140.443 32.2853 141.787 33.0747 142.896 34.184C144.048 35.2507 144.923 36.7013 145.52 38.536C146.16 40.3707 146.48 42.6747 146.48 45.448V61H141.488V56.52C140.933 57.5867 140.251 58.4613 139.44 59.144C138.672 59.8267 137.84 60.36 136.944 60.744C136.048 61.0853 135.131 61.32 134.192 61.448C133.253 61.6187 132.357 61.704 131.504 61.704ZM164.976 61.64C163.483 61.64 162.011 61.32 160.56 60.68C159.152 60.04 157.851 59.08 156.656 57.8C155.504 56.52 154.587 54.8987 153.904 52.936C153.221 50.9733 152.88 48.6907 152.88 46.088C152.88 43.4 153.243 41.1173 153.968 39.24C154.693 37.32 155.653 35.7627 156.848 34.568C158.043 33.3307 159.365 32.4347 160.816 31.88C162.267 31.2827 163.739 30.984 165.232 30.984C166.597 30.984 167.813 31.1973 168.88 31.624C169.989 32.0507 170.949 32.648 171.76 33.416C172.613 34.1413 173.275 35.016 173.744 36.04V18.44H177.968H178.608V18.888C178.352 19.144 178.181 19.4213 178.096 19.72C178.053 20.0187 178.032 20.5307 178.032 21.256L178.096 56.456C178.096 57.224 178.117 57.992 178.16 58.76C178.245 59.4853 178.437 60.232 178.736 61H174.192C173.979 60.488 173.829 59.976 173.744 59.464C173.659 58.952 173.595 58.4613 173.552 57.992C173.552 57.48 173.552 56.968 173.552 56.456C172.955 57.48 172.229 58.3973 171.376 59.208C170.523 59.976 169.563 60.5733 168.496 61C167.429 61.4267 166.256 61.64 164.976 61.64ZM165.68 57.608C167.088 57.608 168.283 57.3307 169.264 56.776C170.245 56.1787 171.035 55.368 171.632 54.344C172.229 53.2773 172.656 52.0613 172.912 50.696C173.211 49.288 173.36 47.7947 173.36 46.216C173.36 44.04 173.083 42.0987 172.528 40.392C171.973 38.6427 171.099 37.2773 169.904 36.296C168.709 35.272 167.173 34.76 165.296 34.76C164.016 34.76 162.864 35.016 161.84 35.528C160.859 35.9973 160.027 36.7013 159.344 37.64C158.704 38.5787 158.213 39.7093 157.872 41.032C157.531 42.312 157.36 43.7627 157.36 45.384C157.36 47.816 157.68 49.9493 158.32 51.784C158.96 53.6187 159.899 55.048 161.136 56.072C162.373 57.096 163.888 57.608 165.68 57.608ZM196.976 61.64C195.483 61.64 194.011 61.32 192.56 60.68C191.152 60.04 189.851 59.08 188.656 57.8C187.504 56.52 186.587 54.8987 185.904 52.936C185.221 50.9733 184.88 48.6907 184.88 46.088C184.88 43.4 185.243 41.1173 185.968 39.24C186.693 37.32 187.653 35.7627 188.848 34.568C190.043 33.3307 191.365 32.4347 192.816 31.88C194.267 31.2827 195.739 30.984 197.232 30.984C198.597 30.984 199.813 31.1973 200.88 31.624C201.989 32.0507 202.949 32.648 203.76 33.416C204.613 34.1413 205.275 35.016 205.744 36.04V18.44H209.968H210.608V18.888C210.352 19.144 210.181 19.4213 210.096 19.72C210.053 20.0187 210.032 20.5307 210.032 21.256L210.096 56.456C210.096 57.224 210.117 57.992 210.16 58.76C210.245 59.4853 210.437 60.232 210.736 61H206.192C205.979 60.488 205.829 59.976 205.744 59.464C205.659 58.952 205.595 58.4613 205.552 57.992C205.552 57.48 205.552 56.968 205.552 56.456C204.955 57.48 204.229 58.3973 203.376 59.208C202.523 59.976 201.563 60.5733 200.496 61C199.429 61.4267 198.256 61.64 196.976 61.64ZM197.68 57.608C199.088 57.608 200.283 57.3307 201.264 56.776C202.245 56.1787 203.035 55.368 203.632 54.344C204.229 53.2773 204.656 52.0613 204.912 50.696C205.211 49.288 205.36 47.7947 205.36 46.216C205.36 44.04 205.083 42.0987 204.528 40.392C203.973 38.6427 203.099 37.2773 201.904 36.296C200.709 35.272 199.173 34.76 197.296 34.76C196.016 34.76 194.864 35.016 193.84 35.528C192.859 35.9973 192.027 36.7013 191.344 37.64C190.704 38.5787 190.213 39.7093 189.872 41.032C189.531 42.312 189.36 43.7627 189.36 45.384C189.36 47.816 189.68 49.9493 190.32 51.784C190.96 53.6187 191.899 55.048 193.136 56.072C194.373 57.096 195.888 57.608 197.68 57.608ZM220.4 61V57.288H227.888V35.464H220.784V31.752H232.496V57.288H239.344V61H220.4ZM229.936 25.608C229.04 25.608 228.272 25.288 227.632 24.648C226.992 24.008 226.672 23.24 226.672 22.344C226.672 21.4053 226.971 20.616 227.568 19.976C228.208 19.336 228.997 19.016 229.936 19.016C230.832 19.016 231.6 19.3573 232.24 20.04C232.923 20.68 233.264 21.448 233.264 22.344C233.264 23.24 232.923 24.008 232.24 24.648C231.6 25.288 230.832 25.608 229.936 25.608ZM265.136 61.448C263.259 61.448 261.723 61.128 260.528 60.488C259.333 59.848 258.416 58.8667 257.776 57.544C257.136 56.1787 256.709 54.472 256.496 52.424C256.325 50.376 256.283 47.944 256.368 45.128L257.136 24.264L261.936 23.688L262.576 23.624L262.64 24.072C262.427 24.3707 262.235 24.6693 262.064 24.968C261.936 25.2667 261.829 25.7787 261.744 26.504L261.168 33.736L261.36 34.888L260.912 45.448C260.784 48.6907 260.869 51.208 261.168 53C261.467 54.7493 262 55.9653 262.768 56.648C263.536 57.288 264.56 57.608 265.84 57.608C267.248 57.608 268.485 57.3307 269.552 56.776C270.661 56.2213 271.813 55.5173 273.008 54.664L274.416 58.312C272.965 59.3787 271.472 60.168 269.936 60.68C268.4 61.192 266.8 61.448 265.136 61.448ZM250.48 31.752H271.536V35.528H250.48V31.752ZM284.4 61V57.288H291.888V35.464H284.784V31.752H296.496V57.288H303.344V61H284.4ZM293.936 25.608C293.04 25.608 292.272 25.288 291.632 24.648C290.992 24.008 290.672 23.24 290.672 22.344C290.672 21.4053 290.971 20.616 291.568 19.976C292.208 19.336 292.997 19.016 293.936 19.016C294.832 19.016 295.6 19.3573 296.24 20.04C296.923 20.68 297.264 21.448 297.264 22.344C297.264 23.24 296.923 24.008 296.24 24.648C295.6 25.288 294.832 25.608 293.936 25.608ZM326 61.512C323.355 61.512 321.008 60.872 318.96 59.592C316.955 58.2693 315.376 56.4773 314.224 54.216C313.072 51.912 312.496 49.288 312.496 46.344C312.496 43.3573 313.072 40.7333 314.224 38.472C315.376 36.168 316.955 34.376 318.96 33.096C321.008 31.7733 323.355 31.112 326 31.112C328.645 31.112 330.971 31.7733 332.976 33.096C335.024 34.376 336.624 36.168 337.776 38.472C338.928 40.7333 339.504 43.3573 339.504 46.344C339.504 49.288 338.928 51.912 337.776 54.216C336.624 56.4773 335.024 58.2693 332.976 59.592C330.971 60.872 328.645 61.512 326 61.512ZM326 57.672C327.707 57.672 329.2 57.1813 330.48 56.2C331.76 55.2187 332.763 53.8747 333.488 52.168C334.256 50.4613 334.64 48.4987 334.64 46.28C334.64 44.0613 334.256 42.0987 333.488 40.392C332.763 38.6853 331.76 37.3627 330.48 36.424C329.2 35.4427 327.707 34.952 326 34.952C324.336 34.952 322.843 35.4427 321.52 36.424C320.24 37.3627 319.216 38.6853 318.448 40.392C317.723 42.0987 317.36 44.0613 317.36 46.28C317.36 48.4987 317.723 50.4613 318.448 52.168C319.216 53.8747 320.24 55.2187 321.52 56.2C322.843 57.1813 324.336 57.672 326 57.672ZM346.608 61V31.752H351.088V36.936C351.856 35.7413 352.752 34.7173 353.776 33.864C354.8 32.968 355.931 32.2853 357.168 31.816C358.405 31.304 359.685 31.048 361.008 31.048C362.629 31.048 364.08 31.4533 365.36 32.264C366.64 33.0747 367.664 34.376 368.432 36.168C369.2 37.96 369.584 40.328 369.584 43.272V61H365.104V43.4C365.104 41.352 364.869 39.7307 364.4 38.536C363.931 37.2987 363.291 36.424 362.48 35.912C361.669 35.3573 360.752 35.08 359.728 35.08C358.747 35.08 357.744 35.2933 356.72 35.72C355.739 36.1467 354.821 36.7653 353.968 37.576C353.115 38.344 352.411 39.2827 351.856 40.392C351.344 41.5013 351.088 42.76 351.088 44.168V61H346.608ZM387.504 61.704C384.176 61.704 381.616 60.9573 379.824 59.464C378.032 57.928 377.136 55.9867 377.136 53.64C377.136 52.0613 377.52 50.6533 378.288 49.416C379.056 48.136 380.101 47.0693 381.424 46.216C382.789 45.32 384.368 44.6373 386.16 44.168C387.952 43.6987 389.851 43.464 391.856 43.464C392.581 43.464 393.307 43.4853 394.032 43.528C394.8 43.528 395.589 43.5707 396.4 43.656C397.253 43.6987 398.128 43.784 399.024 43.912L399.152 47.432C398.384 47.304 397.595 47.2187 396.784 47.176C396.016 47.0907 395.248 47.0267 394.48 46.984C393.712 46.9413 392.965 46.92 392.24 46.92C390.704 46.92 389.296 47.048 388.016 47.304C386.736 47.56 385.627 47.944 384.688 48.456C383.749 48.968 383.024 49.6293 382.512 50.44C382 51.2507 381.744 52.232 381.744 53.384C381.744 54.28 381.893 55.048 382.192 55.688C382.533 56.2853 382.981 56.776 383.536 57.16C384.091 57.5013 384.731 57.7573 385.456 57.928C386.224 58.0987 387.056 58.184 387.952 58.184C389.616 58.184 391.088 57.928 392.368 57.416C393.691 56.8613 394.8 56.072 395.696 55.048C396.635 54.024 397.339 52.7653 397.808 51.272C398.277 49.7787 398.512 48.072 398.512 46.152C398.512 43.2507 398.171 40.9893 397.488 39.368C396.805 37.7467 395.781 36.5947 394.416 35.912C393.093 35.2293 391.387 34.888 389.296 34.888C387.888 34.888 386.501 35.1653 385.136 35.72C383.771 36.232 382.533 37.0427 381.424 38.152L379.184 35.208C380.549 33.8427 382.128 32.8187 383.92 32.136C385.712 31.4533 387.611 31.112 389.616 31.112C391.536 31.112 393.285 31.3467 394.864 31.816C396.443 32.2853 397.787 33.0747 398.896 34.184C400.048 35.2507 400.923 36.7013 401.52 38.536C402.16 40.3707 402.48 42.6747 402.48 45.448V61H397.488V56.52C396.933 57.5867 396.251 58.4613 395.44 59.144C394.672 59.8267 393.84 60.36 392.944 60.744C392.048 61.0853 391.131 61.32 390.192 61.448C389.253 61.6187 388.357 61.704 387.504 61.704ZM411.056 61V57.288H419.696V22.152H411.44V18.44H424.368V57.288H432.944V61H411.056ZM489.136 61.448C487.259 61.448 485.723 61.128 484.528 60.488C483.333 59.848 482.416 58.8667 481.776 57.544C481.136 56.1787 480.709 54.472 480.496 52.424C480.325 50.376 480.283 47.944 480.368 45.128L481.136 24.264L485.936 23.688L486.576 23.624L486.64 24.072C486.427 24.3707 486.235 24.6693 486.064 24.968C485.936 25.2667 485.829 25.7787 485.744 26.504L485.168 33.736L485.36 34.888L484.912 45.448C484.784 48.6907 484.869 51.208 485.168 53C485.467 54.7493 486 55.9653 486.768 56.648C487.536 57.288 488.56 57.608 489.84 57.608C491.248 57.608 492.485 57.3307 493.552 56.776C494.661 56.2213 495.813 55.5173 497.008 54.664L498.416 58.312C496.965 59.3787 495.472 60.168 493.936 60.68C492.4 61.192 490.8 61.448 489.136 61.448ZM474.48 31.752H495.536V35.528H474.48V31.752ZM518 61.512C515.355 61.512 513.008 60.872 510.96 59.592C508.955 58.2693 507.376 56.4773 506.224 54.216C505.072 51.912 504.496 49.288 504.496 46.344C504.496 43.3573 505.072 40.7333 506.224 38.472C507.376 36.168 508.955 34.376 510.96 33.096C513.008 31.7733 515.355 31.112 518 31.112C520.645 31.112 522.971 31.7733 524.976 33.096C527.024 34.376 528.624 36.168 529.776 38.472C530.928 40.7333 531.504 43.3573 531.504 46.344C531.504 49.288 530.928 51.912 529.776 54.216C528.624 56.4773 527.024 58.2693 524.976 59.592C522.971 60.872 520.645 61.512 518 61.512ZM518 57.672C519.707 57.672 521.2 57.1813 522.48 56.2C523.76 55.2187 524.763 53.8747 525.488 52.168C526.256 50.4613 526.64 48.4987 526.64 46.28C526.64 44.0613 526.256 42.0987 525.488 40.392C524.763 38.6853 523.76 37.3627 522.48 36.424C521.2 35.4427 519.707 34.952 518 34.952C516.336 34.952 514.843 35.4427 513.52 36.424C512.24 37.3627 511.216 38.6853 510.448 40.392C509.723 42.0987 509.36 44.0613 509.36 46.28C509.36 48.4987 509.723 50.4613 510.448 52.168C511.216 53.8747 512.24 55.2187 513.52 56.2C514.843 57.1813 516.336 57.672 518 57.672ZM550 61.512C547.355 61.512 545.008 60.872 542.96 59.592C540.955 58.2693 539.376 56.4773 538.224 54.216C537.072 51.912 536.496 49.288 536.496 46.344C536.496 43.3573 537.072 40.7333 538.224 38.472C539.376 36.168 540.955 34.376 542.96 33.096C545.008 31.7733 547.355 31.112 550 31.112C552.645 31.112 554.971 31.7733 556.976 33.096C559.024 34.376 560.624 36.168 561.776 38.472C562.928 40.7333 563.504 43.3573 563.504 46.344C563.504 49.288 562.928 51.912 561.776 54.216C560.624 56.4773 559.024 58.2693 556.976 59.592C554.971 60.872 552.645 61.512 550 61.512ZM550 57.672C551.707 57.672 553.2 57.1813 554.48 56.2C555.76 55.2187 556.763 53.8747 557.488 52.168C558.256 50.4613 558.64 48.4987 558.64 46.28C558.64 44.0613 558.256 42.0987 557.488 40.392C556.763 38.6853 555.76 37.3627 554.48 36.424C553.2 35.4427 551.707 34.952 550 34.952C548.336 34.952 546.843 35.4427 545.52 36.424C544.24 37.3627 543.216 38.6853 542.448 40.392C541.723 42.0987 541.36 44.0613 541.36 46.28C541.36 48.4987 541.723 50.4613 542.448 52.168C543.216 53.8747 544.24 55.2187 545.52 56.2C546.843 57.1813 548.336 57.672 550 57.672ZM571.056 61V57.288H579.696V22.152H571.44V18.44H584.368V57.288H592.944V61H571.056ZM614.064 61.64C612.443 61.64 610.885 61.4693 609.392 61.128C607.941 60.7867 606.555 60.2747 605.232 59.592C603.952 58.9093 602.757 58.056 601.648 57.032L604.208 52.68L604.592 52.104L604.976 52.36C605.061 52.7013 605.147 53.064 605.232 53.448C605.36 53.7893 605.659 54.216 606.128 54.728C607.024 55.624 608.091 56.3707 609.328 56.968C610.608 57.5227 612.229 57.8 614.192 57.8C615.771 57.8 617.093 57.608 618.16 57.224C619.269 56.84 620.123 56.3067 620.72 55.624C621.317 54.8987 621.616 54.0667 621.616 53.128C621.616 52.488 621.488 51.9333 621.232 51.464C620.976 50.952 620.549 50.4827 619.952 50.056C619.397 49.6293 618.651 49.2027 617.712 48.776C616.773 48.3493 615.621 47.9227 614.256 47.496C612.037 46.856 610.096 46.1093 608.432 45.256C606.768 44.4027 605.488 43.4213 604.592 42.312C603.696 41.16 603.248 39.8587 603.248 38.408C603.248 36.9147 603.653 35.6347 604.464 34.568C605.275 33.4587 606.469 32.6053 608.048 32.008C609.669 31.368 611.653 31.048 614 31.048C615.365 31.048 616.603 31.1547 617.712 31.368C618.821 31.5387 619.845 31.816 620.784 32.2C621.723 32.584 622.576 33.0747 623.344 33.672C624.155 34.2267 624.923 34.888 625.648 35.656L623.024 38.856L622.576 39.368L622.256 39.048C622.213 38.7067 622.107 38.3867 621.936 38.088C621.808 37.7467 621.509 37.3413 621.04 36.872C620.059 36.104 618.949 35.528 617.712 35.144C616.475 34.7173 615.28 34.504 614.128 34.504C612.421 34.504 610.949 34.8027 609.712 35.4C608.475 35.9973 607.856 36.9147 607.856 38.152C607.856 38.792 608.069 39.432 608.496 40.072C608.965 40.6693 609.797 41.288 610.992 41.928C612.187 42.5253 613.893 43.144 616.112 43.784C618.544 44.552 620.485 45.3413 621.936 46.152C623.429 46.92 624.496 47.816 625.136 48.84C625.819 49.864 626.16 51.08 626.16 52.488C626.16 54.1093 625.712 55.624 624.816 57.032C623.963 58.44 622.64 59.5707 620.848 60.424C619.056 61.2347 616.795 61.64 614.064 61.64Z" fill="black"/>
</svg>
