<svg width="684" height="60" viewBox="0 0 684 60" fill="none" xmlns="http://www.w3.org/2000/svg">
<rect y="10" width="14" height="48" fill="#FF3E78"/>
<path d="M22.624 13.2H33.376C36.8747 13.2 39.4987 14.1387 41.248 16.016C42.9973 17.8933 43.872 20.6453 43.872 24.272V46.928C43.872 50.5547 42.9973 53.3067 41.248 55.184C39.4987 57.0613 36.8747 58 33.376 58H22.624V13.2ZM33.248 51.6C34.4 51.6 35.2747 51.2587 35.872 50.576C36.512 49.8933 36.832 48.784 36.832 47.248V23.952C36.832 22.416 36.512 21.3067 35.872 20.624C35.2747 19.9413 34.4 19.6 33.248 19.6H29.664V51.6H33.248ZM58.8 58.64C55.344 58.64 52.6987 57.6587 50.864 55.696C49.0293 53.7333 48.112 50.96 48.112 47.376V23.824C48.112 20.24 49.0293 17.4667 50.864 15.504C52.6987 13.5413 55.344 12.56 58.8 12.56C62.256 12.56 64.9013 13.5413 66.736 15.504C68.5707 17.4667 69.488 20.24 69.488 23.824V47.376C69.488 50.96 68.5707 53.7333 66.736 55.696C64.9013 57.6587 62.256 58.64 58.8 58.64ZM58.8 52.24C61.232 52.24 62.448 50.768 62.448 47.824V23.376C62.448 20.432 61.232 18.96 58.8 18.96C56.368 18.96 55.152 20.432 55.152 23.376V47.824C55.152 50.768 56.368 52.24 58.8 52.24ZM74.249 13.2H83.081L89.929 40.016H90.057V13.2H96.329V58H89.097L80.649 25.296H80.521V58H74.249V13.2ZM103.866 19.984H101.562V13.2H108.345V19.28L104.442 27.664H101.178L103.866 19.984ZM119.753 19.6H112.393V13.2H134.153V19.6H126.793V58H119.753V19.6ZM153.316 19.6H145.956V13.2H167.716V19.6H160.356V58H153.316V19.6ZM173.627 13.2H183.163L190.459 58H183.419L182.139 49.104V49.232H174.139L172.859 58H166.331L173.627 13.2ZM181.307 43.152L178.171 21.008H178.043L174.97 43.152H181.307ZM193.874 13.2H200.914V32.08L209.874 13.2H216.914L208.53 29.648L217.042 58H209.682L203.73 38.032L200.914 43.728V58H193.874V13.2ZM220.374 13.2H239.574V19.6H227.414V31.44H237.078V37.84H227.414V51.6H239.574V58H220.374V13.2ZM253.874 13.2H263.922L268.402 45.264H268.53L273.01 13.2H283.058V58H276.402V24.08H276.274L271.154 58H265.266L260.146 24.08H260.018V58H253.874V13.2ZM294.776 38.928L286.264 13.2H293.752L298.552 29.648H298.68L303.48 13.2H310.328L301.816 38.928V58H294.776V38.928ZM322.085 13.2H328.869L332.005 47.632H332.133L335.461 13.2H343.141L346.469 47.632H346.597L349.733 13.2H355.813L351.269 58H342.501L339.301 27.792H339.173L335.973 58H326.629L322.085 13.2ZM369.55 58.64C366.094 58.64 363.449 57.6587 361.614 55.696C359.779 53.7333 358.862 50.96 358.862 47.376V23.824C358.862 20.24 359.779 17.4667 361.614 15.504C363.449 13.5413 366.094 12.56 369.55 12.56C373.006 12.56 375.651 13.5413 377.486 15.504C379.321 17.4667 380.238 20.24 380.238 23.824V47.376C380.238 50.96 379.321 53.7333 377.486 55.696C375.651 57.6587 373.006 58.64 369.55 58.64ZM369.55 52.24C371.982 52.24 373.198 50.768 373.198 47.824V23.376C373.198 20.432 371.982 18.96 369.55 18.96C367.118 18.96 365.902 20.432 365.902 23.376V47.824C365.902 50.768 367.118 52.24 369.55 52.24ZM384.999 13.2H395.431C399.058 13.2 401.703 14.0533 403.367 15.76C405.031 17.424 405.863 20.0053 405.863 23.504V26.256C405.863 30.9067 404.327 33.8507 401.255 35.088V35.216C402.962 35.728 404.156 36.7733 404.839 38.352C405.564 39.9307 405.927 42.0427 405.927 44.688V52.56C405.927 53.84 405.97 54.8853 406.055 55.696C406.14 56.464 406.354 57.232 406.695 58H399.527C399.271 57.2747 399.1 56.592 399.015 55.952C398.93 55.312 398.887 54.16 398.887 52.496V44.304C398.887 42.256 398.546 40.8267 397.863 40.016C397.223 39.2053 396.092 38.8 394.471 38.8H392.039V58H384.999V13.2ZM394.599 32.4C396.007 32.4 397.052 32.0373 397.735 31.312C398.46 30.5867 398.823 29.3707 398.823 27.664V24.208C398.823 22.5867 398.524 21.4133 397.927 20.688C397.372 19.9627 396.476 19.6 395.239 19.6H392.039V32.4H394.599ZM410.812 13.2H421.564C425.062 13.2 427.686 14.1387 429.436 16.016C431.185 17.8933 432.06 20.6453 432.06 24.272V46.928C432.06 50.5547 431.185 53.3067 429.436 55.184C427.686 57.0613 425.062 58 421.564 58H410.812V13.2ZM421.436 51.6C422.588 51.6 423.462 51.2587 424.06 50.576C424.7 49.8933 425.02 48.784 425.02 47.248V23.952C425.02 22.416 424.7 21.3067 424.06 20.624C423.462 19.9413 422.588 19.6 421.436 19.6H417.852V51.6H421.436ZM447.062 13.2H465.686V19.6H454.102V32.08H463.19V38.48H454.102V58H447.062V13.2ZM479.238 58.64C475.782 58.64 473.136 57.6587 471.302 55.696C469.467 53.7333 468.549 50.96 468.549 47.376V23.824C468.549 20.24 469.467 17.4667 471.302 15.504C473.136 13.5413 475.782 12.56 479.238 12.56C482.694 12.56 485.339 13.5413 487.174 15.504C489.008 17.4667 489.926 20.24 489.926 23.824V47.376C489.926 50.96 489.008 53.7333 487.174 55.696C485.339 57.6587 482.694 58.64 479.238 58.64ZM479.238 52.24C481.67 52.24 482.885 50.768 482.885 47.824V23.376C482.885 20.432 481.67 18.96 479.238 18.96C476.806 18.96 475.59 20.432 475.59 23.376V47.824C475.59 50.768 476.806 52.24 479.238 52.24ZM494.687 13.2H505.119C508.745 13.2 511.391 14.0533 513.055 15.76C514.719 17.424 515.551 20.0053 515.551 23.504V26.256C515.551 30.9067 514.015 33.8507 510.943 35.088V35.216C512.649 35.728 513.844 36.7733 514.527 38.352C515.252 39.9307 515.615 42.0427 515.615 44.688V52.56C515.615 53.84 515.657 54.8853 515.743 55.696C515.828 56.464 516.041 57.232 516.383 58H509.215C508.959 57.2747 508.788 56.592 508.703 55.952C508.617 55.312 508.575 54.16 508.575 52.496V44.304C508.575 42.256 508.233 40.8267 507.551 40.016C506.911 39.2053 505.78 38.8 504.159 38.8H501.727V58H494.687V13.2ZM504.287 32.4C505.695 32.4 506.74 32.0373 507.423 31.312C508.148 30.5867 508.51 29.3707 508.51 27.664V24.208C508.51 22.5867 508.212 21.4133 507.615 20.688C507.06 19.9627 506.164 19.6 504.927 19.6H501.727V32.4H504.287ZM530.749 13.2H537.789V58H530.749V13.2ZM548.566 19.6H541.206V13.2H562.966V19.6H555.606V58H548.566V19.6Z" fill="black"/>
</svg>
