<svg width="591" height="80" viewBox="0 0 591 80" fill="none" xmlns="http://www.w3.org/2000/svg">
<path fill-rule="evenodd" clip-rule="evenodd" d="M12.6316 0C5.65537 0 0 5.65537 0 12.6316V67.3684C0 74.3448 5.65537 80 12.6316 80H67.3684C74.3448 80 80 74.3448 80 67.3684V12.6316C80 5.65537 74.3448 0 67.3684 0H12.6316ZM31.2452 59.7175C30.8476 61.0547 31.6095 62.4615 32.9469 62.8589C34.2843 63.2564 35.6907 62.4947 36.0883 61.1575L41.6362 42.4973L52.2484 53.1095L56.0189 56.88L72.4589 40.44L56.0189 24L52.2484 27.7705L64.9179 40.44L52.2484 53.1095L41.6362 42.4973L48.5432 19.2637C48.9406 17.9263 48.1789 16.5198 46.8417 16.1222C45.504 15.7246 44.0977 16.4864 43.7002 17.8238L37.7701 37.7701L27.7895 27.7895L24.0189 24.0189L7.57895 40.4589L24.0189 56.8989L27.7895 53.1284L15.12 40.4589L27.7895 27.7895L37.7701 37.7701L31.2452 59.7175Z" fill="black" fill-opacity="0.8"/>
<path d="M130.136 65.448C128.259 65.448 126.723 65.128 125.528 64.488C124.333 63.848 123.416 62.8667 122.776 61.544C122.136 60.1787 121.709 58.472 121.496 56.424C121.325 54.376 121.283 51.944 121.368 49.128L122.136 28.264L126.936 27.688L127.576 27.624L127.64 28.072C127.427 28.3707 127.235 28.6693 127.064 28.968C126.936 29.2667 126.829 29.7787 126.744 30.504L126.168 37.736L126.36 38.888L125.912 49.448C125.784 52.6907 125.869 55.208 126.168 57C126.467 58.7493 127 59.9653 127.768 60.648C128.536 61.288 129.56 61.608 130.84 61.608C132.248 61.608 133.485 61.3307 134.552 60.776C135.661 60.2213 136.813 59.5173 138.008 58.664L139.416 62.312C137.965 63.3787 136.472 64.168 134.936 64.68C133.4 65.192 131.8 65.448 130.136 65.448ZM115.48 35.752H136.536V39.528H115.48V35.752ZM160.408 65.64C158.275 65.64 156.333 65.32 154.584 64.68C152.835 63.9973 151.32 63.016 150.04 61.736C148.803 60.456 147.843 58.8773 147.16 57C146.477 55.08 146.136 52.904 146.136 50.472C146.136 47.9973 146.477 45.8 147.16 43.88C147.885 41.96 148.845 40.36 150.04 39.08C151.277 37.7573 152.707 36.7547 154.328 36.072C155.992 35.3893 157.741 35.048 159.576 35.048C161.24 35.048 162.797 35.3253 164.248 35.88C165.699 36.4347 166.957 37.288 168.024 38.44C169.091 39.5493 169.923 40.9787 170.52 42.728C171.16 44.4773 171.48 46.5467 171.48 48.936C171.48 49.2773 171.459 49.64 171.416 50.024C171.416 50.3653 171.395 50.7067 171.352 51.048H150.552C150.637 52.9253 150.957 54.568 151.512 55.976C152.067 57.3413 152.792 58.472 153.688 59.368C154.584 60.2213 155.608 60.8613 156.76 61.288C157.955 61.7147 159.213 61.928 160.536 61.928C161.56 61.928 162.52 61.8213 163.416 61.608C164.312 61.352 165.144 60.9893 165.912 60.52C166.723 60.008 167.448 59.3893 168.088 58.664L170.648 61.16C169.837 62.1413 168.899 62.9733 167.832 63.656C166.808 64.3387 165.677 64.8293 164.44 65.128C163.203 65.4693 161.859 65.64 160.408 65.64ZM150.744 47.464H166.808C166.808 46.0987 166.616 44.8827 166.232 43.816C165.891 42.7067 165.379 41.768 164.696 41C164.056 40.1893 163.267 39.592 162.328 39.208C161.432 38.7813 160.408 38.568 159.256 38.568C158.232 38.568 157.251 38.7387 156.312 39.08C155.416 39.4213 154.584 39.976 153.816 40.744C153.048 41.4693 152.387 42.3867 151.832 43.496C151.32 44.6053 150.957 45.928 150.744 47.464ZM193.24 65.704C191.107 65.704 189.144 65.32 187.352 64.552C185.56 63.784 184.003 62.7173 182.68 61.352C181.4 59.9867 180.397 58.3867 179.672 56.552C178.947 54.6747 178.584 52.6267 178.584 50.408C178.584 48.232 178.947 46.2267 179.672 44.392C180.397 42.5147 181.4 40.8933 182.68 39.528C184.003 38.1627 185.56 37.096 187.352 36.328C189.144 35.56 191.085 35.176 193.176 35.176C195.565 35.176 197.699 35.6667 199.576 36.648C201.496 37.5867 203.053 38.9093 204.248 40.616L201.368 43.432L200.92 43.88L200.6 43.56C200.6 43.2187 200.515 42.8987 200.344 42.6C200.216 42.3013 199.896 41.896 199.384 41.384C198.445 40.5307 197.443 39.9333 196.376 39.592C195.309 39.2507 194.072 39.08 192.664 39.08C191.427 39.08 190.253 39.336 189.144 39.848C188.035 40.36 187.032 41.1067 186.136 42.088C185.283 43.0267 184.6 44.1787 184.088 45.544C183.576 46.9093 183.32 48.424 183.32 50.088C183.32 51.752 183.576 53.288 184.088 54.696C184.6 56.0613 185.304 57.256 186.2 58.28C187.096 59.304 188.163 60.1147 189.4 60.712C190.68 61.2667 192.045 61.544 193.496 61.544C194.477 61.544 195.416 61.416 196.312 61.16C197.208 60.8613 198.061 60.456 198.872 59.944C199.683 59.3893 200.429 58.728 201.112 57.96L203.8 61.096C202.349 62.632 200.728 63.784 198.936 64.552C197.187 65.32 195.288 65.704 193.24 65.704ZM211.672 22.44H216.088H216.728V22.888C216.472 23.144 216.301 23.4213 216.216 23.72C216.173 24.0187 216.152 24.5307 216.152 25.256V40.936C216.92 39.7413 217.816 38.7173 218.84 37.864C219.907 36.968 221.016 36.2853 222.168 35.816C223.363 35.304 224.557 35.048 225.752 35.048C227.501 35.048 229.037 35.4533 230.36 36.264C231.725 37.0747 232.771 38.376 233.496 40.168C234.264 41.96 234.648 44.328 234.648 47.272V65H230.168V47.4C230.168 45.352 229.933 43.7307 229.464 42.536C228.995 41.2987 228.355 40.424 227.544 39.912C226.733 39.3573 225.816 39.08 224.792 39.08C224.024 39.08 223.235 39.208 222.424 39.464C221.613 39.72 220.824 40.104 220.056 40.616C219.331 41.128 218.669 41.768 218.072 42.536C217.475 43.2613 217.005 44.0933 216.664 45.032C216.323 45.9707 216.152 47.016 216.152 48.168V65H211.672V22.44ZM243.608 65V35.752H248.088V40.936C248.856 39.7413 249.752 38.7173 250.776 37.864C251.8 36.968 252.931 36.2853 254.168 35.816C255.405 35.304 256.685 35.048 258.008 35.048C259.629 35.048 261.08 35.4533 262.36 36.264C263.64 37.0747 264.664 38.376 265.432 40.168C266.2 41.96 266.584 44.328 266.584 47.272V65H262.104V47.4C262.104 45.352 261.869 43.7307 261.4 42.536C260.931 41.2987 260.291 40.424 259.48 39.912C258.669 39.3573 257.752 39.08 256.728 39.08C255.747 39.08 254.744 39.2933 253.72 39.72C252.739 40.1467 251.821 40.7653 250.968 41.576C250.115 42.344 249.411 43.2827 248.856 44.392C248.344 45.5013 248.088 46.76 248.088 48.168V65H243.608ZM277.4 65V61.288H284.888V39.464H277.784V35.752H289.496V61.288H296.344V65H277.4ZM286.936 29.608C286.04 29.608 285.272 29.288 284.632 28.648C283.992 28.008 283.672 27.24 283.672 26.344C283.672 25.4053 283.971 24.616 284.568 23.976C285.208 23.336 285.997 23.016 286.936 23.016C287.832 23.016 288.6 23.3573 289.24 24.04C289.923 24.68 290.264 25.448 290.264 26.344C290.264 27.24 289.923 28.008 289.24 28.648C288.6 29.288 287.832 29.608 286.936 29.608ZM321.24 65.704C319.107 65.704 317.144 65.32 315.352 64.552C313.56 63.784 312.003 62.7173 310.68 61.352C309.4 59.9867 308.397 58.3867 307.672 56.552C306.947 54.6747 306.584 52.6267 306.584 50.408C306.584 48.232 306.947 46.2267 307.672 44.392C308.397 42.5147 309.4 40.8933 310.68 39.528C312.003 38.1627 313.56 37.096 315.352 36.328C317.144 35.56 319.085 35.176 321.176 35.176C323.565 35.176 325.699 35.6667 327.576 36.648C329.496 37.5867 331.053 38.9093 332.248 40.616L329.368 43.432L328.92 43.88L328.6 43.56C328.6 43.2187 328.515 42.8987 328.344 42.6C328.216 42.3013 327.896 41.896 327.384 41.384C326.445 40.5307 325.443 39.9333 324.376 39.592C323.309 39.2507 322.072 39.08 320.664 39.08C319.427 39.08 318.253 39.336 317.144 39.848C316.035 40.36 315.032 41.1067 314.136 42.088C313.283 43.0267 312.6 44.1787 312.088 45.544C311.576 46.9093 311.32 48.424 311.32 50.088C311.32 51.752 311.576 53.288 312.088 54.696C312.6 56.0613 313.304 57.256 314.2 58.28C315.096 59.304 316.163 60.1147 317.4 60.712C318.68 61.2667 320.045 61.544 321.496 61.544C322.477 61.544 323.416 61.416 324.312 61.16C325.208 60.8613 326.061 60.456 326.872 59.944C327.683 59.3893 328.429 58.728 329.112 57.96L331.8 61.096C330.349 62.632 328.728 63.784 326.936 64.552C325.187 65.32 323.288 65.704 321.24 65.704ZM348.504 65.704C345.176 65.704 342.616 64.9573 340.824 63.464C339.032 61.928 338.136 59.9867 338.136 57.64C338.136 56.0613 338.52 54.6533 339.288 53.416C340.056 52.136 341.101 51.0693 342.424 50.216C343.789 49.32 345.368 48.6373 347.16 48.168C348.952 47.6987 350.851 47.464 352.856 47.464C353.581 47.464 354.307 47.4853 355.032 47.528C355.8 47.528 356.589 47.5707 357.4 47.656C358.253 47.6987 359.128 47.784 360.024 47.912L360.152 51.432C359.384 51.304 358.595 51.2187 357.784 51.176C357.016 51.0907 356.248 51.0267 355.48 50.984C354.712 50.9413 353.965 50.92 353.24 50.92C351.704 50.92 350.296 51.048 349.016 51.304C347.736 51.56 346.627 51.944 345.688 52.456C344.749 52.968 344.024 53.6293 343.512 54.44C343 55.2507 342.744 56.232 342.744 57.384C342.744 58.28 342.893 59.048 343.192 59.688C343.533 60.2853 343.981 60.776 344.536 61.16C345.091 61.5013 345.731 61.7573 346.456 61.928C347.224 62.0987 348.056 62.184 348.952 62.184C350.616 62.184 352.088 61.928 353.368 61.416C354.691 60.8613 355.8 60.072 356.696 59.048C357.635 58.024 358.339 56.7653 358.808 55.272C359.277 53.7787 359.512 52.072 359.512 50.152C359.512 47.2507 359.171 44.9893 358.488 43.368C357.805 41.7467 356.781 40.5947 355.416 39.912C354.093 39.2293 352.387 38.888 350.296 38.888C348.888 38.888 347.501 39.1653 346.136 39.72C344.771 40.232 343.533 41.0427 342.424 42.152L340.184 39.208C341.549 37.8427 343.128 36.8187 344.92 36.136C346.712 35.4533 348.611 35.112 350.616 35.112C352.536 35.112 354.285 35.3467 355.864 35.816C357.443 36.2853 358.787 37.0747 359.896 38.184C361.048 39.2507 361.923 40.7013 362.52 42.536C363.16 44.3707 363.48 46.6747 363.48 49.448V65H358.488V60.52C357.933 61.5867 357.251 62.4613 356.44 63.144C355.672 63.8267 354.84 64.36 353.944 64.744C353.048 65.0853 352.131 65.32 351.192 65.448C350.253 65.6187 349.357 65.704 348.504 65.704ZM372.056 65V61.288H380.696V26.152H372.44V22.44H385.368V61.288H393.944V65H372.056ZM450.136 65.448C448.259 65.448 446.723 65.128 445.528 64.488C444.333 63.848 443.416 62.8667 442.776 61.544C442.136 60.1787 441.709 58.472 441.496 56.424C441.325 54.376 441.283 51.944 441.368 49.128L442.136 28.264L446.936 27.688L447.576 27.624L447.64 28.072C447.427 28.3707 447.235 28.6693 447.064 28.968C446.936 29.2667 446.829 29.7787 446.744 30.504L446.168 37.736L446.36 38.888L445.912 49.448C445.784 52.6907 445.869 55.208 446.168 57C446.467 58.7493 447 59.9653 447.768 60.648C448.536 61.288 449.56 61.608 450.84 61.608C452.248 61.608 453.485 61.3307 454.552 60.776C455.661 60.2213 456.813 59.5173 458.008 58.664L459.416 62.312C457.965 63.3787 456.472 64.168 454.936 64.68C453.4 65.192 451.8 65.448 450.136 65.448ZM435.48 35.752H456.536V39.528H435.48V35.752ZM479 65.512C476.355 65.512 474.008 64.872 471.96 63.592C469.955 62.2693 468.376 60.4773 467.224 58.216C466.072 55.912 465.496 53.288 465.496 50.344C465.496 47.3573 466.072 44.7333 467.224 42.472C468.376 40.168 469.955 38.376 471.96 37.096C474.008 35.7733 476.355 35.112 479 35.112C481.645 35.112 483.971 35.7733 485.976 37.096C488.024 38.376 489.624 40.168 490.776 42.472C491.928 44.7333 492.504 47.3573 492.504 50.344C492.504 53.288 491.928 55.912 490.776 58.216C489.624 60.4773 488.024 62.2693 485.976 63.592C483.971 64.872 481.645 65.512 479 65.512ZM479 61.672C480.707 61.672 482.2 61.1813 483.48 60.2C484.76 59.2187 485.763 57.8747 486.488 56.168C487.256 54.4613 487.64 52.4987 487.64 50.28C487.64 48.0613 487.256 46.0987 486.488 44.392C485.763 42.6853 484.76 41.3627 483.48 40.424C482.2 39.4427 480.707 38.952 479 38.952C477.336 38.952 475.843 39.4427 474.52 40.424C473.24 41.3627 472.216 42.6853 471.448 44.392C470.723 46.0987 470.36 48.0613 470.36 50.28C470.36 52.4987 470.723 54.4613 471.448 56.168C472.216 57.8747 473.24 59.2187 474.52 60.2C475.843 61.1813 477.336 61.672 479 61.672ZM511 65.512C508.355 65.512 506.008 64.872 503.96 63.592C501.955 62.2693 500.376 60.4773 499.224 58.216C498.072 55.912 497.496 53.288 497.496 50.344C497.496 47.3573 498.072 44.7333 499.224 42.472C500.376 40.168 501.955 38.376 503.96 37.096C506.008 35.7733 508.355 35.112 511 35.112C513.645 35.112 515.971 35.7733 517.976 37.096C520.024 38.376 521.624 40.168 522.776 42.472C523.928 44.7333 524.504 47.3573 524.504 50.344C524.504 53.288 523.928 55.912 522.776 58.216C521.624 60.4773 520.024 62.2693 517.976 63.592C515.971 64.872 513.645 65.512 511 65.512ZM511 61.672C512.707 61.672 514.2 61.1813 515.48 60.2C516.76 59.2187 517.763 57.8747 518.488 56.168C519.256 54.4613 519.64 52.4987 519.64 50.28C519.64 48.0613 519.256 46.0987 518.488 44.392C517.763 42.6853 516.76 41.3627 515.48 40.424C514.2 39.4427 512.707 38.952 511 38.952C509.336 38.952 507.843 39.4427 506.52 40.424C505.24 41.3627 504.216 42.6853 503.448 44.392C502.723 46.0987 502.36 48.0613 502.36 50.28C502.36 52.4987 502.723 54.4613 503.448 56.168C504.216 57.8747 505.24 59.2187 506.52 60.2C507.843 61.1813 509.336 61.672 511 61.672ZM532.056 65V61.288H540.696V26.152H532.44V22.44H545.368V61.288H553.944V65H532.056ZM575.064 65.64C573.443 65.64 571.885 65.4693 570.392 65.128C568.941 64.7867 567.555 64.2747 566.232 63.592C564.952 62.9093 563.757 62.056 562.648 61.032L565.208 56.68L565.592 56.104L565.976 56.36C566.061 56.7013 566.147 57.064 566.232 57.448C566.36 57.7893 566.659 58.216 567.128 58.728C568.024 59.624 569.091 60.3707 570.328 60.968C571.608 61.5227 573.229 61.8 575.192 61.8C576.771 61.8 578.093 61.608 579.16 61.224C580.269 60.84 581.123 60.3067 581.72 59.624C582.317 58.8987 582.616 58.0667 582.616 57.128C582.616 56.488 582.488 55.9333 582.232 55.464C581.976 54.952 581.549 54.4827 580.952 54.056C580.397 53.6293 579.651 53.2027 578.712 52.776C577.773 52.3493 576.621 51.9227 575.256 51.496C573.037 50.856 571.096 50.1093 569.432 49.256C567.768 48.4027 566.488 47.4213 565.592 46.312C564.696 45.16 564.248 43.8587 564.248 42.408C564.248 40.9147 564.653 39.6347 565.464 38.568C566.275 37.4587 567.469 36.6053 569.048 36.008C570.669 35.368 572.653 35.048 575 35.048C576.365 35.048 577.603 35.1547 578.712 35.368C579.821 35.5387 580.845 35.816 581.784 36.2C582.723 36.584 583.576 37.0747 584.344 37.672C585.155 38.2267 585.923 38.888 586.648 39.656L584.024 42.856L583.576 43.368L583.256 43.048C583.213 42.7067 583.107 42.3867 582.936 42.088C582.808 41.7467 582.509 41.3413 582.04 40.872C581.059 40.104 579.949 39.528 578.712 39.144C577.475 38.7173 576.28 38.504 575.128 38.504C573.421 38.504 571.949 38.8027 570.712 39.4C569.475 39.9973 568.856 40.9147 568.856 42.152C568.856 42.792 569.069 43.432 569.496 44.072C569.965 44.6693 570.797 45.288 571.992 45.928C573.187 46.5253 574.893 47.144 577.112 47.784C579.544 48.552 581.485 49.3413 582.936 50.152C584.429 50.92 585.496 51.816 586.136 52.84C586.819 53.864 587.16 55.08 587.16 56.488C587.16 58.1093 586.712 59.624 585.816 61.032C584.963 62.44 583.64 63.5707 581.848 64.424C580.056 65.2347 577.795 65.64 575.064 65.64Z" fill="black"/>
</svg>
