<svg width="62" height="45" viewBox="0 0 62 45" fill="none" xmlns="http://www.w3.org/2000/svg">
<circle cx="15.8886" cy="15.3515" r="13.7353" fill="#CCCCCC"/>
<path fill-rule="evenodd" clip-rule="evenodd" d="M29.0753 11.6982C25.7721 14.789 21.6733 17.2587 17.0525 18.8756C17.1727 19.929 17.2345 21.0002 17.2345 22.0859C17.2345 31.5587 12.532 39.9331 5.33398 45.0021C19.0444 43.1827 29.6231 31.4456 29.6231 17.2378C29.6231 15.3414 29.4346 13.4889 29.0753 11.6982Z" fill="#CCCCCC"/>
<circle cx="47.6689" cy="15.3515" r="13.7353" fill="#CCCCCC"/>
<path fill-rule="evenodd" clip-rule="evenodd" d="M60.8557 11.6982C57.5523 14.7888 53.4535 17.2583 48.8328 18.875C48.953 19.9286 49.0148 20.9999 49.0148 22.0856C49.0148 31.5584 44.3122 39.9329 37.1143 45.0019C50.8247 43.1824 61.4033 31.4454 61.4033 17.2376C61.4033 15.3412 61.2149 13.4889 60.8557 11.6982Z" fill="#CCCCCC"/>
<circle cx="13.7353" cy="13.7353" r="13.7353" fill="#BDBDBD"/>
<path fill-rule="evenodd" clip-rule="evenodd" d="M26.9231 10.0811C23.6198 13.1718 19.521 15.6413 14.9002 17.2582C15.0204 18.3116 15.0822 19.3827 15.0822 20.4683C15.0822 29.9411 10.3796 38.3156 3.18164 43.3846C16.8921 41.5651 27.4707 29.8281 27.4707 15.6203C27.4707 13.724 27.2823 11.8716 26.9231 10.0811Z" fill="#BDBDBD"/>
<circle cx="45.5146" cy="13.7353" r="13.7353" fill="#BDBDBD"/>
<path fill-rule="evenodd" clip-rule="evenodd" d="M58.7015 10.0811C55.3983 13.1718 51.2995 15.6415 46.6788 17.2584C46.799 18.3118 46.8607 19.3829 46.8607 20.4684C46.8607 29.9417 42.1576 38.3166 34.959 43.3855C48.67 41.5666 59.2493 29.8293 59.2493 15.6211C59.2493 13.7245 59.0608 11.8719 58.7015 10.0811Z" fill="#BDBDBD"/>
</svg>
