<svg width="153" height="77" viewBox="0 0 153 77" fill="none" xmlns="http://www.w3.org/2000/svg">
<rect y="13" width="14" height="45" fill="#FF3E78"/>
<path d="M33.776 58.64C30.3627 58.64 27.7813 57.68 26.032 55.76C24.2827 53.7973 23.408 51.0027 23.408 47.376V44.816H30.064V47.888C30.064 50.7893 31.28 52.24 33.712 52.24C34.9067 52.24 35.8027 51.8987 36.4 51.216C37.04 50.4907 37.36 49.3387 37.36 47.76C37.36 45.8827 36.9333 44.24 36.08 42.832C35.2267 41.3813 33.648 39.6533 31.344 37.648C28.4427 35.088 26.416 32.784 25.264 30.736C24.112 28.6453 23.536 26.2987 23.536 23.696C23.536 20.1547 24.432 17.424 26.224 15.504C28.016 13.5413 30.6187 12.56 34.032 12.56C37.4027 12.56 39.9413 13.5413 41.648 15.504C43.3973 17.424 44.272 20.1973 44.272 23.824V25.68H37.616V23.376C37.616 21.84 37.3173 20.7307 36.72 20.048C36.1227 19.3227 35.248 18.96 34.096 18.96C31.7493 18.96 30.576 20.3893 30.576 23.248C30.576 24.8693 31.0027 26.384 31.856 27.792C32.752 29.2 34.352 30.9067 36.656 32.912C39.6 35.472 41.6267 37.7973 42.736 39.888C43.8453 41.9787 44.4 44.432 44.4 47.248C44.4 50.9173 43.4827 53.7333 41.648 55.696C39.856 57.6587 37.232 58.64 33.776 58.64ZM48.4365 13.2H55.4765V32.08L64.4365 13.2H71.4765L63.0925 29.648L71.6045 58H64.2445L58.2925 38.032L55.4765 43.728V58H48.4365V13.2ZM74.9365 13.2H81.9765V58H74.9365V13.2ZM87.249 13.2H94.289V51.6H105.873V58H87.249V13.2ZM109.249 13.2H116.289V51.6H127.873V58H109.249V13.2ZM140.401 58.64C136.988 58.64 134.406 57.68 132.657 55.76C130.908 53.7973 130.033 51.0027 130.033 47.376V44.816H136.689V47.888C136.689 50.7893 137.905 52.24 140.337 52.24C141.532 52.24 142.428 51.8987 143.025 51.216C143.665 50.4907 143.985 49.3387 143.985 47.76C143.985 45.8827 143.558 44.24 142.705 42.832C141.852 41.3813 140.273 39.6533 137.969 37.648C135.068 35.088 133.041 32.784 131.889 30.736C130.737 28.6453 130.161 26.2987 130.161 23.696C130.161 20.1547 131.057 17.424 132.849 15.504C134.641 13.5413 137.244 12.56 140.657 12.56C144.028 12.56 146.566 13.5413 148.273 15.504C150.022 17.424 150.897 20.1973 150.897 23.824V25.68H144.241V23.376C144.241 21.84 143.942 20.7307 143.345 20.048C142.748 19.3227 141.873 18.96 140.721 18.96C138.374 18.96 137.201 20.3893 137.201 23.248C137.201 24.8693 137.628 26.384 138.481 27.792C139.377 29.2 140.977 30.9067 143.281 32.912C146.225 35.472 148.252 37.7973 149.361 39.888C150.47 41.9787 151.025 44.432 151.025 47.248C151.025 50.9173 150.108 53.7333 148.273 55.696C146.481 57.6587 143.857 58.64 140.401 58.64Z" fill="black"/>
</svg>
