<svg width="500" height="500" viewBox="0 0 500 500" fill="none" xmlns="http://www.w3.org/2000/svg">
<g clip-path="url(#clip0_1_2)">
<path d="M246.98 493.989L248.037 493.998C248.096 494.303 248.203 494.571 248.358 494.802C248.509 495.033 248.695 495.228 248.915 495.386C249.132 495.547 249.374 495.669 249.641 495.751C249.907 495.833 250.185 495.875 250.475 495.877C251.003 495.882 251.483 495.753 251.914 495.489C252.343 495.226 252.686 494.836 252.943 494.318C253.198 493.8 253.328 493.164 253.335 492.408C253.341 491.652 253.222 491.013 252.977 490.491C252.728 489.969 252.392 489.573 251.968 489.302C251.542 489.031 251.064 488.894 250.536 488.889C250.246 488.886 249.967 488.924 249.7 489.001C249.432 489.078 249.188 489.194 248.968 489.348C248.745 489.505 248.556 489.698 248.4 489.927C248.242 490.159 248.13 490.425 248.065 490.725L247.008 490.716C247.092 490.271 247.24 489.873 247.454 489.523C247.667 489.172 247.931 488.875 248.245 488.63C248.56 488.389 248.913 488.206 249.303 488.081C249.69 487.957 250.104 487.897 250.545 487.9C251.289 487.907 251.949 488.095 252.526 488.463C253.102 488.832 253.553 489.353 253.88 490.026C254.206 490.7 254.366 491.496 254.357 492.417C254.349 493.337 254.176 494.131 253.838 494.799C253.5 495.466 253.039 495.979 252.457 496.338C251.874 496.696 251.21 496.872 250.466 496.866C250.026 496.862 249.613 496.795 249.228 496.663C248.84 496.532 248.491 496.342 248.18 496.092C247.87 495.845 247.611 495.544 247.404 495.19C247.197 494.839 247.055 494.438 246.98 493.989Z" fill="white"/>
<path d="M229.708 495.898L230.443 487.202L231.445 487.286L230.71 495.983L229.708 495.898Z" fill="white"/>
<path d="M218.454 485.911L217.546 492.393L216.55 492.254L217.458 485.772L218.454 485.911ZM216.888 493.403C217.082 493.43 217.24 493.52 217.363 493.671C217.482 493.823 217.529 493.992 217.503 494.177C217.477 494.363 217.385 494.512 217.229 494.625C217.07 494.738 216.893 494.78 216.699 494.753C216.505 494.726 216.348 494.637 216.229 494.485C216.107 494.333 216.059 494.164 216.085 493.979C216.111 493.793 216.203 493.644 216.362 493.531C216.519 493.418 216.694 493.376 216.888 493.403Z" fill="white"/>
<path d="M202.911 483.171C203.511 483.298 203.998 483.549 204.372 483.924C204.746 484.299 204.997 484.759 205.126 485.306C205.255 485.853 205.252 486.446 205.117 487.086C204.98 487.736 204.739 488.285 204.395 488.732C204.048 489.181 203.629 489.501 203.139 489.691C202.646 489.883 202.11 489.918 201.532 489.796C201.081 489.701 200.693 489.532 200.367 489.29C200.041 489.047 199.794 488.751 199.626 488.402C199.459 488.053 199.39 487.672 199.418 487.26L200.402 487.468C200.416 487.776 200.528 488.069 200.739 488.349C200.947 488.631 201.268 488.817 201.701 488.909C202.085 488.99 202.442 488.961 202.774 488.821C203.102 488.684 203.384 488.452 203.622 488.125C203.856 487.8 204.024 487.395 204.126 486.911C204.23 486.417 204.243 485.969 204.165 485.57C204.084 485.169 203.921 484.837 203.678 484.574C203.431 484.31 203.114 484.137 202.724 484.055C202.469 484.001 202.227 483.997 202 484.042C201.773 484.087 201.569 484.178 201.39 484.314C201.21 484.45 201.065 484.629 200.954 484.849L199.97 484.642C200.106 484.276 200.315 483.964 200.599 483.707C200.879 483.453 201.217 483.274 201.613 483.172C202.006 483.072 202.438 483.072 202.911 483.171Z" fill="white"/>
<path d="M184.821 481.418L184.481 482.615L184.285 482.557L180.707 484.53L179.515 484.175L183.321 482.091L183.403 482.115L184.821 481.418ZM186.402 479.4L183.905 487.762L182.941 487.474L185.438 479.112L186.402 479.4ZM182.416 478.21L183.94 482.045L183.054 482.509L181.191 477.844L182.416 478.21Z" fill="white"/>
<path d="M152.437 466.939C152.813 467.114 153.122 467.343 153.363 467.627C153.602 467.914 153.75 468.234 153.805 468.588C153.858 468.945 153.796 469.317 153.616 469.703C153.459 470.044 153.264 470.288 153.032 470.437C152.798 470.589 152.542 470.674 152.261 470.691C151.981 470.708 151.692 470.683 151.393 470.617C151.092 470.552 150.794 470.474 150.502 470.382C150.12 470.261 149.811 470.16 149.576 470.08C149.337 470 149.153 469.966 149.022 469.978C148.889 469.988 148.788 470.067 148.72 470.214L148.706 470.244C148.529 470.626 148.496 470.971 148.606 471.279C148.715 471.586 148.979 471.837 149.399 472.031C149.834 472.233 150.22 472.296 150.556 472.221C150.892 472.145 151.16 472.022 151.361 471.852L152.084 472.563C151.762 472.852 151.425 473.037 151.074 473.118C150.72 473.201 150.37 473.212 150.027 473.149C149.679 473.088 149.356 472.989 149.057 472.85C148.866 472.761 148.658 472.637 148.432 472.476C148.202 472.316 148.004 472.113 147.836 471.866C147.666 471.618 147.569 471.318 147.545 470.965C147.52 470.612 147.618 470.2 147.836 469.729L149.651 465.816L150.563 466.239L150.19 467.044L150.237 467.065C150.358 466.965 150.525 466.875 150.738 466.795C150.95 466.715 151.2 466.679 151.488 466.687C151.775 466.695 152.091 466.779 152.437 466.939ZM151.918 467.694C151.557 467.527 151.22 467.457 150.907 467.484C150.591 467.51 150.318 467.605 150.088 467.771C149.855 467.935 149.681 468.141 149.566 468.389L149.179 469.224C149.239 469.195 149.344 469.192 149.493 469.215C149.639 469.238 149.803 469.275 149.987 469.326C150.166 469.378 150.34 469.431 150.51 469.484C150.675 469.539 150.81 469.583 150.914 469.615C151.165 469.694 151.41 469.747 151.649 469.773C151.884 469.8 152.096 469.775 152.285 469.697C152.471 469.62 152.618 469.466 152.725 469.234C152.872 468.917 152.866 468.623 152.707 468.352C152.544 468.082 152.281 467.863 151.918 467.694Z" fill="white"/>
<path d="M133.672 462.188L135.628 458.771L136.501 459.271L133.249 464.951L132.405 464.468L132.914 463.581L132.84 463.538C132.541 463.751 132.206 463.867 131.835 463.886C131.462 463.909 131.061 463.797 130.632 463.551C130.248 463.331 129.956 463.059 129.758 462.737C129.559 462.416 129.47 462.051 129.492 461.641C129.512 461.234 129.661 460.789 129.938 460.305L132.004 456.696L132.877 457.196L130.844 460.746C130.589 461.192 130.505 461.606 130.595 461.988C130.682 462.372 130.928 462.68 131.333 462.911C131.611 463.071 131.895 463.153 132.184 463.158C132.47 463.161 132.742 463.083 133 462.923C133.259 462.764 133.483 462.519 133.672 462.188Z" fill="white"/>
<path d="M116.361 446.801C116.808 447.113 117.124 447.501 117.309 447.966C117.492 448.434 117.536 448.942 117.44 449.492C117.342 450.044 117.095 450.604 116.699 451.172C116.305 451.736 115.867 452.158 115.384 452.438C114.902 452.718 114.409 452.85 113.906 452.836C113.404 452.821 112.927 452.656 112.475 452.341C112.125 452.097 111.89 451.846 111.768 451.588C111.643 451.331 111.578 451.091 111.573 450.87C111.565 450.649 111.562 450.471 111.567 450.335L111.497 450.286L109.653 452.928L108.829 452.353L113.823 445.196L114.62 445.752L114.044 446.577L114.142 446.645C114.271 446.589 114.443 446.526 114.659 446.455C114.873 446.386 115.125 446.366 115.413 446.394C115.7 446.425 116.016 446.56 116.361 446.801ZM115.732 447.464C115.401 447.233 115.062 447.124 114.713 447.137C114.363 447.152 114.021 447.272 113.688 447.497C113.353 447.724 113.044 448.04 112.761 448.445C112.481 448.846 112.295 449.237 112.202 449.619C112.107 450.003 112.115 450.359 112.226 450.686C112.336 451.016 112.558 451.297 112.894 451.531C113.243 451.775 113.597 451.889 113.955 451.872C114.309 451.856 114.651 451.736 114.981 451.512C115.306 451.289 115.601 450.988 115.864 450.611C116.131 450.229 116.315 449.841 116.416 449.448C116.513 449.055 116.511 448.686 116.409 448.341C116.303 447.997 116.077 447.704 115.732 447.464Z" fill="white"/>
<path d="M87.9137 424.312L89.8591 426.174L83.8236 432.478L81.7921 430.533C81.1806 429.947 80.7782 429.32 80.5848 428.651C80.3894 427.984 80.4008 427.305 80.6188 426.613C80.8349 425.923 81.2553 425.252 81.8801 424.599C82.5087 423.943 83.167 423.489 83.8547 423.239C84.5406 422.991 85.2289 422.954 85.9199 423.128C86.6089 423.304 87.2735 423.699 87.9137 424.312ZM88.4474 426.12L87.3147 425.036C86.7934 424.537 86.2652 424.224 85.73 424.097C85.1948 423.97 84.6652 424.011 84.1413 424.222C83.6175 424.432 83.11 424.794 82.6188 425.307C82.1315 425.816 81.7952 426.333 81.6097 426.86C81.4223 427.388 81.3995 427.909 81.5413 428.423C81.6811 428.938 81.9972 429.431 82.4897 429.903L83.7086 431.07L88.4474 426.12Z" fill="white"/>
<path d="M73.8813 410.111L68.9811 414.45L68.337 413.723L69.0771 413.067L69.0319 413.016C68.7104 413.142 68.3705 413.154 68.0123 413.054C67.6541 412.954 67.3451 412.757 67.0851 412.463C67.0362 412.408 66.976 412.338 66.9047 412.253C66.8334 412.168 66.781 412.103 66.7476 412.057L67.5132 411.378C67.5295 411.41 67.5717 411.477 67.6399 411.579C67.7041 411.682 67.7805 411.783 67.869 411.883C68.08 412.121 68.3183 412.29 68.584 412.388C68.8457 412.487 69.1118 412.513 69.3822 412.467C69.6487 412.421 69.8925 412.3 70.1137 412.104L73.2146 409.358L73.8813 410.111Z" fill="white"/>
<path d="M62.2353 396.02C62.4861 396.351 62.6515 396.698 62.7314 397.061C62.8091 397.427 62.7893 397.779 62.6719 398.118C62.5523 398.458 62.3228 398.757 61.9834 399.015C61.6847 399.242 61.3979 399.367 61.123 399.39C60.8459 399.415 60.5794 399.369 60.3236 399.253C60.0678 399.137 59.8237 398.98 59.5913 398.782C59.355 398.583 59.129 398.375 58.9136 398.157C58.6324 397.871 58.4068 397.637 58.237 397.456C58.0633 397.274 57.916 397.157 57.7952 397.106C57.6728 397.053 57.547 397.075 57.4181 397.173L57.3909 397.194C57.056 397.448 56.8654 397.737 56.8189 398.061C56.7708 398.383 56.8867 398.729 57.1667 399.097C57.457 399.48 57.7683 399.716 58.1007 399.806C58.433 399.896 58.7277 399.913 58.9848 399.857L59.2904 400.824C58.8705 400.928 58.4865 400.935 58.1382 400.842C57.786 400.75 57.4726 400.595 57.198 400.379C56.9195 400.163 56.6806 399.923 56.4813 399.661C56.3542 399.493 56.2286 399.285 56.1044 399.037C55.9763 398.788 55.896 398.516 55.8636 398.219C55.8295 397.921 55.8842 397.61 56.0278 397.287C56.1714 396.964 56.4502 396.645 56.8643 396.331L60.2992 393.723L60.9073 394.525L60.2013 395.06L60.2322 395.101C60.3866 395.07 60.5764 395.068 60.8015 395.097C61.0267 395.126 61.2644 395.211 61.5147 395.353C61.7649 395.495 62.0051 395.717 62.2353 396.02ZM61.423 396.444C61.1825 396.127 60.9176 395.908 60.6282 395.785C60.3372 395.66 60.0511 395.617 59.7701 395.655C59.4873 395.692 59.2374 395.792 59.0201 395.957L58.287 396.514C58.3535 396.517 58.4475 396.563 58.569 396.653C58.6866 396.742 58.8145 396.851 58.9528 396.982C59.087 397.112 59.2165 397.24 59.3411 397.367C59.4617 397.493 59.5603 397.594 59.6369 397.672C59.8221 397.859 60.0139 398.02 60.2124 398.155C60.407 398.289 60.6063 398.366 60.8104 398.386C61.0105 398.405 61.2124 398.338 61.416 398.183C61.6944 397.972 61.8266 397.709 61.8129 397.395C61.7951 397.08 61.6652 396.763 61.423 396.444Z" fill="white"/>
<path d="M52.5235 378.166C52.7829 378.576 52.9532 378.963 53.0342 379.325C53.1175 379.686 53.1362 380.018 53.0901 380.323C53.0449 380.624 52.9627 380.892 52.8434 381.129L51.9399 380.752C51.9922 380.612 52.046 380.442 52.1014 380.242C52.1591 380.041 52.1715 379.808 52.1386 379.543C52.1066 379.274 51.9851 378.973 51.7741 378.639C51.4919 378.192 51.1509 377.892 50.7511 377.738C50.3513 377.584 49.9209 377.653 49.4598 377.944L48.3358 378.654L48.3813 378.726C48.5216 378.725 48.7027 378.735 48.9244 378.756C49.1423 378.776 49.3763 378.857 49.6267 378.998C49.8731 379.138 50.1101 379.388 50.3377 379.748C50.62 380.195 50.7677 380.663 50.781 381.152C50.7927 381.638 50.6621 382.112 50.3891 382.574C50.1146 383.033 49.6892 383.445 49.1128 383.809C48.546 384.167 47.9895 384.379 47.4432 384.445C46.8946 384.513 46.3927 384.442 45.9376 384.232C45.48 384.024 45.104 383.687 44.8096 383.221C44.582 382.861 44.4615 382.537 44.448 382.25C44.4306 381.962 44.4619 381.714 44.5419 381.505C44.618 381.296 44.6843 381.129 44.7409 381.006L44.6863 380.92L43.8073 381.475L43.2883 380.654L48.9802 377.057C49.4557 376.757 49.9107 376.621 50.3451 376.649C50.7803 376.673 51.1822 376.822 51.5506 377.097C51.92 377.367 52.2442 377.724 52.5235 378.166ZM49.5012 380.116C49.2857 379.775 49.0255 379.536 48.7207 379.399C48.4159 379.262 48.0783 379.225 47.7079 379.288C47.3375 379.351 46.9481 379.511 46.5399 379.769C46.1412 380.021 45.8273 380.303 45.5982 380.616C45.369 380.929 45.2423 381.257 45.2181 381.602C45.1939 381.947 45.2911 382.292 45.5096 382.638C45.7373 382.998 46.0182 383.241 46.3525 383.365C46.6852 383.488 47.0433 383.512 47.4265 383.438C47.8083 383.361 48.1865 383.205 48.5612 382.968C48.9455 382.725 49.2473 382.45 49.4669 382.144C49.6825 381.836 49.7992 381.51 49.8171 381.166C49.8311 380.821 49.7258 380.471 49.5012 380.116Z" fill="white"/>
<path d="M27.107 350.584L27.8842 350.234L29.2762 353.327L28.4989 353.677L27.107 350.584ZM26.6632 353.419L26.2505 352.502L31.9397 349.942C32.1988 349.825 32.3762 349.7 32.4719 349.567C32.5639 349.432 32.6051 349.295 32.5955 349.156C32.5822 349.016 32.5452 348.878 32.4846 348.743C32.4391 348.642 32.3966 348.562 32.3571 348.502C32.315 348.443 32.2813 348.396 32.2561 348.36L32.996 347.803C33.0473 347.855 33.1096 347.931 33.1831 348.032C33.2591 348.132 33.3356 348.267 33.4126 348.438C33.5291 348.697 33.5877 348.976 33.5882 349.275C33.5875 349.571 33.5099 349.852 33.3554 350.118C33.1997 350.381 32.9483 350.591 32.6011 350.747L26.6632 353.419Z" fill="white"/>
<path d="M27.0367 332.882C27.2359 333.438 27.2783 333.974 27.164 334.488C27.0486 335 26.795 335.459 26.4033 335.865C26.0105 336.268 25.4959 336.584 24.8593 336.812C24.2174 337.042 23.6155 337.126 23.0534 337.065C22.4903 337.001 22.0017 336.808 21.5875 336.485C21.1723 336.16 20.8651 335.72 20.6659 335.163C20.4667 334.607 20.4247 334.073 20.5401 333.561C20.6545 333.046 20.9094 332.587 21.3048 332.183C21.6992 331.776 22.2174 331.457 22.8593 331.227C23.4958 330.999 24.0943 330.918 24.6547 330.983C25.2141 331.045 25.7014 331.239 26.1165 331.564C26.5307 331.886 26.8375 332.325 27.0367 332.882ZM26.1862 333.186C26.0348 332.764 25.802 332.455 25.4877 332.26C25.1733 332.064 24.8162 331.965 24.4162 331.96C24.0162 331.955 23.6103 332.027 23.1984 332.174C22.7865 332.322 22.4262 332.525 22.1174 332.783C21.8086 333.042 21.5934 333.347 21.4718 333.698C21.3502 334.049 21.3651 334.436 21.5164 334.859C21.6677 335.281 21.9019 335.59 22.2189 335.784C22.536 335.978 22.8958 336.077 23.2984 336.081C23.7011 336.085 24.1084 336.013 24.5202 335.865C24.9321 335.718 25.2911 335.515 25.5972 335.258C25.9033 335 26.1159 334.696 26.2348 334.346C26.3537 333.995 26.3375 333.609 26.1862 333.186Z" fill="white"/>
<path d="M17.4621 300.907L8.89671 302.58L8.33131 299.686C8.20058 299.017 8.20759 298.445 8.35234 297.971C8.4943 297.498 8.74309 297.119 9.09871 296.836C9.45432 296.552 9.88446 296.361 10.3891 296.262C10.8938 296.164 11.3615 296.179 11.7921 296.309C12.2228 296.439 12.5913 296.696 12.8977 297.079C13.2013 297.463 13.4179 297.986 13.5476 298.65L14.0051 300.992L13.0683 301.175L12.6173 298.866C12.5279 298.409 12.3891 298.054 12.2008 297.801C12.012 297.546 11.7826 297.379 11.5127 297.302C11.2395 297.222 10.9314 297.216 10.5885 297.283C10.2455 297.35 9.95834 297.472 9.72688 297.651C9.49542 297.829 9.33749 298.073 9.2531 298.382C9.16591 298.691 9.16753 299.077 9.25795 299.54L9.61419 301.363L17.2594 299.87L17.4621 300.907ZM12.8267 297.627L16.2626 294.767L16.4979 295.972L13.0555 298.798L12.8267 297.627Z" fill="white"/>
<path d="M13.7288 277.464C13.79 278.051 13.7038 278.581 13.4702 279.054C13.2364 279.524 12.8809 279.91 12.4038 280.211C11.9264 280.509 11.3515 280.693 10.679 280.763C10.0008 280.833 9.39606 280.772 8.86469 280.579C8.33301 280.383 7.90437 280.079 7.57875 279.667C7.25283 279.253 7.05929 278.752 6.99811 278.164C6.93694 277.576 7.02328 277.048 7.25714 276.578C7.4907 276.105 7.84758 275.719 8.32778 275.421C8.80769 275.119 9.38672 274.934 10.0649 274.863C10.7374 274.793 11.3381 274.856 11.8669 275.052C12.3955 275.246 12.8227 275.55 13.1486 275.964C13.4742 276.376 13.6676 276.876 13.7288 277.464ZM12.8302 277.557C12.7838 277.111 12.6311 276.755 12.3722 276.491C12.1133 276.226 11.7902 276.044 11.4028 275.945C11.0154 275.845 10.6041 275.818 10.169 275.863C9.73385 275.909 9.33557 276.02 8.97417 276.198C8.61277 276.375 8.33122 276.62 8.12952 276.932C7.92781 277.245 7.8502 277.624 7.89667 278.071C7.94314 278.517 8.09722 278.872 8.35893 279.136C8.62063 279.4 8.94659 279.582 9.33681 279.682C9.72703 279.781 10.1397 279.808 10.5749 279.763C11.01 279.717 11.4069 279.606 11.7655 279.429C12.124 279.251 12.4028 279.007 12.6016 278.695C12.8005 278.383 12.8767 278.003 12.8302 277.557Z" fill="white"/>
<path d="M5.55782 256.33L6.40983 256.309L6.49392 259.7L5.64191 259.721L5.55782 256.33ZM4.0497 258.771L4.02477 257.766L10.2615 257.611C10.5455 257.604 10.7575 257.558 10.8974 257.472C11.0345 257.383 11.1255 257.273 11.1706 257.141C11.2127 257.007 11.2319 256.865 11.2283 256.718C11.2255 256.607 11.2176 256.516 11.2045 256.446C11.1885 256.375 11.1757 256.318 11.1662 256.276L12.0642 256.049C12.0915 256.117 12.1194 256.211 12.148 256.333C12.1794 256.454 12.1975 256.608 12.2021 256.796C12.2091 257.08 12.155 257.36 12.0396 257.635C11.9242 257.908 11.7437 258.137 11.4982 258.322C11.2527 258.505 10.9396 258.6 10.5591 258.61L4.0497 258.771Z" fill="white"/>
<path d="M12.3418 240.734C12.3208 241.148 12.2237 241.52 12.0505 241.85C11.8745 242.179 11.6324 242.436 11.3245 242.619C11.0136 242.803 10.6454 242.884 10.2198 242.862C9.84532 242.843 9.54547 242.754 9.3203 242.594C9.0923 242.435 8.91788 242.228 8.79705 241.975C8.67623 241.721 8.59075 241.444 8.54061 241.143C8.48777 240.838 8.4492 240.533 8.42488 240.228C8.39396 239.828 8.372 239.504 8.35899 239.256C8.34329 239.005 8.30569 238.821 8.24619 238.704C8.18683 238.584 8.0763 238.52 7.91457 238.512L7.88052 238.511C7.46061 238.489 7.12849 238.588 6.88418 238.806C6.64001 239.021 6.50619 239.36 6.48272 239.822C6.45839 240.302 6.54429 240.683 6.74043 240.966C6.93656 241.249 7.15099 241.452 7.3837 241.575L6.99486 242.511C6.60628 242.32 6.30854 242.078 6.10163 241.783C5.89203 241.485 5.75181 241.165 5.68099 240.822C5.60747 240.477 5.57907 240.14 5.59577 239.811C5.60642 239.601 5.64419 239.361 5.70908 239.092C5.77128 238.819 5.88547 238.559 6.05164 238.311C6.21795 238.061 6.46005 237.858 6.77795 237.704C7.09585 237.549 7.51441 237.485 8.03363 237.511L12.3406 237.73L12.2896 238.734L11.4044 238.689L11.4018 238.74C11.5402 238.816 11.6863 238.937 11.8399 239.104C11.9936 239.271 12.1205 239.489 12.2206 239.759C12.3207 240.029 12.3611 240.354 12.3418 240.734ZM11.4473 240.535C11.4675 240.138 11.4064 239.799 11.2642 239.519C11.1221 239.235 10.9312 239.018 10.6914 238.867C10.4517 238.712 10.1957 238.628 9.92335 238.614L9.00408 238.568C9.05299 238.613 9.09505 238.709 9.13027 238.856C9.16279 238.999 9.18991 239.166 9.21162 239.355C9.23063 239.541 9.24703 239.722 9.2608 239.899C9.27188 240.073 9.28177 240.214 9.29049 240.323C9.31129 240.586 9.35424 240.833 9.41933 241.063C9.48172 241.291 9.58458 241.479 9.7279 241.625C9.86853 241.769 10.0665 241.847 10.3219 241.86C10.6709 241.878 10.9413 241.762 11.1331 241.513C11.3223 241.261 11.427 240.935 11.4473 240.535Z" fill="white"/>
<path d="M7.39168 219.493L8.23718 219.601L7.81028 222.966L6.96478 222.858L7.39168 219.493ZM5.53349 221.68L5.66006 220.683L11.8491 221.468C12.1309 221.503 12.3475 221.489 12.4988 221.426C12.6476 221.359 12.7542 221.263 12.8185 221.14C12.8804 221.013 12.9207 220.876 12.9393 220.73C12.9532 220.62 12.959 220.529 12.9567 220.457C12.9515 220.385 12.9474 220.327 12.9443 220.284L13.8663 220.194C13.8831 220.265 13.8965 220.363 13.9065 220.487C13.9193 220.612 13.9139 220.767 13.8903 220.953C13.8545 221.235 13.7589 221.504 13.6034 221.759C13.4482 222.011 13.2354 222.211 12.9648 222.357C12.6947 222.5 12.3707 222.548 11.9931 222.5L5.53349 221.68Z" fill="white"/>
<path d="M16.5914 204.29C16.4651 204.908 16.2197 205.413 15.8554 205.805C15.4888 206.194 15.0344 206.46 14.4922 206.601C13.9478 206.739 13.3472 206.741 12.6904 206.607C12.0335 206.472 11.479 206.234 11.027 205.893C10.5727 205.547 10.2491 205.13 10.0562 204.641C9.86107 204.149 9.82269 203.614 9.94106 203.035C10.0093 202.701 10.1325 202.382 10.3104 202.079C10.4883 201.777 10.7298 201.517 11.0349 201.301C11.3373 201.085 11.7092 200.939 12.1508 200.864C12.5924 200.789 13.1124 200.812 13.7108 200.935L14.1283 201.02L13.1177 205.963L12.266 205.789L13.0718 201.848C12.7099 201.774 12.3723 201.78 12.0588 201.867C11.7459 201.951 11.4803 202.108 11.262 202.339C11.0443 202.567 10.899 202.859 10.8262 203.216C10.7459 203.608 10.7739 203.968 10.9101 204.294C11.0441 204.617 11.25 204.887 11.5276 205.103C11.8053 205.32 12.1208 205.464 12.4743 205.536L13.0421 205.652C13.5264 205.751 13.954 205.752 14.3249 205.653C14.6937 205.552 14.9964 205.369 15.2332 205.104C15.4673 204.839 15.625 204.507 15.7063 204.109C15.7593 203.85 15.7709 203.609 15.7412 203.385C15.7093 203.159 15.6352 202.954 15.519 202.77C15.4 202.586 15.2377 202.43 15.0321 202.301L15.4939 201.404C15.7963 201.57 16.0458 201.796 16.2424 202.083C16.4361 202.369 16.5657 202.7 16.6309 203.076C16.6934 203.451 16.6802 203.856 16.5914 204.29Z" fill="white"/>
<path d="M23.8471 170.927C23.7306 171.25 23.5453 171.517 23.2913 171.727C23.0347 171.937 22.7438 172.074 22.4188 172.138C22.0947 172.199 21.771 172.172 21.4475 172.055C21.1215 171.938 20.8545 171.752 20.6468 171.499C20.4373 171.243 20.3018 170.952 20.2404 170.628C20.1763 170.303 20.2025 169.979 20.3191 169.656C20.4365 169.33 20.6231 169.063 20.8788 168.856C21.1328 168.646 21.4218 168.51 21.7459 168.448C22.0683 168.383 22.3925 168.41 22.7186 168.527C23.042 168.644 23.3084 168.83 23.5179 169.087C23.7284 169.341 23.8657 169.63 23.9298 169.955C23.9921 170.277 23.9646 170.601 23.8471 170.927Z" fill="white"/>
<path d="M43.5646 119.998L43.0045 120.894C42.7136 120.786 42.4292 120.737 42.1512 120.748C41.8748 120.756 41.6116 120.812 41.3617 120.917C41.1108 121.019 40.8809 121.161 40.6719 121.346C40.463 121.53 40.2817 121.745 40.1281 121.991C39.8481 122.439 39.7076 122.916 39.7068 123.421C39.7074 123.924 39.8612 124.42 40.168 124.91C40.4764 125.398 40.951 125.842 41.5919 126.242C42.2327 126.643 42.8398 126.875 43.4132 126.938C43.9881 126.999 44.5017 126.92 44.9539 126.7C45.4077 126.478 45.7747 126.142 46.0547 125.694C46.2083 125.449 46.3221 125.191 46.3961 124.923C46.4702 124.654 46.4989 124.386 46.4824 124.117C46.4649 123.845 46.3992 123.583 46.2854 123.331C46.1706 123.075 46.0021 122.841 45.7799 122.628L46.3399 121.732C46.676 122.036 46.9377 122.37 47.1251 122.735C47.3124 123.1 47.428 123.481 47.472 123.877C47.5136 124.271 47.4855 124.667 47.3876 125.065C47.2913 125.46 47.1264 125.845 46.8931 126.218C46.4986 126.849 45.9937 127.314 45.3781 127.613C44.7626 127.912 44.0825 128.025 43.3378 127.951C42.5931 127.878 41.8305 127.597 41.0499 127.109C40.2693 126.622 39.6828 126.059 39.2904 125.422C38.898 124.785 38.7012 124.124 38.6999 123.44C38.6987 122.756 38.8953 122.098 39.2897 121.467C39.5231 121.093 39.7964 120.777 40.1095 120.517C40.4242 120.254 40.7691 120.056 41.1443 119.922C41.5171 119.787 41.9086 119.723 42.3188 119.732C42.7265 119.739 43.1418 119.827 43.5646 119.998Z" fill="white"/>
<path d="M50.961 104.274L57.9921 109.444L57.3963 110.254L50.3652 105.084L50.961 104.274Z" fill="white"/>
<path d="M65.357 99.8959L60.3044 95.7349L60.9437 94.9586L65.9963 99.1196L65.357 99.8959ZM59.7874 94.6467C59.6627 94.798 59.5037 94.886 59.3104 94.9108C59.1188 94.9334 58.9507 94.885 58.8059 94.7658C58.6612 94.6467 58.5815 94.4909 58.567 94.2985C58.5542 94.104 58.6101 93.9311 58.7347 93.7798C58.8593 93.6285 59.0174 93.5415 59.209 93.5189C59.4024 93.4942 59.5714 93.5414 59.7162 93.6606C59.8609 93.7798 59.9396 93.9367 59.9524 94.1312C59.967 94.3235 59.912 94.4953 59.7874 94.6467Z" fill="white"/>
<path d="M75.8143 88.0751C75.3927 88.5209 74.9243 88.8053 74.4092 88.9281C73.8942 89.051 73.3699 89.0244 72.8365 88.8483C72.3031 88.6723 71.799 88.3598 71.3243 87.9108C70.8413 87.454 70.4991 86.9621 70.2975 86.4352C70.0958 85.9042 70.042 85.3802 70.1362 84.8631C70.2302 84.342 70.4802 83.8668 70.8862 83.4375C71.2025 83.1032 71.5494 82.8604 71.927 82.7092C72.3047 82.558 72.6859 82.5022 73.0709 82.5417C73.4558 82.5812 73.8164 82.7209 74.1526 82.9607L73.4616 83.6914C73.1922 83.5421 72.8831 83.4844 72.5344 83.5182C72.1855 83.548 71.8588 83.7239 71.5543 84.0459C71.2849 84.3307 71.123 84.6508 71.0686 85.006C71.0141 85.3572 71.0643 85.7195 71.2194 86.093C71.3744 86.4625 71.6315 86.817 71.9906 87.1567C72.358 87.5042 72.7325 87.749 73.1143 87.8911C73.498 88.0311 73.8658 88.0661 74.2175 87.996C74.5712 87.9239 74.8847 87.7433 75.158 87.4543C75.3376 87.2645 75.4676 87.0609 75.5479 86.8436C75.6283 86.6264 75.6573 86.4055 75.635 86.181C75.6126 85.9566 75.5363 85.7397 75.4058 85.5303L76.0969 84.7996C76.3386 85.1064 76.4948 85.4477 76.5655 85.8236C76.6362 86.1954 76.6116 86.5769 76.4919 86.9681C76.372 87.3552 76.1462 87.7243 75.8143 88.0751Z" fill="white"/>
<path d="M86.7616 73.5669L85.9182 72.6518L86.0705 72.5153L86.2571 68.4334L87.1836 67.6028L86.9712 71.9367L86.9078 71.9936L86.7616 73.5669ZM87.6565 75.9696L81.8308 69.4714L82.5796 68.8001L88.4053 75.2983L87.6565 75.9696ZM90.7533 73.1933L86.6876 72.4886L86.7542 71.4903L91.7051 72.3399L90.7533 73.1933Z" fill="white"/>
<path d="M116.027 53.5208C115.682 53.7504 115.325 53.8938 114.957 53.9508C114.588 54.0055 114.238 53.9637 113.907 53.8254C113.574 53.6848 113.29 53.437 113.054 53.0822C112.847 52.7699 112.74 52.4758 112.734 52.2001C112.726 51.9219 112.789 51.6588 112.921 51.4108C113.052 51.1628 113.224 50.929 113.437 50.7094C113.65 50.4859 113.872 50.2734 114.103 50.072C114.406 49.8092 114.653 49.5987 114.845 49.4406C115.037 49.2785 115.163 49.1388 115.221 49.0215C115.282 48.9026 115.267 48.7757 115.178 48.6409L115.159 48.6125C114.926 48.2624 114.649 48.054 114.329 47.9874C114.011 47.9193 113.659 48.0134 113.273 48.2698C112.873 48.5356 112.618 48.8315 112.507 49.1576C112.397 49.4837 112.361 49.7767 112.401 50.0368L111.417 50.2814C111.339 49.8558 111.357 49.4721 111.471 49.1303C111.585 48.7846 111.759 48.4814 111.992 48.2209C112.226 47.9565 112.48 47.733 112.754 47.5505C112.929 47.4341 113.144 47.3217 113.4 47.2133C113.656 47.101 113.933 47.0379 114.231 47.0241C114.531 47.0087 114.838 47.0827 115.151 47.2462C115.465 47.4097 115.765 47.7079 116.053 48.1408L118.441 51.732L117.603 52.2888L117.113 51.5507L117.07 51.579C117.092 51.7351 117.081 51.9246 117.039 52.1475C116.996 52.3704 116.896 52.6023 116.739 52.8432C116.582 53.0842 116.344 53.31 116.027 53.5208ZM115.655 52.6835C115.986 52.4633 116.222 52.2127 116.363 51.9315C116.506 51.6489 116.567 51.3661 116.546 51.0832C116.527 50.7987 116.442 50.5429 116.291 50.3158L115.782 49.5493C115.775 49.6155 115.723 49.7064 115.625 49.8221C115.529 49.9339 115.412 50.0547 115.273 50.1845C115.135 50.3104 114.999 50.4316 114.865 50.5481C114.731 50.6606 114.624 50.7526 114.542 50.8242C114.343 50.9973 114.17 51.1787 114.023 51.3684C113.877 51.5542 113.788 51.7483 113.755 51.9508C113.724 52.1493 113.779 52.355 113.92 52.5679C114.114 52.8589 114.368 53.0074 114.682 53.0133C114.997 53.0152 115.321 52.9053 115.655 52.6835Z" fill="white"/>
<path d="M129.883 40.0035L131.774 43.4571L130.892 43.9401L127.749 38.199L128.601 37.7324L129.092 38.6294L129.167 38.5885C129.142 38.2233 129.218 37.8771 129.395 37.5501C129.571 37.2206 129.876 36.9372 130.309 36.6998C130.698 36.4869 131.082 36.3804 131.461 36.3802C131.838 36.3776 132.196 36.4926 132.534 36.7254C132.87 36.9556 133.172 37.315 133.44 37.8034L135.437 41.4514L134.555 41.9344L132.59 38.3462C132.344 37.8952 132.034 37.608 131.662 37.4845C131.289 37.3586 130.898 37.4076 130.489 37.6313C130.207 37.7855 129.989 37.9844 129.834 38.2279C129.682 38.4701 129.606 38.7431 129.607 39.0469C129.608 39.3507 129.7 39.6696 129.883 40.0035Z" fill="white"/>
<path d="M152.048 33.284C151.548 33.5023 151.052 33.5688 150.559 33.4834C150.065 33.3954 149.608 33.1668 149.19 32.7978C148.77 32.4261 148.422 31.9227 148.144 31.2875C147.869 30.6574 147.738 30.0635 147.752 29.5057C147.766 28.9479 147.91 28.4586 148.185 28.0378C148.46 27.617 148.85 27.2963 149.355 27.0757C149.746 26.9052 150.083 26.8355 150.366 26.8668C150.651 26.8943 150.889 26.9639 151.08 27.0756C151.273 27.1836 151.426 27.2749 151.54 27.3495L151.618 27.3154L150.328 24.363L151.25 23.9605L154.743 31.9583L153.852 32.3472L153.45 31.4256L153.341 31.4733C153.321 31.6122 153.285 31.7923 153.232 32.0135C153.179 32.2321 153.065 32.4571 152.89 32.6884C152.714 32.9172 152.433 33.1157 152.048 33.284ZM151.811 32.4015C152.181 32.2401 152.452 32.0073 152.623 31.7032C152.792 31.3965 152.869 31.0424 152.851 30.6407C152.833 30.2365 152.725 29.8078 152.527 29.3548C152.331 28.907 152.095 28.5437 151.818 28.2647C151.54 27.9831 151.233 27.8043 150.896 27.7282C150.558 27.6496 150.201 27.6922 149.826 27.8559C149.436 28.0264 149.154 28.2688 148.981 28.583C148.81 28.8934 148.734 29.2476 148.752 29.6455C148.773 30.0396 148.875 30.4476 149.059 30.8693C149.246 31.2963 149.48 31.6558 149.763 31.9478C150.047 32.2361 150.362 32.4268 150.71 32.5199C151.059 32.6092 151.426 32.5698 151.811 32.4015Z" fill="white"/>
<path d="M186.087 20.7797L183.483 21.4652L181.261 13.0253L183.981 12.3095C184.8 12.094 185.545 12.0786 186.216 12.2632C186.887 12.4451 187.46 12.8098 187.937 13.3572C188.412 13.9019 188.764 14.6111 188.994 15.4847C189.226 16.3639 189.268 17.162 189.122 17.8791C188.975 18.5934 188.647 19.1997 188.138 19.698C187.628 20.1935 186.944 20.5541 186.087 20.7797ZM184.266 20.2896L185.783 19.8904C186.481 19.7068 187.023 19.42 187.411 19.03C187.799 18.64 188.04 18.1667 188.135 17.6101C188.229 17.0536 188.186 16.4319 188.005 15.745C187.826 15.0637 187.56 14.5064 187.208 14.0732C186.856 13.6372 186.424 13.3456 185.912 13.1983C185.399 13.0482 184.813 13.0599 184.154 13.2335L182.522 13.663L184.266 20.2896Z" fill="white"/>
<path d="M205.528 16.2352L204.388 9.78971L205.345 9.62055L205.517 10.5941L205.584 10.5822C205.645 10.2425 205.812 9.94616 206.085 9.69313C206.357 9.4401 206.686 9.27945 207.073 9.21119C207.145 9.19833 207.236 9.18366 207.346 9.16716C207.456 9.15067 207.539 9.14028 207.596 9.13598L207.774 10.1431C207.739 10.1406 207.66 10.1416 207.536 10.1461C207.415 10.1473 207.289 10.1595 207.158 10.1828C206.844 10.2382 206.576 10.3534 206.353 10.5284C206.133 10.7001 205.971 10.9133 205.869 11.1679C205.769 11.4192 205.745 11.6904 205.797 11.9813L206.518 16.0601L205.528 16.2352Z" fill="white"/>
<path d="M223.627 13.6678C223.214 13.709 222.832 13.6687 222.48 13.5468C222.127 13.4221 221.838 13.2212 221.61 12.9441C221.382 12.6642 221.247 12.3123 221.205 11.8882C221.168 11.5151 221.211 11.2053 221.335 10.9588C221.458 10.7095 221.636 10.5061 221.869 10.3487C222.102 10.1913 222.363 10.0653 222.654 9.97062C222.946 9.87286 223.242 9.78909 223.541 9.71932C223.931 9.62892 224.248 9.55873 224.492 9.50873C224.738 9.45562 224.914 9.39092 225.021 9.31461C225.13 9.23802 225.177 9.11916 225.161 8.95803L225.157 8.92411C225.115 8.50574 224.968 8.19208 224.716 7.98314C224.467 7.77391 224.112 7.6923 223.651 7.73831C223.174 7.786 222.809 7.92799 222.559 8.16427C222.308 8.40056 222.14 8.64293 222.053 8.89139L221.07 8.647C221.2 8.2343 221.395 7.9036 221.656 7.65488C221.919 7.40305 222.214 7.21653 222.542 7.09531C222.872 6.97099 223.201 6.89245 223.529 6.85971C223.738 6.83883 223.981 6.84028 224.258 6.86407C224.537 6.88475 224.811 6.95871 225.081 7.08596C225.353 7.21293 225.59 7.42201 225.79 7.71321C225.99 8.0044 226.116 8.40865 226.168 8.92597L226.597 13.2171L225.596 13.317L225.508 12.4351L225.457 12.4401C225.403 12.5883 225.305 12.7508 225.163 12.9277C225.021 13.1047 224.824 13.2628 224.572 13.4021C224.321 13.5414 224.005 13.63 223.627 13.6678ZM223.689 12.7536C224.085 12.7141 224.411 12.6031 224.667 12.4205C224.926 12.2377 225.112 12.0164 225.226 11.7566C225.343 11.4965 225.388 11.2308 225.36 10.9594L225.269 10.0435C225.232 10.0987 225.143 10.1546 225.003 10.2114C224.866 10.2651 224.705 10.3168 224.522 10.3665C224.341 10.4131 224.164 10.4565 223.991 10.4966C223.82 10.5336 223.682 10.5646 223.576 10.5894C223.32 10.6493 223.082 10.7287 222.863 10.8276C222.647 10.9234 222.478 11.0531 222.354 11.2168C222.233 11.3773 222.185 11.5848 222.211 11.8392C222.245 12.1869 222.4 12.437 222.675 12.5894C222.953 12.7387 223.291 12.7934 223.689 12.7536Z" fill="white"/>
<path d="M243.925 14.7163C243.439 14.723 243.02 14.6662 242.669 14.546C242.318 14.4287 242.025 14.2708 241.789 14.0723C241.556 13.8766 241.37 13.6661 241.231 13.4407L242.024 12.8672C242.117 12.9853 242.233 13.1201 242.375 13.2716C242.516 13.4259 242.708 13.5582 242.951 13.6685C243.197 13.7816 243.518 13.8355 243.912 13.83C244.441 13.8228 244.875 13.689 245.215 13.4286C245.555 13.1682 245.722 12.7653 245.714 12.2199L245.696 10.8905L245.611 10.8917C245.539 11.012 245.436 11.1612 245.302 11.3392C245.17 11.5143 244.979 11.6717 244.728 11.8116C244.48 11.9485 244.143 12.0199 243.717 12.0257C243.189 12.033 242.713 11.9145 242.289 11.6703C241.868 11.4261 241.532 11.067 241.281 10.5931C241.033 10.1192 240.904 9.54138 240.895 8.85963C240.886 8.18924 240.996 7.60387 241.225 7.10352C241.454 6.60033 241.776 6.2095 242.193 5.93103C242.61 5.64972 243.093 5.50528 243.645 5.49771C244.071 5.49186 244.41 5.55824 244.662 5.69684C244.916 5.83256 245.112 5.98899 245.248 6.16611C245.386 6.34036 245.494 6.48379 245.569 6.5964L245.671 6.595L245.657 5.55533L246.628 5.54199L246.721 12.2743C246.729 12.8368 246.607 13.2959 246.356 13.6516C246.108 14.0102 245.771 14.2748 245.344 14.4454C244.92 14.6188 244.447 14.7092 243.925 14.7163ZM243.841 11.1205C244.244 11.115 244.584 11.018 244.86 10.8295C245.136 10.6411 245.344 10.3726 245.484 10.024C245.624 9.67548 245.691 9.25976 245.684 8.77685C245.678 8.3053 245.601 7.89012 245.454 7.53131C245.307 7.1725 245.093 6.89274 244.812 6.69203C244.53 6.49133 244.185 6.39378 243.776 6.3994C243.35 6.40525 242.997 6.51807 242.715 6.73785C242.437 6.9576 242.23 7.25025 242.093 7.6158C241.958 7.98132 241.894 8.38564 241.9 8.82878C241.907 9.28329 241.983 9.68426 242.13 10.0317C242.28 10.3763 242.496 10.6461 242.78 10.841C243.067 11.0331 243.421 11.1263 243.841 11.1205Z" fill="white"/>
<path d="M280.722 7.45736L280.614 8.30277L277.25 7.87327L277.357 7.02786L280.722 7.45736ZM278.537 5.59748L279.534 5.72482L278.744 11.9132C278.708 12.195 278.722 12.4116 278.786 12.5629C278.853 12.7118 278.948 12.8185 279.072 12.8829C279.198 12.9449 279.335 12.9853 279.482 13.004C279.591 13.018 279.682 13.0239 279.754 13.0216C279.826 13.0165 279.884 13.0124 279.928 13.0094L280.016 13.9314C279.945 13.9482 279.848 13.9615 279.723 13.9714C279.598 13.9841 279.443 13.9786 279.257 13.9548C278.975 13.9188 278.707 13.823 278.452 13.6673C278.199 13.5119 278 13.2989 277.855 13.0283C277.711 12.758 277.664 12.4341 277.712 12.0564L278.537 5.59748Z" fill="white"/>
<path d="M295.852 16.6468C295.274 16.526 294.795 16.2824 294.416 15.9159C294.04 15.55 293.781 15.0939 293.639 14.5478C293.501 14.0023 293.501 13.3986 293.639 12.7368C293.778 12.0693 294.021 11.512 294.367 11.0647C294.715 10.6181 295.135 10.3024 295.627 10.1177C296.121 9.93353 296.657 9.90187 297.236 10.0227C297.814 10.1435 298.291 10.3868 298.668 10.7527C299.047 11.1192 299.305 11.5766 299.443 12.1249C299.584 12.6738 299.585 13.282 299.445 13.9494C299.307 14.6113 299.064 15.1641 298.716 15.608C298.371 16.0525 297.951 16.3668 297.457 16.5509C296.965 16.7356 296.431 16.7676 295.852 16.6468ZM296.037 15.7625C296.476 15.8542 296.861 15.8171 297.192 15.6511C297.523 15.4851 297.794 15.2328 298.007 14.8941C298.22 14.5555 298.372 14.1721 298.461 13.7438C298.55 13.3155 298.566 12.9023 298.507 12.5039C298.448 12.1056 298.3 11.7628 298.064 11.4755C297.828 11.1883 297.49 10.9988 297.051 10.907C296.612 10.8152 296.226 10.8538 295.895 11.0225C295.564 11.1913 295.291 11.4464 295.078 11.7878C294.864 12.1293 294.713 12.5141 294.623 12.9423C294.534 13.3706 294.519 13.7825 294.579 14.178C294.638 14.5736 294.786 14.9136 295.023 15.1981C295.259 15.4826 295.597 15.6707 296.037 15.7625Z" fill="white"/>
<path d="M328.118 25.1903L331.166 17.0129L333.93 18.043C334.568 18.2812 335.052 18.5859 335.381 18.957C335.71 19.3254 335.903 19.7354 335.959 20.1868C336.015 20.6382 335.953 21.1049 335.774 21.5867C335.594 22.0685 335.336 22.459 335 22.7582C334.664 23.0575 334.253 23.2376 333.766 23.2987C333.281 23.3572 332.721 23.2683 332.088 23.0321L329.852 22.1985L330.185 21.3041L332.389 22.1258C332.826 22.2886 333.201 22.3557 333.515 22.3272C333.831 22.2996 334.093 22.1911 334.3 22.0015C334.511 21.8102 334.677 21.5509 334.799 21.2234C334.922 20.896 334.967 20.587 334.936 20.2965C334.905 20.006 334.779 19.744 334.56 19.5107C334.342 19.2747 334.012 19.0743 333.57 18.9096L331.829 18.2605L329.108 25.5595L328.118 25.1903ZM333.336 22.9519L333.979 27.3757L332.829 26.9469L332.218 22.5351L333.336 22.9519Z" fill="white"/>
<path d="M350.057 34.2566C349.524 34.0017 349.117 33.6511 348.836 33.205C348.557 32.76 348.415 32.2556 348.407 31.6915C348.402 31.1287 348.546 30.5423 348.838 29.9323C349.132 29.3172 349.5 28.8336 349.942 28.4814C350.387 28.1305 350.87 27.9238 351.391 27.8613C351.915 27.8 352.444 27.8968 352.977 28.1518C353.51 28.4067 353.916 28.7566 354.194 29.2016C354.475 29.6477 354.617 30.1535 354.621 30.7189C354.627 31.2855 354.483 31.8764 354.189 32.4915C353.897 33.1014 353.529 33.5806 353.086 33.9289C352.645 34.2785 352.162 34.4839 351.639 34.5452C351.117 34.6078 350.59 34.5116 350.057 34.2566ZM350.447 33.4416C350.852 33.6353 351.235 33.6908 351.595 33.6082C351.956 33.5256 352.28 33.3452 352.567 33.067C352.855 32.7887 353.093 32.4523 353.282 32.0576C353.47 31.6629 353.583 31.2651 353.621 30.8642C353.658 30.4632 353.597 30.0952 353.436 29.76C353.275 29.4248 352.992 29.1604 352.587 28.9668C352.182 28.7731 351.799 28.7189 351.437 28.804C351.075 28.8891 350.749 29.0721 350.461 29.3529C350.172 29.6337 349.934 29.9715 349.745 30.3662C349.556 30.7609 349.444 31.1574 349.407 31.5557C349.371 31.9541 349.434 32.3196 349.596 32.6522C349.758 32.9848 350.042 33.248 350.447 33.4416Z" fill="white"/>
<path d="M372.346 38.3324L371.919 39.0699L368.983 37.3697L369.411 36.6322L372.346 38.3324ZM371.052 35.7708L371.922 36.2748L368.795 41.6733C368.653 41.9191 368.582 42.1241 368.582 42.2883C368.586 42.4515 368.632 42.5867 368.721 42.694C368.814 42.8003 368.924 42.8904 369.052 42.9645C369.148 43.02 369.23 43.0607 369.297 43.0864C369.365 43.1097 369.42 43.1284 369.461 43.1424L369.186 44.0266C369.114 44.0146 369.019 43.989 368.9 43.9499C368.78 43.9132 368.639 43.8479 368.477 43.754C368.231 43.6116 368.021 43.4192 367.846 43.1768C367.673 42.9358 367.573 42.6623 367.543 42.3562C367.516 42.0516 367.598 41.7346 367.789 41.4052L371.052 35.7708Z" fill="white"/>
<path d="M382.099 52.2656C381.757 52.0313 381.49 51.7541 381.3 51.4342C381.111 51.1119 381.018 50.7715 381.023 50.413C381.029 50.0522 381.152 49.696 381.393 49.3444C381.605 49.035 381.838 48.826 382.091 48.7172C382.346 48.6062 382.613 48.5654 382.893 48.5949C383.172 48.6244 383.453 48.6964 383.736 48.8111C384.023 48.925 384.304 49.0514 384.577 49.1903C384.934 49.3729 385.222 49.5234 385.44 49.642C385.662 49.7598 385.839 49.8239 385.969 49.8342C386.102 49.8461 386.215 49.7852 386.306 49.6516L386.325 49.6235C386.563 49.2766 386.653 48.942 386.595 48.6198C386.539 48.2992 386.32 48.0081 385.938 47.7464C385.541 47.4751 385.172 47.3492 384.828 47.3685C384.484 47.3878 384.199 47.4647 383.973 47.5989L383.378 46.7783C383.743 46.5465 384.106 46.4194 384.465 46.3971C384.829 46.3741 385.175 46.4217 385.504 46.5401C385.836 46.6577 386.138 46.8096 386.41 46.9958C386.584 47.1146 386.769 47.2722 386.965 47.4685C387.165 47.664 387.327 47.8973 387.451 48.1684C387.578 48.441 387.624 48.7532 387.59 49.105C387.555 49.4568 387.391 49.8472 387.097 50.2762L384.661 53.8342L383.831 53.266L384.332 52.5347L384.29 52.5058C384.153 52.5844 383.973 52.6456 383.751 52.6893C383.528 52.733 383.275 52.7271 382.993 52.6716C382.711 52.6161 382.413 52.4808 382.099 52.2656ZM382.736 51.607C383.064 51.8317 383.385 51.9567 383.698 51.9818C384.014 52.0086 384.299 51.9594 384.553 51.8341C384.81 51.7105 385.016 51.5361 385.17 51.3111L385.69 50.5517C385.626 50.5698 385.522 50.5555 385.378 50.5088C385.239 50.4614 385.083 50.3976 384.91 50.3174C384.742 50.2365 384.579 50.1557 384.42 50.0749C384.266 49.9934 384.141 49.928 384.043 49.8787C383.809 49.7591 383.576 49.6668 383.345 49.6017C383.118 49.5358 382.904 49.5256 382.705 49.5712C382.509 49.616 382.338 49.7439 382.194 49.9549C381.996 50.2432 381.954 50.5342 382.066 50.8279C382.182 51.121 382.405 51.3806 382.736 51.607Z" fill="white"/>
<path d="M402.796 59.1435L402.262 59.8083L399.616 57.686L400.149 57.0212L402.796 59.1435ZM401.902 56.4164L402.686 57.0456L398.783 61.9123C398.605 62.134 398.504 62.3259 398.48 62.4883C398.459 62.6502 398.485 62.7909 398.556 62.9103C398.632 63.0293 398.727 63.135 398.843 63.2275C398.929 63.2968 399.004 63.3492 399.066 63.3848C399.13 63.4182 399.182 63.4448 399.22 63.4649L398.815 64.2976C398.746 64.2749 398.655 64.2353 398.544 64.1788C398.431 64.1245 398.301 64.0387 398.155 63.9214C397.933 63.7437 397.754 63.5218 397.618 63.2559C397.484 62.9917 397.425 62.7062 397.442 62.3992C397.461 62.0939 397.59 61.7928 397.828 61.4959L401.902 56.4164Z" fill="white"/>
<path d="M410.951 74.9312C410.491 74.5007 410.188 74.0275 410.044 73.5118C409.904 72.996 409.915 72.47 410.078 71.9339C410.245 71.3976 410.557 70.8845 411.015 70.3946C411.472 69.9047 411.965 69.5563 412.493 69.3495C413.024 69.1425 413.549 69.0845 414.067 69.1755C414.588 69.2663 415.065 69.5134 415.497 69.9168C415.746 70.1496 415.953 70.4209 416.118 70.7309C416.284 71.0408 416.379 71.3823 416.403 71.7554C416.43 72.1263 416.36 72.5196 416.193 72.9353C416.026 73.351 415.734 73.782 415.317 74.2283L415.026 74.5397L411.34 71.0951L411.933 70.4599L414.873 73.2062C415.125 72.9364 415.296 72.6452 415.386 72.3326C415.478 72.0219 415.482 71.7132 415.399 71.4065C415.319 71.1017 415.146 70.8252 414.88 70.5769C414.587 70.3035 414.266 70.1395 413.916 70.085C413.571 70.0304 413.233 70.065 412.904 70.1887C412.575 70.3125 412.287 70.5062 412.04 70.7698L411.645 71.1933C411.307 71.5545 411.083 71.9188 410.973 72.2864C410.867 72.6538 410.865 73.0076 410.967 73.3479C411.071 73.686 411.271 73.9938 411.568 74.2711C411.761 74.4515 411.961 74.5874 412.167 74.6789C412.377 74.7703 412.591 74.8143 412.808 74.811C413.026 74.8055 413.245 74.7489 413.462 74.641L413.986 75.5036C413.686 75.6746 413.363 75.769 413.016 75.7868C412.67 75.8025 412.321 75.74 411.966 75.5993C411.613 75.4565 411.275 75.2338 410.951 74.9312Z" fill="white"/>
<path d="M435.607 98.5504C435.392 98.282 435.261 97.9846 435.215 97.6581C435.17 97.3298 435.205 97.0103 435.321 96.6997C435.438 96.3913 435.63 96.1297 435.899 95.9148C436.169 95.6982 436.467 95.5674 436.791 95.5224C437.119 95.4779 437.438 95.5141 437.746 95.6311C438.057 95.7463 438.319 95.9381 438.534 96.2064C438.751 96.4769 438.881 96.7752 438.923 97.1013C438.97 97.4278 438.935 97.7453 438.818 98.0537C438.705 98.3626 438.513 98.6253 438.243 98.842C437.974 99.0568 437.676 99.1865 437.348 99.231C437.021 99.2778 436.703 99.2435 436.392 99.1283C436.085 99.0136 435.824 98.8209 435.607 98.5504Z" fill="white"/>
<path d="M468.728 141.973L468.257 141.027C468.501 140.836 468.691 140.619 468.827 140.376C468.965 140.136 469.054 139.882 469.095 139.614C469.14 139.347 469.138 139.077 469.09 138.802C469.042 138.528 468.954 138.261 468.824 138.002C468.589 137.529 468.256 137.16 467.825 136.895C467.396 136.633 466.893 136.505 466.314 136.51C465.738 136.518 465.111 136.691 464.435 137.028C463.758 137.365 463.243 137.762 462.89 138.218C462.537 138.676 462.337 139.155 462.288 139.656C462.24 140.159 462.334 140.647 462.57 141.12C462.699 141.379 462.859 141.61 463.049 141.814C463.24 142.017 463.454 142.182 463.691 142.308C463.932 142.436 464.19 142.517 464.464 142.551C464.743 142.587 465.03 142.566 465.328 142.487L465.799 143.433C465.365 143.561 464.943 143.609 464.534 143.578C464.125 143.547 463.74 143.447 463.379 143.278C463.021 143.107 462.698 142.876 462.41 142.585C462.123 142.296 461.882 141.955 461.685 141.561C461.353 140.895 461.22 140.221 461.287 139.54C461.354 138.859 461.613 138.22 462.065 137.624C462.517 137.027 463.155 136.524 463.978 136.113C464.802 135.702 465.588 135.496 466.337 135.495C467.085 135.493 467.751 135.67 468.335 136.027C468.919 136.383 469.377 136.894 469.709 137.561C469.906 137.955 470.033 138.353 470.091 138.756C470.15 139.161 470.139 139.559 470.057 139.949C469.978 140.338 469.827 140.704 469.606 141.05C469.387 141.394 469.094 141.702 468.728 141.973Z" fill="white"/>
<path d="M478.27 156.495L470.188 159.789L469.809 158.858L477.891 155.564L478.27 156.495Z" fill="white"/>
<path d="M474.481 171.057L480.669 168.923L480.997 169.874L474.809 172.008L474.481 171.057ZM481.867 169.051C481.803 168.866 481.811 168.684 481.891 168.507C481.972 168.331 482.101 168.213 482.278 168.152C482.455 168.091 482.63 168.105 482.801 168.193C482.974 168.283 483.092 168.421 483.156 168.607C483.22 168.792 483.211 168.972 483.13 169.147C483.051 169.325 482.922 169.445 482.745 169.506C482.567 169.567 482.393 169.552 482.22 169.461C482.048 169.373 481.931 169.237 481.867 169.051Z" fill="white"/>
<path d="M479.096 186.15C478.936 185.558 478.938 185.01 479.102 184.506C479.267 184.003 479.563 183.57 479.992 183.207C480.421 182.844 480.951 182.578 481.582 182.408C482.224 182.234 482.822 182.2 483.376 182.303C483.935 182.409 484.409 182.637 484.801 182.987C485.196 183.339 485.471 183.801 485.625 184.371C485.745 184.816 485.77 185.238 485.702 185.639C485.634 186.04 485.482 186.395 485.247 186.702C485.012 187.01 484.705 187.244 484.325 187.406L484.063 186.435C484.331 186.283 484.541 186.049 484.695 185.734C484.852 185.421 484.872 185.051 484.757 184.623C484.655 184.245 484.467 183.939 484.192 183.707C483.921 183.477 483.586 183.331 483.187 183.268C482.791 183.207 482.354 183.241 481.877 183.37C481.388 183.501 480.984 183.693 480.663 183.944C480.343 184.198 480.121 184.493 479.997 184.83C479.874 185.169 479.864 185.531 479.968 185.915C480.036 186.167 480.142 186.384 480.285 186.566C480.428 186.748 480.601 186.889 480.804 186.987C481.007 187.085 481.232 187.133 481.479 187.131L481.741 188.102C481.353 188.148 480.98 188.103 480.623 187.967C480.269 187.833 479.956 187.613 479.686 187.306C479.418 187.002 479.221 186.616 479.096 186.15Z" fill="white"/>
<path d="M485.746 203.065L486.967 202.824L487.003 203.025L490.386 205.317L490.61 206.541L487.026 204.095L487.011 204.011L485.746 203.065ZM483.23 202.572L491.814 201.001L491.995 201.99L483.411 203.562L483.23 202.572ZM483.979 206.663L486.704 203.565L487.52 204.143L484.209 207.921L483.979 206.663Z" fill="white"/>
<path d="M487.546 238.492C487.531 238.078 487.595 237.699 487.739 237.355C487.885 237.011 488.104 236.735 488.394 236.525C488.688 236.315 489.048 236.202 489.474 236.186C489.848 236.173 490.155 236.235 490.393 236.374C490.634 236.513 490.826 236.703 490.968 236.946C491.111 237.188 491.221 237.456 491.297 237.752C491.376 238.051 491.441 238.351 491.492 238.653C491.558 239.049 491.608 239.37 491.643 239.616C491.681 239.864 491.734 240.044 491.804 240.156C491.873 240.269 491.989 240.323 492.151 240.318L492.185 240.316C492.605 240.301 492.927 240.174 493.152 239.935C493.376 239.699 493.48 239.35 493.462 238.887C493.445 238.408 493.326 238.035 493.106 237.771C492.885 237.506 492.654 237.322 492.411 237.221L492.717 236.254C493.121 236.41 493.438 236.625 493.67 236.901C493.905 237.179 494.073 237.486 494.173 237.821C494.277 238.158 494.335 238.491 494.347 238.821C494.355 239.031 494.338 239.273 494.297 239.547C494.259 239.824 494.168 240.094 494.024 240.355C493.88 240.619 493.657 240.842 493.354 241.024C493.051 241.205 492.639 241.306 492.12 241.325L487.81 241.484L487.773 240.479L488.659 240.447L488.657 240.396C488.512 240.333 488.356 240.225 488.189 240.072C488.021 239.919 487.875 239.712 487.752 239.453C487.629 239.193 487.56 238.873 487.546 238.492ZM488.455 238.612C488.469 239.01 488.56 239.342 488.726 239.608C488.892 239.878 489.101 240.078 489.354 240.208C489.606 240.341 489.868 240.402 490.141 240.392L491.061 240.358C491.008 240.317 490.958 240.225 490.91 240.082C490.865 239.941 490.823 239.778 490.785 239.592C490.75 239.408 490.718 239.229 490.688 239.054C490.662 238.881 490.64 238.742 490.622 238.634C490.578 238.374 490.513 238.132 490.428 237.908C490.346 237.686 490.227 237.509 490.072 237.375C489.919 237.244 489.715 237.184 489.46 237.193C489.11 237.206 488.851 237.345 488.682 237.61C488.515 237.878 488.44 238.212 488.455 238.612Z" fill="white"/>
<path d="M491.831 257.369L487.899 257.177L487.948 256.172L494.485 256.492L494.438 257.462L493.416 257.412L493.412 257.497C493.737 257.667 493.992 257.913 494.178 258.235C494.367 258.557 494.45 258.965 494.426 259.458C494.404 259.901 494.294 260.284 494.097 260.607C493.902 260.93 493.617 261.175 493.242 261.342C492.869 261.508 492.405 261.578 491.849 261.551L487.695 261.348L487.744 260.344L491.83 260.543C492.344 260.568 492.75 260.454 493.05 260.202C493.352 259.949 493.515 259.59 493.538 259.125C493.553 258.804 493.498 258.514 493.371 258.255C493.244 257.998 493.051 257.791 492.791 257.634C492.532 257.476 492.212 257.388 491.831 257.369Z" fill="white"/>
<path d="M485.979 279.778C486.054 279.238 486.257 278.78 486.588 278.404C486.921 278.029 487.354 277.759 487.887 277.596C488.424 277.432 489.035 277.398 489.721 277.493C490.402 277.588 490.977 277.787 491.446 278.09C491.914 278.393 492.256 278.772 492.471 279.226C492.686 279.68 492.756 280.181 492.68 280.726C492.621 281.149 492.504 281.472 492.33 281.697C492.157 281.926 491.974 282.093 491.778 282.197C491.586 282.305 491.428 282.388 491.305 282.446L491.293 282.53L494.484 282.973L494.346 283.969L485.702 282.769L485.835 281.806L486.831 281.945L486.848 281.827C486.74 281.737 486.605 281.612 486.444 281.452C486.285 281.292 486.153 281.078 486.047 280.808C485.944 280.538 485.922 280.195 485.979 279.778ZM486.855 280.038C486.8 280.437 486.857 280.79 487.027 281.094C487.2 281.399 487.462 281.649 487.813 281.845C488.168 282.04 488.59 282.172 489.079 282.24C489.563 282.307 489.997 282.295 490.379 282.205C490.764 282.115 491.078 281.947 491.318 281.699C491.562 281.452 491.712 281.126 491.769 280.72C491.827 280.298 491.768 279.931 491.59 279.62C491.415 279.312 491.153 279.062 490.804 278.87C490.457 278.681 490.056 278.555 489.6 278.492C489.138 278.428 488.709 278.44 488.313 278.528C487.919 278.62 487.591 278.789 487.33 279.037C487.072 279.288 486.913 279.621 486.855 280.038Z" fill="white"/>
<path d="M478.855 315.335L479.632 312.756L487.988 315.272L487.178 317.965C486.933 318.776 486.557 319.419 486.049 319.895C485.544 320.372 484.933 320.67 484.218 320.79C483.505 320.911 482.716 320.841 481.851 320.58C480.98 320.318 480.278 319.938 479.743 319.438C479.21 318.94 478.865 318.343 478.706 317.649C478.55 316.955 478.6 316.184 478.855 315.335ZM480.225 314.038L479.773 315.54C479.565 316.231 479.525 316.844 479.655 317.378C479.785 317.913 480.063 318.366 480.488 318.737C480.913 319.108 481.466 319.396 482.146 319.601C482.82 319.804 483.434 319.869 483.988 319.795C484.544 319.722 485.018 319.506 485.411 319.147C485.807 318.788 486.103 318.283 486.3 317.63L486.786 316.014L480.225 314.038Z" fill="white"/>
<path d="M472.572 334.285L478.663 336.681L478.308 337.585L477.388 337.223L477.363 337.287C477.62 337.516 477.786 337.813 477.859 338.178C477.933 338.543 477.897 338.908 477.754 339.272C477.727 339.341 477.692 339.426 477.649 339.529C477.605 339.631 477.571 339.707 477.545 339.758L476.593 339.383C476.613 339.355 476.654 339.287 476.714 339.179C476.777 339.076 476.832 338.962 476.881 338.837C476.997 338.541 477.039 338.252 477.007 337.971C476.975 337.693 476.878 337.444 476.714 337.224C476.552 337.008 476.334 336.845 476.059 336.737L472.204 335.221L472.572 334.285Z" fill="white"/>
<path d="M465.304 351.058C465.485 350.685 465.719 350.38 466.007 350.144C466.297 349.908 466.62 349.766 466.975 349.717C467.333 349.669 467.703 349.738 468.087 349.923C468.425 350.086 468.666 350.285 468.812 350.52C468.96 350.755 469.04 351.013 469.053 351.294C469.065 351.575 469.036 351.864 468.965 352.161C468.895 352.461 468.812 352.757 468.716 353.048C468.589 353.429 468.483 353.736 468.398 353.969C468.315 354.207 468.278 354.391 468.288 354.521C468.296 354.655 468.373 354.757 468.519 354.827L468.549 354.842C468.928 355.025 469.272 355.064 469.582 354.958C469.891 354.855 470.146 354.594 470.347 354.178C470.556 353.745 470.625 353.361 470.555 353.024C470.484 352.687 470.366 352.416 470.199 352.213L470.921 351.502C471.205 351.828 471.385 352.168 471.461 352.52C471.538 352.876 471.543 353.225 471.475 353.568C471.408 353.914 471.303 354.236 471.16 354.533C471.069 354.722 470.94 354.928 470.776 355.151C470.612 355.379 470.406 355.574 470.156 355.737C469.906 355.903 469.604 355.996 469.251 356.014C468.898 356.033 468.488 355.929 468.019 355.703L464.137 353.826L464.575 352.921L465.373 353.306L465.395 353.26C465.297 353.137 465.209 352.969 465.133 352.755C465.056 352.541 465.024 352.291 465.037 352.003C465.05 351.716 465.139 351.401 465.304 351.058ZM466.051 351.59C465.878 351.948 465.802 352.283 465.824 352.597C465.845 352.913 465.936 353.188 466.098 353.421C466.259 353.656 466.462 353.833 466.708 353.952L467.536 354.352C467.509 354.292 467.508 354.187 467.532 354.038C467.558 353.893 467.598 353.729 467.651 353.547C467.706 353.368 467.762 353.194 467.818 353.026C467.875 352.861 467.921 352.727 467.955 352.624C468.039 352.374 468.095 352.13 468.125 351.892C468.156 351.657 468.134 351.445 468.059 351.254C467.985 351.067 467.834 350.918 467.603 350.806C467.289 350.654 466.995 350.656 466.721 350.811C466.449 350.969 466.225 351.229 466.051 351.59Z" fill="white"/>
<path d="M453.804 367.817C454.053 367.4 454.32 367.072 454.606 366.836C454.889 366.598 455.177 366.43 455.469 366.333C455.758 366.237 456.035 366.188 456.3 366.187L456.374 367.163C456.225 367.18 456.049 367.209 455.846 367.251C455.641 367.291 455.427 367.385 455.206 367.535C454.982 367.685 454.768 367.93 454.567 368.27C454.297 368.724 454.184 369.164 454.228 369.59C454.272 370.017 454.529 370.369 454.998 370.648L456.141 371.327L456.184 371.253C456.12 371.129 456.046 370.963 455.964 370.756C455.884 370.553 455.849 370.307 455.861 370.02C455.874 369.737 455.989 369.413 456.207 369.046C456.477 368.592 456.827 368.248 457.256 368.014C457.685 367.783 458.166 367.684 458.701 367.718C459.235 367.754 459.795 367.946 460.381 368.294C460.957 368.637 461.399 369.036 461.706 369.493C462.016 369.951 462.18 370.43 462.2 370.931C462.222 371.433 462.092 371.921 461.811 372.395C461.593 372.762 461.359 373.016 461.11 373.158C460.861 373.305 460.625 373.389 460.403 373.413C460.182 373.44 460.004 373.457 459.869 373.462L459.816 373.55L460.71 374.081L460.214 374.916L454.426 371.477C453.942 371.19 453.614 370.847 453.442 370.447C453.266 370.048 453.216 369.622 453.294 369.169C453.367 368.717 453.537 368.267 453.804 367.817ZM456.914 369.625C456.708 369.972 456.613 370.312 456.63 370.646C456.646 370.979 456.767 371.297 456.991 371.598C457.214 371.9 457.534 372.174 457.949 372.421C458.355 372.662 458.749 372.813 459.132 372.875C459.514 372.938 459.865 372.901 460.183 372.766C460.501 372.631 460.764 372.388 460.973 372.036C461.191 371.67 461.279 371.31 461.239 370.955C461.197 370.603 461.056 370.273 460.816 369.965C460.574 369.66 460.263 369.394 459.882 369.168C459.491 368.935 459.109 368.791 458.736 368.735C458.364 368.682 458.021 368.726 457.707 368.866C457.393 369.011 457.129 369.263 456.914 369.625Z" fill="white"/>
<path d="M440.767 402.985L440.102 402.451L442.227 399.807L442.891 400.34L440.767 402.985ZM443.494 402.093L442.865 402.877L438.001 398.97C437.779 398.792 437.587 398.691 437.425 398.666C437.263 398.646 437.123 398.671 437.003 398.743C436.884 398.818 436.778 398.914 436.686 399.029C436.616 399.115 436.564 399.19 436.528 399.252C436.495 399.316 436.468 399.368 436.448 399.406L435.616 399C435.638 398.931 435.678 398.841 435.735 398.73C435.789 398.616 435.875 398.487 435.992 398.341C436.17 398.119 436.392 397.94 436.658 397.804C436.922 397.67 437.208 397.612 437.515 397.629C437.82 397.648 438.121 397.777 438.418 398.015L443.494 402.093Z" fill="white"/>
<path d="M425.026 411.084C425.431 410.654 425.889 410.373 426.4 410.241C426.908 410.111 427.432 410.129 427.972 410.294C428.509 410.461 429.024 410.776 429.516 411.24C430.012 411.707 430.361 412.205 430.561 412.734C430.76 413.265 430.81 413.788 430.711 414.303C430.609 414.821 430.356 415.294 429.951 415.724C429.546 416.155 429.089 416.434 428.58 416.564C428.07 416.696 427.544 416.677 427.005 416.508C426.463 416.342 425.944 416.024 425.448 415.557C424.956 415.093 424.612 414.597 424.415 414.068C424.217 413.542 424.168 413.019 424.269 412.502C424.368 411.987 424.621 411.514 425.026 411.084ZM425.683 411.703C425.375 412.03 425.206 412.378 425.175 412.746C425.143 413.115 425.217 413.479 425.394 413.837C425.572 414.196 425.819 414.525 426.138 414.825C426.456 415.125 426.801 415.354 427.171 415.512C427.542 415.669 427.911 415.723 428.279 415.672C428.648 415.621 428.986 415.432 429.293 415.105C429.601 414.778 429.77 414.43 429.799 414.059C429.828 413.688 429.753 413.323 429.573 412.962C429.394 412.602 429.145 412.272 428.826 411.972C428.508 411.672 428.165 411.444 427.796 411.288C427.428 411.132 427.061 411.081 426.694 411.134C426.328 411.187 425.991 411.377 425.683 411.703Z" fill="white"/>
<path d="M400.882 434.13L406.262 441.003L403.94 442.82C403.403 443.24 402.89 443.494 402.402 443.58C401.916 443.668 401.466 443.619 401.051 443.431C400.637 443.242 400.272 442.946 399.955 442.541C399.638 442.136 399.439 441.712 399.36 441.27C399.28 440.827 399.341 440.382 399.544 439.935C399.748 439.49 400.116 439.06 400.648 438.643L402.527 437.172L403.116 437.924L401.263 439.374C400.897 439.661 400.643 439.946 400.504 440.228C400.362 440.512 400.317 440.792 400.371 441.068C400.424 441.348 400.558 441.625 400.773 441.9C400.989 442.175 401.228 442.375 401.492 442.501C401.756 442.626 402.045 442.656 402.359 442.591C402.674 442.528 403.017 442.352 403.389 442.061L404.852 440.916L400.05 434.782L400.882 434.13ZM400.064 439.75L395.956 437.986L396.923 437.23L401.004 439.014L400.064 439.75Z" fill="white"/>
<path d="M381.689 448.099C382.184 447.778 382.696 447.614 383.223 447.608C383.748 447.603 384.253 447.744 384.738 448.033C385.22 448.323 385.645 448.752 386.013 449.319C386.384 449.891 386.604 450.458 386.673 451.019C386.739 451.582 386.663 452.102 386.444 452.579C386.223 453.057 385.864 453.457 385.368 453.778C384.872 454.1 384.362 454.263 383.837 454.268C383.31 454.274 382.804 454.131 382.32 453.839C381.834 453.548 381.405 453.117 381.035 452.545C380.667 451.977 380.451 451.413 380.385 450.853C380.318 450.294 380.395 449.775 380.616 449.297C380.835 448.82 381.193 448.421 381.689 448.099ZM382.18 448.858C381.803 449.102 381.556 449.399 381.438 449.75C381.32 450.1 381.304 450.471 381.391 450.861C381.478 451.252 381.641 451.63 381.879 451.998C382.117 452.365 382.397 452.669 382.719 452.911C383.041 453.152 383.387 453.292 383.757 453.33C384.127 453.367 384.5 453.264 384.877 453.02C385.254 452.776 385.5 452.478 385.617 452.125C385.733 451.771 385.747 451.399 385.659 451.006C385.57 450.613 385.407 450.233 385.169 449.866C384.931 449.499 384.652 449.196 384.331 448.957C384.01 448.718 383.666 448.58 383.297 448.545C382.929 448.509 382.557 448.613 382.18 448.858Z" fill="white"/>
<path d="M366.567 464.974L366.162 464.224L369.145 462.61L369.551 463.359L366.567 464.974ZM369.427 465.209L368.543 465.688L365.574 460.201C365.439 459.951 365.301 459.783 365.161 459.698C365.02 459.616 364.88 459.585 364.742 459.604C364.603 459.628 364.469 459.675 364.339 459.745C364.241 459.798 364.164 459.846 364.107 459.89C364.051 459.936 364.007 459.973 363.973 460.001L363.364 459.304C363.411 459.249 363.483 459.181 363.578 459.101C363.672 459.017 363.801 458.931 363.966 458.842C364.216 458.707 364.49 458.628 364.788 458.606C365.084 458.585 365.37 458.642 365.646 458.776C365.92 458.912 366.147 459.148 366.329 459.483L369.427 465.209Z" fill="white"/>
<path d="M349.591 466.009C349.97 465.84 350.345 465.758 350.718 465.762C351.091 465.769 351.43 465.869 351.733 466.06C352.038 466.253 352.277 466.545 352.451 466.934C352.604 467.276 352.661 467.584 352.621 467.857C352.582 468.132 352.477 468.382 352.306 468.604C352.135 468.827 351.927 469.029 351.681 469.211C351.434 469.396 351.18 469.569 350.919 469.729C350.576 469.938 350.298 470.105 350.083 470.229C349.866 470.357 349.719 470.474 349.642 470.58C349.562 470.687 349.556 470.815 349.622 470.962L349.636 470.994C349.807 471.377 350.046 471.629 350.351 471.747C350.653 471.867 351.016 471.833 351.439 471.644C351.877 471.448 352.178 471.198 352.341 470.895C352.504 470.592 352.588 470.308 352.591 470.045L353.602 469.967C353.609 470.4 353.527 470.775 353.359 471.093C353.188 471.415 352.967 471.685 352.694 471.904C352.42 472.126 352.133 472.304 351.832 472.439C351.64 472.525 351.409 472.6 351.139 472.665C350.868 472.733 350.584 472.749 350.288 472.714C349.99 472.679 349.699 472.555 349.417 472.342C349.135 472.129 348.888 471.785 348.676 471.311L346.915 467.374L347.833 466.963L348.195 467.773L348.242 467.752C348.246 467.594 348.288 467.409 348.367 467.196C348.446 466.984 348.583 466.771 348.778 466.56C348.973 466.348 349.244 466.165 349.591 466.009ZM349.82 466.897C349.457 467.059 349.183 467.267 348.998 467.521C348.81 467.776 348.703 468.045 348.677 468.327C348.648 468.611 348.689 468.877 348.801 469.126L349.176 469.967C349.194 469.903 349.261 469.821 349.376 469.723C349.489 469.629 349.625 469.529 349.783 469.424C349.94 469.323 350.095 469.226 350.246 469.133C350.396 469.045 350.518 468.972 350.61 468.915C350.835 468.777 351.036 468.626 351.212 468.464C351.386 468.305 351.507 468.128 351.572 467.934C351.636 467.743 351.616 467.531 351.512 467.298C351.369 466.979 351.143 466.79 350.834 466.732C350.524 466.678 350.186 466.733 349.82 466.897Z" fill="white"/>
<path d="M332.913 480.062L332.625 479.26L335.817 478.113L336.105 478.915L332.913 480.062ZM335.705 480.725L334.759 481.065L332.649 475.194C332.552 474.927 332.442 474.74 332.316 474.635C332.189 474.532 332.055 474.481 331.916 474.479C331.775 474.482 331.635 474.508 331.496 474.558C331.392 474.595 331.308 474.632 331.245 474.666C331.183 474.704 331.134 474.734 331.096 474.756L330.598 473.975C330.654 473.928 330.735 473.872 330.841 473.806C330.946 473.738 331.087 473.673 331.264 473.609C331.531 473.513 331.814 473.476 332.112 473.499C332.407 473.523 332.681 473.622 332.934 473.797C333.184 473.972 333.374 474.239 333.503 474.598L335.705 480.725Z" fill="white"/>
<path d="M315.19 478.767C315.798 478.599 316.359 478.588 316.874 478.735C317.388 478.885 317.83 479.169 318.202 479.588C318.572 480.011 318.847 480.545 319.025 481.191C319.204 481.837 319.243 482.44 319.144 482.998C319.043 483.559 318.818 484.037 318.47 484.43C318.12 484.828 317.66 485.105 317.091 485.262C316.762 485.353 316.422 485.388 316.072 485.367C315.721 485.346 315.38 485.249 315.049 485.075C314.719 484.904 314.42 484.638 314.153 484.279C313.886 483.92 313.671 483.446 313.508 482.857L313.395 482.446L318.258 481.103L318.49 481.94L314.612 483.012C314.71 483.368 314.869 483.666 315.089 483.906C315.306 484.146 315.566 484.312 315.871 484.401C316.173 484.492 316.5 484.488 316.85 484.392C317.236 484.285 317.544 484.097 317.773 483.827C318 483.561 318.147 483.255 318.213 482.91C318.28 482.564 318.265 482.218 318.169 481.87L318.015 481.311C317.883 480.835 317.69 480.453 317.434 480.168C317.176 479.885 316.875 479.698 316.532 479.608C316.189 479.52 315.822 479.53 315.431 479.638C315.176 479.708 314.956 479.807 314.77 479.935C314.582 480.067 314.433 480.226 314.323 480.412C314.213 480.602 314.147 480.818 314.126 481.059L313.117 481.055C313.127 480.71 313.216 480.385 313.382 480.08C313.549 479.777 313.785 479.512 314.09 479.283C314.396 479.057 314.763 478.885 315.19 478.767Z" fill="white"/>
<path d="M282.169 487.448C282.51 487.405 282.832 487.449 283.135 487.58C283.438 487.713 283.692 487.91 283.896 488.171C284.098 488.432 284.221 488.733 284.264 489.074C284.307 489.418 284.263 489.74 284.132 490.04C283.998 490.343 283.801 490.595 283.54 490.797C283.28 491.002 282.979 491.126 282.638 491.169C282.294 491.212 281.972 491.167 281.672 491.033C281.369 490.902 281.116 490.706 280.915 490.445C280.71 490.187 280.586 489.887 280.543 489.543C280.5 489.202 280.545 488.88 280.679 488.576C280.81 488.274 281.005 488.02 281.266 487.815C281.524 487.614 281.825 487.491 282.169 487.448Z" fill="white"/>
</g>
<defs>
<clipPath id="clip0_1_2">
<rect width="500" height="500" fill="white"/>
</clipPath>
</defs>
</svg>
